<?xml version="1.0" encoding="utf-8"?>
<!-- Generator: Adobe Illustrator 23.0.5, SVG Export Plug-In . SVG Version: 6.00 Build 0)  -->
<svg version="1.1" id="Layer_1" xmlns="http://www.w3.org/2000/svg" xmlns:xlink="http://www.w3.org/1999/xlink" x="0px" y="0px"
	 viewBox="0 0 825 812" style="enable-background:new 0 0 825 812;" xml:space="preserve">
<style type="text/css">
	.st0{fill:#A9DEFF;}
	.st1{fill:#F04264;}
	.st2{opacity:0.3;fill:#EF786F;}
	.st3{fill:#703A22;}
	.st4{fill:#602D19;}
	.st5{fill:#63D4AF;}
	.st6{fill:#52C199;}
	.st7{fill:#4138A5;}
	.st8{fill:#F5AE38;}
	.st9{fill:#E2982B;}
	.st10{fill:#FC643E;}
	.st11{fill:#EF4A29;}
	.st12{fill:#FFC04F;}
	.st13{fill:#7B1146;}
	.st14{fill:#6D0B41;}
	.st15{opacity:0.3;fill:#703A22;}
	.st16{fill:#F27E7A;}
	.st17{fill:#F3B6AB;}
	.st18{fill:#F4948E;}
	.st19{opacity:0.8;fill:#F4948E;}
	.st20{fill:#A7E8A8;}
	.st21{fill:#7F1909;}
	.st22{fill:url(#SVGID_1_);}
	.st23{fill:#FFFFFF;}
	.st24{fill:#912813;}
	.st25{fill:#993022;}
	.st26{fill:#422724;}
	.st27{fill:url(#SVGID_2_);}
	.st28{fill:#2F71BD;}
	.st29{fill:url(#SVGID_3_);}
	.st30{fill:url(#SVGID_4_);}
	.st31{fill:#8C4428;}
	.st32{fill:#0A3E54;}
	.st33{fill:#D1543F;}
	.st34{fill:#6BC0F6;}
	.st35{fill:#874329;}
	.st36{fill:#C64732;}
	.st37{fill:#2D0701;}
</style>
<path class="st0" d="M21,730.4l786-0.8c0,0-54.7,37.1-93.4,44.5c-38.7,7.3-425.5-7.7-499.5-5.4C140.1,770.9,21,730.4,21,730.4z"/>
<path class="st1" d="M662.1,509.2c0,0-7-2.4-16.5-2c-2.7,0.1-5.6,0.4-8.6,1.1l-0.3,0c-0.5-3.6-0.8-7.2-0.5-9.7c0,0,0.3-2.9,0.8-6.9
	c0.8-6.1,2.4-14.9,4.9-19.9c0.9,0.4,1.8,0.8,2.6,1.2C654.4,478,660.8,497.2,662.1,509.2z"/>
<path class="st1" d="M589.1,499l-2.9-7.1c0,0-10.3,1.8-11.4,2.2c0,0-0.9-5-3-10c-0.7-1.6-1.6-3.3-2.6-4.7c-4.1-5.9-5.8-8.1-5.8-8.1
	s7.5-2.3,17.6-4.4c0.7,2.6,2.2,8.3,3.9,15C586.4,487.4,587.8,493.5,589.1,499z"/>
<path class="st1" d="M627.8,498.3c0,0-17.3,3.9-31.2-4.9l-8.7-27.8c0.7-0.1,1.4-0.2,2.1-0.3c2.6-0.4,5.2-0.7,7.8-1
	c10.4-1,21.7,0.6,31.2,3.2c1.9,0.5,3.7,1.1,5.5,1.6C631.9,474.9,627.4,486.8,627.8,498.3z"/>
<path class="st2" d="M589.1,499l-2.9-7.1c0,0-10.3,1.8-11.4,2.2c0,0-0.9-5-3-10l13.2-2.2C586.4,487.4,587.8,493.5,589.1,499z"/>
<path class="st2" d="M628.9,467.5c-5,2.3-12.3,5-20,5.4c-11.5,0.6-17.1-4.9-19-7.6c2.6-0.4,5.2-0.7,7.8-1
	C608.2,463.2,619.4,464.9,628.9,467.5z"/>
<path class="st2" d="M645.5,507.2L645.5,507.2c-2.7,0.1-5.6,0.5-8.6,1.1l-0.3,0c-0.5-3.6-0.8-7.2-0.5-9.7c0,0,0.3-2.9,0.8-6.9
	C640.1,496.5,645.2,504.5,645.5,507.2z"/>
<path class="st3" d="M651.8,435.7c0,0.1,0,0.2-0.1,0.4v0c-0.9,3.8-3.8,9.5-13.7,16.4c-9,6.2-15.7,8.1-15.7,8.1s-17.3,3.4-29.3,0.8
	c-4.9-1.1-25.8,3.1-32.9-3.9c-6.3-6.1-9.6-16.5-10.7-27.4c-0.1-1.5-0.3-2.9-0.3-4.4c-0.5-12.4,1-21,0.4-28
	c-0.6-7,3.6-21.1,18.1-25.7c14.5-4.5,41.6-3.5,51.3,2.2c11.2,6.6,23.6,19.5,29.3,33.3C653.9,421.3,652.6,431.9,651.8,435.7z"/>
<path class="st4" d="M651.8,436.1L651.8,436.1c-0.9,3.8-3.8,9.5-13.7,16.4c-9,6.2-15.7,8.1-15.7,8.1s-17.3,3.4-29.3,0.8
	c-4.9-1.1-25.8,3.1-32.9-3.9c-6.3-6.1-9.6-16.5-10.7-27.4c13.6,1.4,17.1-14.7,25.3-25.8c9.7-13,45.7-13.5,67.1,11.9
	C647.5,423,650.5,429.8,651.8,436.1z"/>
<path class="st5" d="M435.4,459.2c-3.8,23-9.5,90.9-9.5,90.9s7.3,10.9,9,22.7c1.7,11.9-2.7,42.4-6.3,60.6
	c-1.4,6.9-4.7,18.7-8.2,30.5c-5.7,19.1-12.1,38.5-12.1,38.5c-0.2,0.2-0.3,0.3-0.5,0.4c-3.1,2.6-6.6,0.7-6.6,0.7s-3.2-64.1-6.1-83.6
	c-2.9-19.5-14.8-99.2-16.5-120.3c-1.7-21-8-64.6-8-64.6s-2.7,3.2-4.1,5.1c-1.4,1.9-36.6,58.5-45.2,75.3
	c-8.5,16.8-32.9,51.9-32.9,51.9s3.7,10.9,3.4,25.8c-0.3,14.9-15.6,34.6-28.8,50.2c-13.2,15.6-51.9,51.7-62.1,56.5
	c-2.9,1.3-5.4,2.2-7.4,2.8c-5.2,1.4-7.7,0.8-7.7,0.8s18.5-34.1,26.5-51.7c8-17.6,47.5-106.7,52.8-123.5
	c5.3-16.8,31.4-99.1,35.8-114.3c3.4-11.7,9.9-39.5,12.9-52c0.1-0.4,0.2-0.7,0.3-1.1c0.2-0.7,0.3-1.4,0.5-2v0c0.5-2,0.8-3.2,0.8-3.2
	s0,0,0.1,0.1c1.8,0.9,22,11,46.1,8.9c15.1-1.3,26.3-4.4,34.1-8.6c5.3-2.8,8.9-6.1,11.3-9.7c0,0,2.5,2.7,5.8,6.9
	c0.2,0.3,0.4,0.5,0.6,0.8c5.6,7,13.1,17.6,15.8,26.5C433.7,395.4,442.2,417.9,435.4,459.2z"/>
<path class="st6" d="M407.8,702.9c-3.1,2.6-6.6,0.7-6.6,0.7s-3.2-64.1-6.1-83.6c-2.9-19.5-14.8-99.2-16.5-120.3
	c-1.7-21-8-64.6-8-64.6s-2.7,3.2-4.1,5.1c-1.4,1.9-36.6,58.5-45.2,75.3c-8.5,16.8-32.9,51.9-32.9,51.9s3.7,10.9,3.4,25.8
	c-0.3,14.9-15.6,34.6-28.8,50.2c-13.2,15.6-51.9,51.7-62.1,56.5c-2.9,1.3-5.4,2.2-7.4,2.8c11.3-10.6,39.5-37.5,53.2-55.2
	c17.3-22.4,27-41.6,29-60.2c2-18.6,3.1-26.3,3.1-26.3s44.8-63.6,58.5-89c13.7-25.5,36.3-54,36.3-54s13.8,123.7,19.8,161.9
	C397.3,604,403.6,663,407.8,702.9z"/>
<path class="st6" d="M435.4,459.2c-3.8,23-9.5,90.9-9.5,90.9s7.3,10.9,9,22.7c1.7,11.9-2.7,42.4-6.3,60.6
	c-1.4,6.9-4.7,18.7-8.2,30.5c1-18.8,2.3-41.4,3.1-56.8c1.7-31.2-5.1-55.3-5.1-55.3s8.4-118.6,0.8-144.1c-6.6-22-13.9-37.8-23.7-51.8
	c5.3-2.8,8.9-6.1,11.3-9.7c0,0,2.5,2.7,5.8,6.9c0.2,0.3,0.4,0.5,0.6,0.8c5.6,7,13.1,17.6,15.8,26.5
	C433.7,395.4,442.2,417.9,435.4,459.2z"/>
<path class="st7" d="M401.2,703.6c-1.5,1.2-10.7,16.7-12.5,26.2c-1.9,9.5-1.5,12.6-1.5,12.6h32.2c0,0-5.3-32.2-11-39.9L401.2,703.6z
	"/>
<path class="st8" d="M526.5,726.5c0.3,11-12.9,24.3-44.8,28.7c-31.9,4.4-94.3,10.9-122.1,0c-27.8-10.9-50.9-47.5-32.2-73.6
	c4.4-6.1,10.2-11.1,17-15c22.1-12.9,54.5-15.1,80.8-12.5c34.3,3.4,75.2,30.8,84.1,37.3c9.4,6.9,15,19.2,16.7,29.6
	C526.3,722.9,526.5,724.8,526.5,726.5z"/>
<path class="st9" d="M526.5,726.5c0.3,11-12.9,24.3-44.8,28.7c-31.9,4.4-94.3,10.9-122.1,0c-27.8-10.9-50.9-47.5-32.2-73.6
	c4.4-6.1,10.2-11.1,17-15c0.1,14.3,5.1,34.6,26.9,48.4c28.8,18.1,43.5,23.8,85.2,22.7c28.8-0.7,55.6-10.6,69.5-16.6
	C526.3,722.9,526.5,724.8,526.5,726.5z"/>
<g>
	<path class="st10" d="M412,739.1c0,13.3-6.4,25.2-16.3,32.6c-6.8,5.1-15.3,8.1-24.4,8.1c-22.5,0-40.8-18.3-40.8-40.7
		c0-14.5,7.6-27.3,19.1-34.5c6.3-3.9,13.7-6.2,21.7-6.2C393.7,698.3,412,716.6,412,739.1z"/>
	<path class="st11" d="M395.6,771.7c-6.8,5.1-15.3,8.1-24.4,8.1c-22.5,0-40.8-18.3-40.8-40.7c0-14.5,7.6-27.3,19.1-34.5L395.6,771.7
		z"/>
</g>
<g>
	<path class="st12" d="M292.9,425.6c0.8,4,1.2,8.2-0.1,10.4c-0.2,0.4-0.5,0.7-0.8,0.9c-1.1,0.8-1.8,0.8-2.3,0.2
		c0.1,2.8,0,5.3-0.7,5.9c-0.8,0.7-2-0.5-2.9-2c-0.2-0.3-0.3-0.5-0.5-0.8c0.1,0.8,0.3,1.7,0.3,2.6c0.1,1.9-0.2,3.7-1.3,4.2
		c-1.3,0.7-2.3-0.3-3.1-1.6c-0.6-1-1.1-2.1-1.5-2.8c-0.1-0.1-0.1-0.2-0.2-0.3c-0.1-0.1-0.2-0.2-0.3-0.3c-0.6-0.6,1.3,2.6,1.6,5.2
		c0.2,1.5-0.2,2.8-1.9,2.9c-3.9,0.3-4.9-8.1-5-10.9c0-0.6,0-0.9,0-0.9s-1.2-1.3-2.2-3.3c-1.1-2.1-2-5.1-1.2-8.3
		c1.7-6.1,7.1-12.6,7.1-12.6s-1.3-3.1,0-19.3c1.4-16.3,4.7-39.4,4.7-39.4c3.4,1.4,10.1,6.8,15.6,11.5c4.7,4,8.5,7.6,8.5,7.6
		c-2,13.2-16.3,41.7-16.3,41.7s1,2.9,1.9,6.5C292.5,423.6,292.8,424.6,292.9,425.6z"/>
	<path class="st8" d="M290.4,416.2c0,0,5.3,14.9,2.5,19.8c-0.7-7.9-4.8-20-4.3-22.3c0.5-2.6,6.8-25.6,9.6-46.8
		c4.7,4,8.5,7.6,8.5,7.6C304.6,387.7,290.4,416.2,290.4,416.2z"/>
</g>
<path class="st13" d="M495.8,305.1c0,5.1-14.2,15.4-14.2,15.4s-4.7-4.8-9.7-9.2c-1.5-1.4-3-2.7-4.4-3.9c-6.1-5-19.1-10.7-19.1-10.7
	s-1.5-2.4-4-5.8c-3.7-5.3-9.6-13.2-15.3-19.5c-9.5-10.4-16.1-16.6-16.1-16.6s-2.2,12.7-6.2,22.5c-3.9,9.8-9.8,21.9-11.3,36.9
	c-1.5,14.9,11.3,32.1,11.3,32.1c-2.2,3.4-5.7,6.6-10.7,9.3c-7.8,4.4-19.2,7.6-34.8,9c-25.3,2.2-46.2-9-46.2-9s-0.4-0.4-1.1-1.1
	c-1.3-1.4-3.9-3.9-7.1-6.6c-1.4-1.1-2.9-2.3-4.5-3.4c-7.2-5-14-8.9-14-8.9s4.1-17.5,13.2-32.6c1-1.7,1.8-3.4,2.4-5
	c2.4-6.8,1.6-13.1,1.4-13.8c-0.8-2-5.4-10.9-6.8-18.9c-0.5-3.1-0.6-6,0.2-8.4c2.9-8.5,15.7-24.4,15.7-24.4s-0.7-16.8,0.8-25.4
	c1.2-6.5,5.3-12.1,11.1-15c1.9-0.9,3.9-1.6,6-1.9c8.8-1.4,21.6,3.5,21.9,4l27.5,3.8c0,0,1.5-0.2,12.9,0c8.6,0.2,17.1,0.5,22.6,1.9
	c1.8,0.5,3.2,1.1,4.4,1.8c4.6,3.1,29.9,28.8,46.3,50.6c9.2,12.1,16.8,25.7,21.6,36.2C493.6,296.5,495.8,302.9,495.8,305.1z"/>
<path class="st14" d="M495.8,305.1c0,5.1-14.2,15.4-14.2,15.4s-4.7-4.8-9.7-9.2c6.6-4.9,13-14.5,17.8-23
	C493.6,296.5,495.8,302.9,495.8,305.1z"/>
<path class="st14" d="M444.5,290.9c-3.7-5.3-9.6-13.2-15.3-19.5c-9.5-10.4-16.1-16.6-16.1-16.6s-2.2,12.7-6.2,22.5
	c-3.9,9.8-9.8,21.9-11.3,36.9c-1.5,14.9,11.3,32.1,11.3,32.1c-2.2,3.4-5.7,6.6-10.7,9.3c-4.8-4.7-9.3-10.5-10.9-17
	c-4.2-16.3,0-40.2,0-40.2c-28.2,10-40-1.8-40-1.8s40.8-7.9,54.5-22.1c13.8-14.3,13-34.1,13-34.1s16.3,19.2,23,30.4
	C440.6,278.5,443.8,286.6,444.5,290.9z"/>
<path class="st14" d="M329.4,298.9v1.4c0,0-5.3,1.7-10.1-2.2c0.2,0.3,5.1,7,2.2,23.5c-1.7,9.6-4.9,23-7.3,32.8
	c-1.3-1.4-3.9-3.9-7.1-6.6c0.2-3.6,0.6-8.5,1.2-15c1.3-14,1.3-27.4-4.1-35c2.4-6.8,1.6-13.1,1.4-13.8c-0.8-2-5.4-10.9-6.8-18.9
	c2.2,6,6.3,10.3,13.2,16.7C323,292.1,329.4,298.9,329.4,298.9z"/>
<path class="st14" d="M417.5,199.7c-10.4,5.5-31.9,14.9-51.8,12c-22.8-3.4-34.1-13.5-39.1-19.8c1.9-0.9,3.9-1.6,6-1.9
	c8.8-1.4,21.6,3.5,21.9,4l27.5,3.8c0,0,1.5-0.2,12.9,0C403.5,197.9,411.9,198.2,417.5,199.7z"/>
<g>
	<path class="st3" d="M331.3,146c2.4,8.1,3.2,17.5-0.7,25.6c-3.9,8.1-15.9,10-15.9,10c-3.7,3.6,1.2,12.6,1.9,13.7
		c0.7,1.2-1.2,1-9.3-1.2c-5-1.4-11.8-4-17-8.5c-3.3-2.8-5.9-6.2-7.2-10.5c-3.4-11.2,5.4-23.2,7.8-24.6c2.4-1.4-0.5-14.2,0-24.7
		c0.5-10.5,5.1-19.4,20.9-21.4c15.8-2,20.2,3.1,22.7,4.1c0,0-2.6,3.5-3,9.3c0,0.2,0,0.3,0,0.5c-0.3,6.1,1.5,13.1,1.5,13.1
		S328.9,137.9,331.3,146z"/>
	<path class="st15" d="M330.6,171.6c-3.9,8.1-15.9,10-15.9,10c-3.7,3.6,1.2,12.6,1.9,13.7c0.7,1.2-1.2,1-9.3-1.2
		c-5-1.4-11.8-4-17-8.5c-3.8-11.7-1.5-25.2,14.1-20.7c19.3,5.5,19.9-7.1,15-19.3c-4.2-10.6,0.6-29.7,12-27.8c0,0.2,0,0.3,0,0.5
		c-0.3,6.1,1.5,13.1,1.5,13.1s-3.9,6.4-1.5,14.6C333.6,154.2,334.5,163.5,330.6,171.6z"/>
</g>
<path class="st3" d="M452.6,153.1c-4.4,4.4-8,7.7-10.5,11.3c-1.9,2.7-3.1,5.7-3.7,9.5c-1.2,8.8,0.3,16.8,0.3,16.8
	s-13.6-8.5-14.1-15.4c0-0.3-0.1-0.5-0.3-0.8c4.4-6,7.5-13.7,9.2-23.9c2.5-15.5,2.4-25.1,0.3-34.7c-0.5-2.2-1.1-4.5-1.8-6.8
	c-1.3-4.2-2.4-7.3-3.4-9.5v0c-2-4.4-3.9-6-7.5-7.5c-0.5-0.2-0.9-0.4-1.3-0.6c-5-2.2-9.3-4.5-9.3-4.5c-0.8-0.2-1.8-0.3-2.9-0.4
	c0,0,0,0,0,0c-7.8-0.1-23,4.9-31.2,16.9c-9.4,13.7-16.5,32.3-16.5,32.3s-1.3-16.3-8.4-16.3s-7.6,14.2-3.3,21.6
	c4.3,7.4,9.7,10.2,9.7,10.2s0.1,0.8,0.3,2.1c0.2,1.3,0.6,3.2,1.1,5.4c-2.1-0.1-15.9-8.5-19.9-23.3c-0.5-2-1-3.8-1.3-5.6
	c-2-11.6,0.7-19.6,5.6-30.8c5.6-13,13-20.4,16.5-26.2c3.6-5.9,14.5-7.9,22.1-2.3c0,0,17.8-13.5,35.6-8.4
	c17.8,5.1,39.4,24.4,43.2,45.5C464.9,128.9,460.3,145.4,452.6,153.1z"/>
<path class="st15" d="M412.7,86.5c2.1,1.3,4.5,2.9,7,4.9c-5-2.2-9.3-4.5-9.3-4.5c-0.8-0.2-1.8-0.3-2.9-0.4c0,0,0,0,0,0
	c-7.8-0.1-23,4.9-31.2,16.9c-9.4,13.7-16.5,32.3-16.5,32.3s-1.3-16.3-8.4-16.3s-7.6,14.2-3.3,21.6c4.3,7.4,9.7,10.2,9.7,10.2
	s0.1,0.8,0.3,2.1c0.2,1.3,0.6,3.2,1.1,5.4c-2.1-0.1-15.9-8.5-19.9-23.3c-0.5-2-1-3.8-1.3-5.6l0.7-2.1c0-11.7,13.6-16.8,22.3-22.7
	C369.4,99.4,400.6,78.9,412.7,86.5z"/>
<path class="st15" d="M443.2,143.4c-1.2,7.6-1.4,14.6-1.1,20.9c-1.9,2.7-3.1,5.7-3.7,9.5c-1.2,8.8,0.3,16.8,0.3,16.8
	s-13.6-8.5-14.1-15.4c0-0.3-0.1-0.5-0.3-0.8c4.4-6,7.5-13.7,9.2-23.9c2.5-15.5,2.4-25.1,0.3-34.7c-0.5-2.2-1.1-4.5-1.8-6.8
	c-1.3-4.2-2.4-7.3-3.4-9.5C438.1,109.6,446.2,124.2,443.2,143.4z"/>
<g>
	<path class="st16" d="M517,691.1c-0.6,0-1.1-0.1-1.7-0.4c-2-0.9-2.9-3.4-2-5.4c4-8.6,2.8-19.4-3.3-30.2
		c-5.8-10.3-15.3-19.8-26.3-26C459,615,450.4,597.4,455,570.3c5.8-34.2,31.8-46.8,54.2-47.1c0.2,0,0.4,0,0.6,0
		c21.5,0,37.2,19.6,37.8,20.4c1.4,1.8,1.1,4.3-0.7,5.7c-1.8,1.4-4.3,1.1-5.7-0.7c-0.2-0.3-14-17.3-31.5-17.3c-0.1,0-0.3,0-0.4,0
		c-9.3,0.2-40,3.5-46.3,40.4c-4.1,23.9,2.9,38,24.8,50.4c24.3,13.8,43.7,43.2,32.9,66.7C520,690.2,518.6,691.1,517,691.1z"/>
</g>
<g>
	<path class="st17" d="M574.9,494.1l-2.4,0.9c0,0-2.9,12.7-8.3,22.4c-5.3,9.4-12.3,19.3-12.7,19.8c0,0,0,0,0,0s4.6,16.4,1.7,17.6
		c-0.6,0.2-1.1-0.1-1.7-0.7c-2.2-2.6-4.1-10.7-5.4-11.5c-1.7-1-4.6,1-4.2,4.1c0.3,3.1,5.6,7.1,4.7,8.2c-0.8,1.1-7.4-0.6-9.1-4.3
		c0.1,0.3,1.8,4,0,3.9c-1.9-0.2-8.3-10.2-8.3-10.2s-3.4-5.8,1.9-8.6c5.3-2.9,11.7-8.2,11.7-8.2s2.7-16.6,3.2-27
		c0.5-10.4,3.2-19.7,6.5-22.9c3.2-3.2,11.2-6.5,11.2-6.5s1.7,2.2,5.8,8.1c1,1.5,1.9,3.2,2.6,4.8C574,489.2,574.9,494.1,574.9,494.1z
		"/>
	<path class="st18" d="M551.5,537.2c0,0,4.6,16.4,1.7,17.6c-0.6,0.2-1.1-0.1-1.7-0.7L551.5,537.2z"/>
	<path class="st18" d="M574.9,494.1l-2.4,0.9c0,0-2.9,12.7-8.3,22.4c-5.3,9.4-12.3,19.3-12.7,19.8c0.2-0.7,7.9-23.3,12-38.7
		c2.9-10.8,5.9-13.2,8.4-14.3C574,489.2,574.9,494.1,574.9,494.1z"/>
</g>
<g>
	<path class="st17" d="M315.2,355.5c-2,6.8-10.6,18.3-10.6,18.3s-2.6-2.3-5.7-5c-1.5-1.3-3.1-2.7-4.5-3.9
		c-4.6-3.9-10.3-7.4-10.3-7.4c1.1-7.9,4.4-20.9,4.4-22c0,0,6.4,1.6,14.8,8c1,0.8,2,1.6,2.9,2.4C312,350.8,315.2,355.5,315.2,355.5z"
		/>
	<path class="st18" d="M315.2,355.5c-2,6.8-10.6,18.3-10.6,18.3s-2.6-2.3-5.7-5c2.4-7.4,5.3-16.6,7.2-22.9
		C312,350.8,315.2,355.5,315.2,355.5z"/>
</g>
<g>
	<path class="st17" d="M617.1,470.4c-1.4,0.8-3.5,1.3-5.7,1.4c-4.3,0.3-9.1-0.5-10.4-1.4c-1.8-1.4-3.8-5.2-5.5-9.9
		c2.5-0.3,4.8-0.8,7.1-1.5c6.2-1.8,11.3-4.8,15-8.4C618.7,456.5,620.3,468.6,617.1,470.4z"/>
	<path class="st18" d="M617.1,470.4c-1.4,0.8-3.5,1.3-5.7,1.4l-8.8-12.8c6.2-1.8,11.3-4.8,15-8.4
		C618.7,456.5,620.3,468.6,617.1,470.4z"/>
</g>
<g>
	<path class="st17" d="M385.3,191.1l-1.2,2.4c-2,1.3-6.3,3.3-11.2,1.9c-0.6-0.2-1.2-0.4-1.7-0.7c-7.5-3.6-9.2-5.1-9.8-6.5
		c-0.7-1.4-0.4-4.1-0.4-4.1c0.8-4.2,1.8-10.4,2-12.8c0-0.3,0-0.5,0-0.7c0-0.1,0-0.2,0-0.2c0.2,0.4,0.4,0.9,0.6,1.3
		c1.8,4,4.2,7.9,7.2,11.3c1.1,1.2,2.2,2.2,3.4,3.1c1.1,0.9,2.3,1.6,3.5,2.3C380,189.8,382.6,190.6,385.3,191.1z"/>
	<path class="st18" d="M374.1,186.2c-0.6,3.1-1,6.3-1.2,9.2c-0.6-0.2-1.2-0.4-1.7-0.7c-7.5-3.6-9.2-5.1-9.8-6.5
		c-0.7-1.4-0.4-4.1-0.4-4.1c0.8-4.2,1.8-10.4,2-12.8c0.2,0.1,0.4,0.3,0.6,0.4c1.8,4,4.2,7.9,7.2,11.3
		C371.8,184.3,372.9,185.3,374.1,186.2z"/>
</g>
<g>
	<path class="st17" d="M433.6,150.5c-1.6,10.2-4.8,17.9-9.2,23.9c-3.8,5.2-8.5,9-14,12c-7.2,3.9-16.5,6.3-25.1,4.7
		c-5.3-1-10.4-3.5-14.6-8c-0.9-1-1.8-2.1-2.5-3.1c-2.2-3-3.9-6.2-5.3-9.5c-1.8-4.2-3-8.3-3.8-11.7c-1-4.4-1.4-7.5-1.4-7.5
		s-4.1-2.2-8.1-7.7c-0.5-0.8-1.1-1.6-1.6-2.5c-4.3-7.4-3.8-21.6,3.3-21.6c0.9,0,1.8,0.3,2.5,0.8c4.9,3.2,5.9,15.5,5.9,15.5
		s7.1-18.6,16.5-32.3c3.8-5.6,9.1-9.6,14.5-12.4h0c7.9-4,15.9-5.2,19.6-4.2c0,0,5.1,2.8,10.7,5.1c5.6,2.3,7.1,4.8,10.9,17
		C435.9,121.3,436.6,131.4,433.6,150.5z"/>
	<path class="st19" d="M368.2,179.9c-2.2-3-3.9-6.2-5.3-9.5c-1.8-4.2-3-8.3-3.8-11.7c-1-4.4-1.4-7.5-1.4-7.5s-4.1-2.2-8.1-7.7
		c0.9-7.9,2.6-16.5,4.2-23.3c4.9,3.2,5.9,15.5,5.9,15.5s7.1-18.6,16.5-32.3c3.8-5.6,9.1-9.6,14.5-12.4c-13.4,25.3-21.5,32.9-22.9,59
		C367.2,163.3,367.6,173.2,368.2,179.9z"/>
</g>
<path class="st13" d="M614.1,721.8c-1,0.1-22.5,17.3-22.5,17.3s10.3,0.3,19-0.8c8.7-1,14.6-4.1,14.6-4.1l-6.7-16.4L614.1,721.8z"/>
<path class="st13" d="M703.9,725.9c-0.7,1.3-7.6,17.3-7.6,17.3s3.1,2.2,9.8,1.6c6.7-0.5,10.7-2.8,10.7-2.8l-7-18L703.9,725.9z"/>
<path class="st20" d="M709.6,724.8c-1.9,1.5-5.3,1.7-5.3,1.7S685,699,673.8,678.3c-10.4-19.3-39.5-80.1-43.3-88.2
	c-0.3-0.6-0.4-0.9-0.4-0.9l-0.2,0.5v0l-23.7,47.7c3.7,2.9,13.7,16.8,15.3,35.5c1.5,18.7-2.5,44.1-2.9,45c-0.3,0.8-4.2,4.4-4.2,4.4
	s-9.7-26.3-14.6-42.2c-4.9-15.9-16.8-45.5-16.8-45.5s0.2-12,4.5-28.8c4.3-16.8,15.2-58.5,15.2-58.5s-0.1-0.3-0.3-0.9
	c-0.1-0.2-0.2-0.5-0.3-0.8c-1.9-5.8-8.5-25.4-10.6-36.3c-0.4-2.2-1-5-1.7-8c-0.1-0.3-0.1-0.6-0.2-0.9h0c-0.1-0.5-0.2-0.9-0.3-1.4
	c-2.8-12.1-6.6-27.5-8-32.1c2.1-0.4,4.4-0.9,6.7-1.2l8.7,27.8c0,0,0.1,0,0.1,0.1c0.2,0.1,0.5,0.3,0.7,0.4c11.4,6.8,24.8,5.4,29,4.7
	c0.3,0,0.6-0.1,0.8-0.1c0.4-0.1,0.6-0.1,0.6-0.1c-0.4-11.5,4.1-23.4,6.6-29.3c2.7,0.9,5.2,1.8,7.4,2.8c-4.1,8.3-5.7,26.8-5.7,26.8
	c0,0.6-0.1,1.4-0.1,2.1c0,0.3,0,0.6,0,0.9c0.1,2,0.3,4.3,0.6,6.6c1,7.6,2.8,15.8,2.8,15.8s18.1,16.3,21.9,20
	c0.3,0.3,0.6,0.6,0.7,0.7c0,0,0,0,0,0.1c-0.3,0,1.5,4.7,3.4,19.3c1.9,14.6,6.5,68,5.9,68c-0.5,0,20.5,11.7,26.3,29.5
	C703.5,679.5,711.4,723.3,709.6,724.8z"/>
<path class="st21" d="M378.4,116.6c-1-0.5,8.3-5.9,15.4-4.9c7.1,1,8.7,8.3,8.7,8.3s-5-3.9-12.1-4.2
	C383.3,115.5,378.4,116.6,378.4,116.6z"/>
<path class="st21" d="M435.4,127.9c0,0-0.9-4.7-8.7-6.8c-7.8-2-9.3,2.5-7.5,4.1c1.9,1.5,11.2,0.5,16.1,7.3
	C435.4,132.5,436.5,130,435.4,127.9z"/>
<linearGradient id="SVGID_1_" gradientUnits="userSpaceOnUse" x1="328.8085" y1="122.1471" x2="339.7747" y2="122.1471">
	<stop  offset="1.953000e-05" style="stop-color:#F6413C"/>
	<stop  offset="0.995" style="stop-color:#F53347"/>
</linearGradient>
<path class="st22" d="M339.8,108.5c0,0-5.5-2.9-9.2,4.2c-3.7,7.1-2,22.4,8.8,23.8c0,0-1.4-9.4-1-17.2
	C338.7,111.4,339.8,108.5,339.8,108.5z"/>
<path class="st23" d="M382,163.7c0,0,11.7,10.4,18.8,13.2c0,0-7.1,5.9-14.6,2C378.8,175,382,163.7,382,163.7z"/>
<path class="st24" d="M351.8,125.7c-0.1-0.2-0.3-0.3-0.5-0.2c-0.2,0.1-0.3,0.3-0.3,0.5c0,0.1,0.7,2.1,1.4,4.8
	c-1,0.5-4.1,2.2-3.3,4.2c0.8,1.9,4.2,2.7,5.1,2.9c0.3,1.4,0.5,2.7,0.6,3.6c0,0.2,0.2,0.4,0.4,0.4c0,0,0,0,0,0c0.2,0,0.4-0.2,0.3-0.4
	C355.4,137.2,352,126.2,351.8,125.7z M350,134.7c-0.5-1.2,1.6-2.6,2.8-3.2c0.5,1.8,1,3.8,1.5,5.6C352.8,136.8,350.5,136,350,134.7z"
	/>
<g>
	<path class="st25" d="M410.1,165c-2.6,0-6-0.9-9.5-4.3c-0.2-0.1-0.2-0.4,0-0.5c0.2-0.2,0.4-0.2,0.5,0c6.1,6,11.8,3.8,13.1,3.3
		c-0.1-0.7-0.7-3.3-3-10.9c-1.8-5.9-1.5-12,0.6-17.2c0-0.1,0.1-0.1,0.1-0.2c0.1-0.2,0.3-0.3,0.5-0.2c0.2,0.1,0.3,0.3,0.2,0.5
		c0,0,0,0.1-0.1,0.2c-2.1,5-2.3,11-0.6,16.7c2.9,9.6,3.1,11.2,3.1,11.3c0,0.2-0.1,0.3-0.2,0.4C414.7,164,412.9,165,410.1,165z"/>
</g>
<path class="st26" d="M392,136.2c-1.3,3.6-3.4,6.2-4.9,5.7c-1.4-0.5-1.5-3.8-0.3-7.5c1.3-3.6,3.4-6.2,4.9-5.7
	C393.2,129.3,393.3,132.6,392,136.2z"/>
<path class="st26" d="M426.4,144.3c-1.3,3.6-3.4,6.2-4.9,5.7c-1.4-0.5-1.5-3.8-0.3-7.5c1.3-3.6,3.4-6.2,4.9-5.7
	C427.5,137.4,427.6,140.7,426.4,144.3z"/>
<path class="st15" d="M433.9,115.8c-0.5-2.2-1.1-4.5-1.8-6.8c-3.8-12.2-5.3-14.8-10.9-17c-5.6-2.3-10.7-5.1-10.7-5.1
	c-0.8-0.2-1.8-0.3-2.9-0.4c3.8-0.5,17.1-12.7,23.5,0C435.8,96,435.8,107.9,433.9,115.8z"/>
<g>
	<path class="st7" d="M597.4,493.9l-2.4,9.4c0,0.1-0.1,0.2-0.2,0.3c0,0-0.1,0-0.2,0c0,0-0.1,0-0.2,0c-1.8-0.9-3.9-1.9-4.8-2.3
		c-0.1-0.3-0.1-0.6-0.2-0.9c0.9,0.3,3.4,1.6,5,2.3l2.3-9.1C596.9,493.6,597.1,493.8,597.4,493.9z"/>
</g>
<g>
	<path class="st7" d="M636.1,501.8c-2.1,1.6-4,3.2-4.2,3.4c-0.1,0.1-0.2,0.2-0.3,0.2c-0.2,0-0.6,0-5.1-6.8c0.3,0,0.6-0.1,0.8-0.1
		c1.8,2.7,3.7,5.3,4.3,6c0.7-0.6,2.7-2.2,4.6-3.6C636,501.1,636,501.4,636.1,501.8z"/>
</g>
<g>
	<path class="st7" d="M635.4,528.4l-5.3-18.3c0-0.2-0.2-0.3-0.3-0.3c-12.8-0.4-29.8-3-30-3c-0.1,0-0.3,0-0.3,0.1
		c-0.1,0.1-0.1,0.2-0.1,0.4l5.5,19.4c0,0.1,0.1,0.2,0.2,0.3c5.7,2,29,2.1,30,2.1h0c0.2,0,0.4-0.2,0.4-0.4
		C635.5,528.6,635.5,528.5,635.4,528.4z M605.5,526.3l-5.3-18.7c3.1,0.5,17.7,2.6,29.2,2.9l5.1,17.7
		C631.1,528.2,611,528.1,605.5,526.3z"/>
</g>
<g>
	<path class="st7" d="M662,544.8c-10.6,1.7-23.8,2.2-35.3,2.2c-10.8,0-20.2-0.4-24.5-0.7c-0.1-0.2-0.2-0.5-0.3-0.8
		c8.4,0.5,38.7,1.9,59.4-1.4C661.7,544.4,661.9,544.7,662,544.8z"/>
</g>
<g>
	<path class="st7" d="M630.3,590.2c-0.1,0-0.3-0.1-0.3-0.2c-0.2-0.4-2.2-3.3-3.5-5.2c-0.1-0.2-0.1-0.4,0.1-0.5
		c0.2-0.1,0.4-0.1,0.5,0.1c0.3,0.5,3.3,4.7,3.6,5.3c0.1,0.2,0,0.4-0.2,0.5C630.4,590.2,630.3,590.2,630.3,590.2z"/>
</g>
<g>
	<path class="st1" d="M731.8,737.6c-0.8,0-1.6-0.3-2.2-0.9L542.2,548.2c-1.2-1.2-1.2-3.1,0-4.3c1.2-1.2,3.1-1.2,4.3,0l187.4,188.5
		c1.2,1.2,1.2,3.1,0,4.3C733.3,737.3,732.6,737.6,731.8,737.6z"/>
</g>
<linearGradient id="SVGID_2_" gradientUnits="userSpaceOnUse" x1="507.3182" y1="691.7307" x2="526.5339" y2="691.7307">
	<stop  offset="5.058590e-03" style="stop-color:#F78A7D"/>
	<stop  offset="1" style="stop-color:#F27682"/>
</linearGradient>
<path class="st27" d="M507.3,690c0,0,2.3-8.7,4.4-9c2-0.3,14.2,11.4,14.9,16l-7.5,5.3C519.1,702.4,512.1,693.3,507.3,690z"/>
<path class="st28" d="M703.8,746.7c0.3,0.8,0,3.6,0,3.6l69-1.8c0,0-25.7-0.8-39.7-17.3l-4.8,2.3c0,0,0,7.6-5.6,9.9
	C717,745.7,703.8,746.7,703.8,746.7z"/>
<linearGradient id="SVGID_3_" gradientUnits="userSpaceOnUse" x1="703.787" y1="751.7858" x2="772.7412" y2="751.7858">
	<stop  offset="1.953000e-05" style="stop-color:#F6413C"/>
	<stop  offset="0.995" style="stop-color:#F53347"/>
</linearGradient>
<polygon class="st29" points="703.8,750.3 703.8,755.1 772.7,753.2 772.7,748.5 "/>
<linearGradient id="SVGID_4_" gradientUnits="userSpaceOnUse" x1="352.6212" y1="739.0892" x2="389.8264" y2="739.0892">
	<stop  offset="1.005860e-02" style="stop-color:#BBDDFD"/>
	<stop  offset="1" style="stop-color:#A0DDFD"/>
</linearGradient>
<path class="st30" d="M352.6,739.1c0-10.3,8.3-18.6,18.6-18.6c10.3,0,18.6,8.3,18.6,18.6s-8.3,18.6-18.6,18.6
	C360.9,757.7,352.6,749.4,352.6,739.1z"/>
<g>
	<path class="st1" d="M366.4,302.4c-6.4,0-11.2-1-11.4-1c-0.3-0.1-0.4-0.3-0.4-0.6c0.1-0.3,0.3-0.5,0.6-0.4
		c0.3,0.1,25.7,5.4,36.5-8.7c0.2-0.2,0.5-0.3,0.7-0.1c0.2,0.2,0.3,0.5,0.1,0.7C386.2,300.6,374.9,302.4,366.4,302.4z"/>
</g>
<g>
	<path class="st1" d="M414.6,256.7c-0.1,0-0.3-0.1-0.4-0.2c-2.5-2.8-2.7-4.6-2.8-4.7c0-0.1,0-0.1,0-0.2c0-0.1,1.7-8.4,1.6-17.2
		c0-0.3,0.2-0.5,0.5-0.5c0,0,0,0,0,0c0.3,0,0.5,0.2,0.5,0.5c0.1,8.3-1.4,16.3-1.6,17.3c0.1,0.3,0.5,1.9,2.5,4.1
		c0.2,0.2,0.2,0.5,0,0.7C414.8,256.7,414.7,256.7,414.6,256.7z"/>
</g>
<g>
	<path class="st1" d="M314.1,358.9c0,0-0.1,0-0.1,0c-0.3-0.1-0.4-0.3-0.4-0.6c0.1-0.2,5.7-21.7,7.2-31.8c1.3-8.6,2.4-24-4.7-30.9
		c-7.2-7-11.2-11.4-14.2-18.2c-0.1-0.3,0-0.6,0.3-0.7c0.3-0.1,0.6,0,0.7,0.3c2.9,6.6,6.8,11,13.9,17.9c7.5,7.2,6.3,23,5,31.7
		c-1.5,10.1-7.2,31.7-7.3,31.9C314.6,358.8,314.3,358.9,314.1,358.9z"/>
</g>
<g>
	<path class="st31" d="M435.1,98.8c-0.3,0-0.5-0.2-0.5-0.5c0-0.1-0.3-13.4-3.2-19.1c-0.7-1.4-1.7-2.2-3-2.6
		c-3.6-1.1-9.3,1.7-14.9,4.6c-0.3,0.1-0.6,0-0.7-0.2c-0.1-0.2,0-0.6,0.2-0.7c5.7-3.1,11.6-5.9,15.7-4.7c1.5,0.5,2.7,1.5,3.6,3.1
		c3.1,5.9,3.3,19,3.4,19.5C435.6,98.6,435.4,98.8,435.1,98.8C435.1,98.8,435.1,98.8,435.1,98.8z"/>
</g>
<g>
	<path class="st31" d="M373.1,81.3c-0.1,0-0.2,0-0.3-0.1c-0.2-0.1-0.3-0.5-0.2-0.7c3.8-6.2,12.8-12.7,14.9-13.8
		c0.2-0.1,0.6-0.1,0.7,0.2c0.1,0.2,0,0.6-0.2,0.7c-1.2,0.7-10.5,7-14.5,13.5C373.4,81.2,373.2,81.3,373.1,81.3z"/>
</g>
<g>
	<path class="st31" d="M288.5,164.2c-0.2,0-0.3-0.1-0.4-0.2c-0.1-0.2-0.1-0.5,0.2-0.7c0.1-0.1,9.4-6.2,8.7-13.1
		c-0.1-1.1-0.3-2.2-0.4-3.3c-0.8-6.1-1.5-11.8,1.9-22.9c0.1-0.3,0.4-0.4,0.6-0.3c0.3,0.1,0.4,0.4,0.3,0.6
		c-3.4,10.9-2.7,16.5-1.9,22.5c0.1,1.1,0.3,2.2,0.4,3.3c0.8,7.6-8.7,13.8-9.1,14.1C288.7,164.1,288.6,164.2,288.5,164.2z"/>
</g>
<g>
	<path class="st31" d="M320,172.5c-0.1,0-0.2,0-0.2,0c-0.3,0-0.5-0.2-0.5-0.5c0-0.3,0.2-0.5,0.5-0.5c2,0,4.9-0.8,6.7-3.6
		c2.8-4.3,2.3-11.3-1.6-19.9c-0.1-0.3,0-0.6,0.3-0.7c0.3-0.1,0.6,0,0.7,0.3c5.2,11.4,3.7,17.7,1.5,20.9
		C325.4,171.4,322.3,172.5,320,172.5z"/>
</g>
<g>
	<path class="st31" d="M432,175.2c-0.3,0-0.5-0.2-0.5-0.4c-1-5.4,7.4-13,14.1-19.1l1.6-1.5c0.2-0.2,0.5-0.2,0.7,0
		c0.2,0.2,0.2,0.5,0,0.7l-1.6,1.5c-6.2,5.6-14.7,13.3-13.8,18.2C432.6,174.9,432.4,175.1,432,175.2
		C432.1,175.2,432.1,175.2,432,175.2z"/>
</g>
<g>
	<path class="st32" d="M413.3,353.9c-1.9,1.6-4.6,3.6-8.1,5.8c-7.3,4.6-19.6,10.6-36.8,13.4c-4.3,0.7-8.3,1-12.2,1
		c-21.1,0-36.9-8.8-42.5-12.3c0.1-0.4,0.2-0.7,0.3-1.1c6.1,4,27,15.8,54.3,11.4c17-2.7,29.1-8.7,36.4-13.2c3.4-2.2,6.1-4.2,8-5.8
		C412.9,353.4,413.1,353.6,413.3,353.9z"/>
</g>
<path class="st33" d="M292.9,425.6c-0.9-1.5-1.8-2.9-2.5-3.1c-0.2-0.1-0.2,0-0.3,0c-1.1,0.7-1.3,4.8-1.1,7.6c0,0,0,0,0,0
	c0,0.3-0.2,0.5-0.5,0.5c-0.3,0-0.5-0.2-0.5-0.5v0c-0.1-0.7-0.4-2.6-1.2-3.2c-0.3-0.2-0.5-0.2-0.8-0.2c-1.7,0.4-2.4,7.3-2.3,8.3
	c0.9,1.3,1.7,3.2,2.4,6.1c0.1,0.4,0.2,0.8,0.3,1.2c0.1,0.3-0.1,0.6-0.4,0.6c0,0,0,0-0.1,0h0c-0.2,0-0.4-0.2-0.5-0.4
	c-0.4-1.8-0.8-3.2-1.3-4.3c-0.4-1.1-0.9-2-1.3-2.6c0,0,0,0,0,0c-0.7-1-1.4-1.6-2.2-2.1c-0.3-0.2-0.6-0.2-0.9-0.2
	c-0.8,0.2-1.4,1.2-1.7,1.7c0,2.1-0.1,3.8-0.2,4.6c0.3,0.4,1,1.2,1.9,2.7c0.1,0.1,0.1,0.2,0.2,0.3c0.5,0.8,1,1.7,1.5,2.8
	c0.4,0.8,0.7,1.6,1.1,2.6c0.1,0.3,0,0.6-0.3,0.7c-0.1,0-0.1,0-0.2,0c-0.2,0-0.4-0.1-0.5-0.3c-0.1-0.4-0.3-0.8-0.5-1.2
	c-1.4-3.5-3.1-5.8-3.8-6.7c-0.2,0.1-0.3,0.2-0.5,0.2h0c-0.7,0-1.7-0.6-2.6-1.5c0-0.6,0-0.9,0-0.9s-1.2-1.3-2.2-3.3c0,0,0,0,0.1,0
	c0.3-0.1,0.5,0,0.7,0.3c0.9,2,2.8,4,3.9,4.4c0.2,0.1,0.3,0.1,0.3,0.1c0.4-1.1,0.2-10.6,0-16.3c0-0.3,0.2-0.5,0.5-0.5c0,0,0,0,0,0
	c0.3,0,0.5,0.2,0.5,0.5c0,0.9,0.2,5.7,0.2,9.9c0.4-0.4,0.8-0.8,1.4-0.9c0.6-0.2,1.2-0.1,1.7,0.3c0.6,0.3,1,0.7,1.5,1.2
	c0.1-1.7,0.5-4.2,1.1-5.7c0.5-1.4,1.2-2.1,2-2.3c0.6-0.1,1.2,0,1.6,0.3c0.2,0.2,0.4,0.3,0.6,0.6c0.1-2.1,0.5-4.4,1.7-5.1
	c0.3-0.2,0.7-0.2,1.2-0.1c0.5,0.2,1,0.6,1.5,1.2C292.5,423.6,292.8,424.6,292.9,425.6z"/>
<g>
	<path class="st31" d="M607.3,398.7c0,0-0.1,0-0.2,0c-11.5-4.4-18.4-12.7-18.5-12.8c-0.2-0.2-0.1-0.5,0.1-0.7
		c0.2-0.2,0.5-0.1,0.7,0.1c0.1,0.1,6.8,8.3,18.1,12.5c0.3,0.1,0.4,0.4,0.3,0.6C607.7,398.6,607.5,398.7,607.3,398.7z"/>
</g>
<g>
	<path class="st31" d="M636.4,401.6c-0.2,0-0.3-0.1-0.4-0.3c-7.6-14.3-21.1-20.2-21.2-20.3c-0.3-0.1-0.4-0.4-0.3-0.6
		c0.1-0.2,0.4-0.4,0.6-0.3c0.2,0.1,13.9,6.1,21.7,20.7c0.1,0.2,0,0.5-0.2,0.7C636.6,401.6,636.5,401.6,636.4,401.6z"/>
</g>
<g>
	<path class="st31" d="M553.3,419.3c-0.2,0-0.4-0.1-0.5-0.3c-3.7-10.9-2.8-19.6,2.7-26.7c0.2-0.2,0.5-0.2,0.7-0.1
		c0.2,0.2,0.3,0.5,0.1,0.7c-5.3,6.8-6.1,15.3-2.5,25.8c0.1,0.3,0,0.5-0.3,0.6C553.4,419.3,553.4,419.3,553.3,419.3z"/>
</g>
<g>
	<path class="st17" d="M664.8,542.1c0,8.1-8.3,14.4-15.1,19.2c-6.8,4.8-42.1,20.5-42.1,20.5s0.7,4.9-1.9,8.1
		c-2.5,3.2-7.8,6.8-10,6.4c-2.2-0.3-1.2-2.9-1.2-2.9s-2.9,2-4.3,1.4c-1.3-0.7,2.2-3.1,2.2-3.1s-3.9,0.5-5.1-0.5
		c-1.2-1,9.2-8.7,9.2-8.7s-0.9-1.5-2-1.5c-1,0,0.9-5.1,4.2-8.4c0.5-0.5,1.1-1,1.7-1.4c3.7-2.5,4.3-2.2,4.4-2.1c0,0,0,0,0,0
		s0.1-0.1,0.3-0.2c0,0,0,0,0,0c2.2-1.8,16.7-13.9,24.3-21c8.3-7.6,12-12.9,12-12.9s-2-6.4-3.6-13.9c-1.5-7.5-1-12.9-1-12.9
		s3.5-0.9,8.6-1.1c4.6-0.2,10.6,0.1,16.5,2C662.1,509.2,664.8,534,664.8,542.1z"/>
	<path class="st18" d="M604.9,569.2c-2.3,1.3-4.3,2.5-6.1,3.5c0.5-0.5,1.1-1,1.7-1.4C604.1,568.8,604.8,569.1,604.9,569.2z"/>
	<path class="st18" d="M645.5,542.2c0,0-24.6,17.3-40.3,26.8c2.2-1.8,16.7-13.9,24.3-21c8.3-7.6,12-12.9,12-12.9s-2-6.4-3.6-13.9
		c-1.5-7.5-1-12.9-1-12.9s3.5-0.9,8.6-1.1C645.7,529.4,645.5,542.2,645.5,542.2z"/>
</g>
<g>
	<path class="st13" d="M386,197.7c0,0-0.7,3.8-10.4,4.8c-4.2,0.5-9.3-0.9-13.2-2.6c-3.2-1.3-5.6-2.9-6.4-3.8
		c-1.7-2.1-4.1-5.5-2.2-9.5c1.9-4.1,6.1-2.9,7-2.4c0,0-0.3,2.8,0.4,4.1c0.4,0.8,1.2,1.7,3.6,3.2c1.4,0.9,3.4,1.9,6.3,3.3
		c5.6,2.6,10.7,0.2,13-1.2c0.8-0.5,1.2-2.4,1.2-2.4L386,197.7z"/>
	<path class="st14" d="M364.9,191.4c-1.1,2.5-2.1,5.6-2.4,8.5c-3.2-1.3-5.6-2.9-6.4-3.8c-1.7-2.1-4.1-5.5-2.2-9.5
		c1.9-4.1,6.1-2.9,7-2.4c0,0-0.3,2.8,0.4,4.1C361.7,189.1,362.5,190,364.9,191.4z"/>
</g>
<g>
	<path class="st1" d="M199.5,700.5v32.6h-51.3l37.7-29.7c3.2,0.7,8.1-0.8,11.1-1.9C198.5,701,199.5,700.5,199.5,700.5z"/>
</g>
<polygon class="st34" points="125.8,734.6 132.3,723.3 49.2,723.3 34.9,734.6 "/>
<g>
	<path class="st17" d="M481.6,320.5c0,0-9.4,7.1-30.3,13.2c-20.9,6.1-33.3,8.4-33.3,8.4l-1.3-7.5l-3.2-19.1l34.5-18.9
		c10,3.7,18.3,9.6,24.2,14.6C478.2,316.3,481.6,320.5,481.6,320.5z"/>
	<path class="st18" d="M481.6,320.5c0,0-9.4,7.1-30.3,13.2c-20.9,6.1-33.3,8.4-33.3,8.4l-1.3-7.5c14.2-4,36-11.6,55.5-23.4
		C478.2,316.3,481.6,320.5,481.6,320.5z"/>
</g>
<g>
	<path class="st26" d="M95.1,728.7c-0.7,0-1.5-0.2-2.1-0.7c-1.6-1.1-2-3.4-0.8-5l283-392.3c1.2-1.6,3.4-2,5-0.8c1.6,1.1,2,3.4,0.8,5
		L98,727.3C97.3,728.2,96.2,728.7,95.1,728.7z"/>
</g>
<g>
	<path class="st12" d="M417.6,343.3c-10.5,3.7-32.2,6.8-32.2,6.8s-14,9.8-16.7,8.1c-0.1-0.1-0.3-0.2-0.4-0.3
		c-1.5-1.3,0.1-2.8,0.9-3.5c-1.7,1.1-7.3,4.8-8.7,3.4c-1.6-1.6,3.1-5.3,3.7-5.7c-0.6,0.4-6.4,3.7-6.9,2.3c-0.4-1.3,2.6-5.3,3.1-6
		c-0.4,0.5-2.4,2.5-3,1.6c-0.7-1,1-7.1,5.4-13.2c4.4-6.1,5.1-5.1,10.2-9.2c5.1-4.1,12.5,0,12.5,0l27.8-12.2c0,0,2,3.7,4.1,13.9
		c0.3,1.5,0.5,2.9,0.6,4.1C419.1,340.6,417.6,343.3,417.6,343.3z"/>
	<path class="st8" d="M417.6,343.3c-10.5,3.7-32.2,6.8-32.2,6.8s-14,9.8-16.7,8.1c-0.1-0.1-0.3-0.2-0.4-0.3
		c7.9-4.6,15.3-12.1,15.3-12.1l4.3-0.8c8.6-1.6,24.6-8,30.3-11.5C419.1,340.6,417.6,343.3,417.6,343.3z"/>
</g>
<g>
	<path class="st17" d="M624.2,448.8c-0.8,1-1.8,2.1-2.8,3c0,0-0.1,0.1-0.1,0.1c-5,4.6-12.5,8.2-21.5,9.2c-2.7,0.3-5.5,0.4-8.4,0.2
		c-14.9-0.9-24.5-8.6-27-15.1c-2.5-6.4-3.9-17.6-7.4-28c-3.5-10.5,0.9-15.6,7.4-20.3c6.5-4.7,13.6-7.5,20-6.5
		c0,0,14.4,9.3,23.1,12.1c0.7,0.2,1.4,0.4,2,0.5c8.3,1.8,11,8,15.1,17.3C628.7,430.6,630,441.3,624.2,448.8z"/>
	<path class="st18" d="M624.2,448.8c-0.8,1-1.8,2.1-2.8,3c0,0-0.1,0.1-0.1,0.1c0.5-16.1-8.7-37.4-13.8-48.4c0.7,0.2,1.4,0.4,2,0.5
		c8.3,1.8,11,8,15.1,17.3C628.7,430.6,630,441.3,624.2,448.8z"/>
</g>
<path class="st35" d="M560.5,422.6c-0.3-1.7,1.3-5.3,6.5-6.2c5.1-0.9,7.8,0.3,7.8,2.2c0,1.9-3.7,0.6-7.2,1.2
	C564.1,420.5,560.5,422.6,560.5,422.6z"/>
<path class="st35" d="M607.3,413.2c0,0-5-4.2-9.7-3.2c-4.7,1-7.8,4.6-6.4,6.6c1.4,2,4.7-2.5,7.9-3.3
	C602.3,412.5,607.3,413.2,607.3,413.2z"/>
<g>
	<path class="st24" d="M583.9,446.6c-2.5,0-4.7-1-4.8-1c-0.2-0.1-0.3-0.3-0.2-0.4c4.2-14.3-2-20.8-2.1-20.8c-0.2-0.1-0.2-0.4,0-0.5
		c0.1-0.1,0.4-0.1,0.5,0c0.3,0.3,6.5,6.7,2.4,21.2c0.9,0.3,3.5,1.2,5.9,0.7c2.8-0.6,3.2-3.6,3.2-3.7c0-0.2,0.2-0.3,0.4-0.3
		c0.2,0,0.3,0.2,0.3,0.4c0,0-0.4,3.6-3.7,4.3C585,446.5,584.4,446.6,583.9,446.6z"/>
</g>
<g>
	<path class="st36" d="M592.4,452.8c-2.5,0-4.6-0.7-5.5-1c-0.3-0.1-0.4-0.1-0.5-0.2c-0.2,0-0.3-0.2-0.3-0.4c0-0.2,0.2-0.3,0.4-0.3
		c0.1,0,0.3,0.1,0.7,0.2c1.4,0.5,4.8,1.5,8.6,0.5c6.8-1.9,7.6-4.2,7.6-4.2c0.1-0.2,0.2-0.3,0.4-0.3c0.2,0.1,0.3,0.2,0.3,0.4
		c0,0.1-0.7,2.7-8.1,4.7C594.7,452.6,593.5,452.8,592.4,452.8z"/>
</g>
<path class="st37" d="M571.4,428.1c1,2.6,0.9,5.1-0.4,5.5c-1.2,0.5-3-1.2-4-3.8c-1-2.6-0.8-5.1,0.4-5.5
	C568.6,423.8,570.4,425.5,571.4,428.1z"/>
<path class="st37" d="M598.1,423.3c1,2.6,0.9,5.1-0.4,5.5c-1.2,0.5-3-1.2-4-3.8c-1-2.6-0.8-5.1,0.4-5.5
	C595.3,419,597.1,420.8,598.1,423.3z"/>
</svg>
