<?xml version="1.0" encoding="utf-8"?>
<!-- Generator: Adobe Illustrator 23.0.5, SVG Export Plug-In . SVG Version: 6.00 Build 0)  -->
<svg version="1.1" id="Layer_1" xmlns="http://www.w3.org/2000/svg" xmlns:xlink="http://www.w3.org/1999/xlink" x="0px" y="0px"
	 viewBox="0 0 515 522" style="enable-background:new 0 0 515 522;" xml:space="preserve">
<style type="text/css">
	.st0{fill:#F04264;}
	.st1{opacity:0.3;fill:#EF786F;}
	.st2{fill:#703A22;}
	.st3{fill:#602D19;}
	.st4{fill:#4138A5;}
	.st5{fill:#F5AE38;}
	.st6{fill:#E2982B;}
	.st7{fill:#FC643E;}
	.st8{fill:#EF4A29;}
	.st9{fill:#F27E7A;}
	.st10{fill:#F3B6AB;}
	.st11{fill:#F4948E;}
	.st12{fill:#7B1146;}
	.st13{fill:#A7E8A8;}
	.st14{fill:url(#SVGID_1_);}
	.st15{fill:#2F71BD;}
	.st16{fill:url(#SVGID_2_);}
	.st17{fill:url(#SVGID_3_);}
	.st18{fill:#8C4428;}
	.st19{fill:#874329;}
	.st20{fill:#912813;}
	.st21{fill:#C64732;}
	.st22{fill:#2D0701;}
</style>
<path class="st0" d="M381.8,185.3c0,0-7.6-2.6-18-2.1c-2.9,0.1-6.1,0.5-9.3,1.2l-0.3,0c-0.5-4-0.8-7.8-0.6-10.5c0,0,0.3-3.1,0.9-7.4
	c0.9-6.7,2.6-16.2,5.3-21.7c1,0.4,2,0.9,2.9,1.3C373.5,151.4,380.5,172.3,381.8,185.3z"/>
<path class="st0" d="M302.6,174.2l-3.1-7.7c0,0-11.2,2-12.3,2.4c0,0-0.9-5.4-3.3-10.9c-0.8-1.8-1.7-3.6-2.8-5.2
	c-4.4-6.4-6.3-8.8-6.3-8.8s8.2-2.5,19.1-4.7c0.8,2.8,2.4,9,4.2,16.3C299.6,161.6,301.2,168.3,302.6,174.2z"/>
<path class="st0" d="M344.6,173.5c0,0-18.8,4.2-33.9-5.3l-9.5-30.2c0.7-0.1,1.5-0.2,2.3-0.4c2.8-0.4,5.7-0.8,8.5-1.1
	c11.3-1.1,23.5,0.7,33.9,3.5c2.1,0.6,4,1.1,5.9,1.8C349,148.1,344.2,161,344.6,173.5z"/>
<path class="st1" d="M302.6,174.2l-3.1-7.7c0,0-11.2,2-12.3,2.4c0,0-0.9-5.4-3.3-10.9l14.3-2.4C299.6,161.6,301.2,168.3,302.6,174.2
	z"/>
<path class="st1" d="M345.8,140c-5.4,2.5-13.4,5.4-21.8,5.9c-12.5,0.7-18.5-5.3-20.6-8.3c2.8-0.4,5.7-0.8,8.5-1.1
	C323.3,135.4,335.5,137.2,345.8,140z"/>
<path class="st1" d="M363.8,183.2L363.8,183.2c-2.9,0.1-6.1,0.5-9.3,1.2l-0.3,0c-0.5-4-0.8-7.8-0.6-10.5c0,0,0.3-3.1,0.9-7.4
	C357.9,171.6,363.5,180.2,363.8,183.2z"/>
<path class="st2" d="M370.7,105.5c0,0.1,0,0.2-0.1,0.4v0c-0.9,4.1-4.1,10.4-14.9,17.8c-9.7,6.8-17,8.8-17,8.8s-18.8,3.7-31.8,0.9
	c-5.3-1.1-28,3.4-35.8-4.2c-6.8-6.7-10.4-18-11.6-29.7c-0.2-1.6-0.3-3.2-0.3-4.8c-0.6-13.4,1.1-22.8,0.4-30.4
	c-0.6-7.6,3.9-22.9,19.7-27.9c15.7-4.9,45.2-3.8,55.7,2.3c12.2,7.2,25.6,21.2,31.8,36.2C373,89.9,371.5,101.4,370.7,105.5z"/>
<path class="st3" d="M370.6,105.9L370.6,105.9c-0.9,4.1-4.1,10.4-14.9,17.8c-9.7,6.8-17,8.8-17,8.8s-18.8,3.7-31.8,0.9
	c-5.3-1.1-28,3.4-35.8-4.2c-6.8-6.7-10.4-18-11.6-29.7c14.7,1.5,18.6-16,27.5-28c10.5-14.1,49.6-14.6,72.9,12.9
	C366,91.7,369.2,99.1,370.6,105.9z"/>
<path class="st4" d="M98.5,396.4c-1.6,1.3-11.6,18.1-13.6,28.4c-2,10.3-1.7,13.6-1.7,13.6h35c0,0-5.7-35-12-43.3L98.5,396.4z"/>
<path class="st5" d="M234.6,421.3c0.4,12-14,26.3-48.6,31.1c-34.6,4.8-102.4,11.8-132.6,0c-30.2-11.8-55.3-51.6-35-80
	c4.8-6.6,11.1-12,18.4-16.3c24-14,59.2-16.4,87.7-13.5c37.2,3.7,81.7,33.5,91.4,40.5c10.2,7.4,16.3,20.9,18.2,32.1
	C234.3,417.4,234.5,419.4,234.6,421.3z"/>
<path class="st6" d="M234.6,421.3c0.4,12-14,26.3-48.6,31.1c-34.6,4.8-102.4,11.8-132.6,0c-30.2-11.8-55.3-51.6-35-80
	c4.8-6.6,11.1-12,18.4-16.3c0.1,15.6,5.5,37.6,29.2,52.5c31.2,19.6,47.3,25.8,92.6,24.7c31.2-0.8,60.4-11.5,75.5-18.1
	C234.3,417.4,234.5,419.4,234.6,421.3z"/>
<g>
	<path class="st7" d="M110.2,435c0,14.5-7,27.4-17.7,35.4c-7.4,5.5-16.6,8.8-26.5,8.8c-24.4,0-44.3-19.8-44.3-44.2
		c0-15.8,8.3-29.7,20.7-37.5c6.8-4.3,14.9-6.8,23.5-6.8C90.4,390.7,110.2,410.5,110.2,435z"/>
	<path class="st8" d="M92.5,470.4c-7.4,5.5-16.6,8.8-26.5,8.8c-24.4,0-44.3-19.8-44.3-44.2c0-15.8,8.3-29.7,20.7-37.5L92.5,470.4z"
		/>
</g>
<g>
	<path class="st9" d="M224.3,382.8c-0.6,0-1.2-0.1-1.8-0.4c-2.2-1-3.2-3.6-2.2-5.9c4.3-9.4,3.1-21-3.5-32.8
		c-6.3-11.2-16.7-21.5-28.5-28.2c-26.9-15.3-36.3-34.4-31.3-63.9c6.3-37.1,34.5-50.8,58.8-51.2c0.2,0,0.4,0,0.6,0
		c23.3,0,40.4,21.3,41.1,22.2c1.5,1.9,1.2,4.7-0.7,6.2c-1.9,1.5-4.7,1.2-6.2-0.7c-0.3-0.3-15.2-18.8-34.2-18.8c-0.2,0-0.3,0-0.5,0
		c-10.1,0.2-43.4,3.8-50.2,43.8c-4.4,25.9,3.1,41.3,26.9,54.7c26.3,14.9,47.5,46.9,35.7,72.4C227.6,381.9,226,382.8,224.3,382.8z"/>
</g>
<g>
	<path class="st10" d="M287.1,168.9l-2.6,0.9c0,0-3.1,13.8-9,24.3c-5.7,10.2-13.4,21-13.8,21.5c0,0,0,0,0,0s5,17.9,1.8,19.1
		c-0.6,0.3-1.2-0.1-1.8-0.7c-2.4-2.8-4.4-11.6-5.9-12.5c-1.8-1.1-5,1.1-4.6,4.4c0.4,3.3,6.1,7.7,5.2,8.9c-0.9,1.2-8.1-0.6-9.9-4.7
		c0.2,0.3,1.9,4.4,0,4.2c-2-0.2-9-11.1-9-11.1s-3.7-6.3,2-9.4c5.7-3.1,12.7-8.9,12.7-8.9s2.9-18,3.5-29.3c0.5-11.2,3.5-21.4,7-24.9
		c3.5-3.5,12.2-7,12.2-7s1.8,2.4,6.3,8.8c1.1,1.6,2,3.4,2.8,5.3C286.2,163.6,287.1,168.9,287.1,168.9z"/>
	<path class="st11" d="M261.7,215.7c0,0,5,17.9,1.8,19.1c-0.6,0.3-1.2-0.1-1.8-0.7L261.7,215.7z"/>
	<path class="st11" d="M287.1,168.9l-2.6,0.9c0,0-3.1,13.8-9,24.3c-5.7,10.2-13.4,21-13.8,21.5c0.3-0.8,8.5-25.3,13.1-42.1
		c3.2-11.7,6.4-14.3,9.1-15.5C286.2,163.6,287.1,168.9,287.1,168.9z"/>
</g>
<g>
	<path class="st10" d="M333,143.2c-1.5,0.9-3.8,1.4-6.2,1.5c-4.7,0.3-9.9-0.5-11.3-1.5c-2-1.5-4.2-5.7-5.9-10.7
		c2.7-0.4,5.3-0.9,7.7-1.6c6.7-2,12.3-5.3,16.3-9.1C334.7,128.1,336.4,141.2,333,143.2z"/>
	<path class="st11" d="M333,143.2c-1.5,0.9-3.8,1.4-6.2,1.5l-9.5-13.9c6.7-2,12.3-5.3,16.3-9.1C334.7,128.1,336.4,141.2,333,143.2z"
		/>
</g>
<path class="st12" d="M329.7,416.2c-1.1,0.1-24.4,18.7-24.4,18.7s11.2,0.3,20.6-0.8c9.4-1.1,15.9-4.4,15.9-4.4l-7.3-17.8
	L329.7,416.2z"/>
<path class="st12" d="M427.2,420.7c-0.8,1.4-8.3,18.8-8.3,18.8s3.3,2.3,10.6,1.8c7.3-0.5,11.6-3,11.6-3l-7.6-19.6L427.2,420.7z"/>
<path class="st13" d="M433.4,419.5c-2,1.7-5.7,1.8-5.7,1.8s-21-29.8-33.1-52.3c-11.3-21-42.9-86.9-47.1-95.7c-0.3-0.6-0.5-1-0.5-1
	l-0.3,0.5v0L321,324.6c4.1,3.1,14.9,18.2,16.6,38.5c1.7,20.3-2.8,47.9-3.1,48.8c-0.4,0.9-4.6,4.8-4.6,4.8s-10.5-28.5-15.8-45.9
	c-5.4-17.3-18.2-49.4-18.2-49.4s0.2-13.1,4.9-31.3c4.7-18.2,16.5-63.5,16.5-63.5s-0.1-0.3-0.3-0.9c-0.1-0.2-0.2-0.5-0.3-0.9
	c-2.1-6.3-9.2-27.6-11.5-39.5c-0.5-2.4-1.1-5.4-1.8-8.6c-0.1-0.3-0.1-0.7-0.2-1h0c-0.1-0.5-0.2-1-0.3-1.5c-3-13.2-7.2-29.8-8.7-34.9
	c2.3-0.5,4.8-0.9,7.3-1.4l9.5,30.2c0,0,0.1,0,0.1,0.1c0.2,0.2,0.5,0.3,0.7,0.4c12.4,7.4,26.9,5.8,31.5,5.1c0.4-0.1,0.7-0.1,0.9-0.2
	c0.4-0.1,0.6-0.1,0.6-0.1c-0.4-12.5,4.4-25.5,7.2-31.8c3,1,5.7,2,8,3c-4.4,9-6.2,29.1-6.2,29.1c-0.1,0.7-0.1,1.5-0.1,2.3
	c0,0.3,0,0.7,0,1c0.1,2.2,0.3,4.6,0.6,7.1c1.1,8.3,3.1,17.2,3.1,17.2s19.6,17.7,23.7,21.7c0.4,0.4,0.6,0.6,0.7,0.7c0,0,0,0.1,0,0.1
	c-0.4,0,1.7,5.1,3.7,21c2,15.8,7,73.9,6.4,73.9c-0.5,0,22.3,12.7,28.6,32.1C426.8,370.3,435.4,417.8,433.4,419.5z"/>
<g>
	<path class="st4" d="M311.5,168.7l-2.6,10.2c0,0.1-0.1,0.2-0.2,0.3c-0.1,0-0.1,0-0.2,0c-0.1,0-0.1,0-0.2,0c-2-1-4.2-2-5.3-2.5
		c-0.1-0.3-0.1-0.7-0.2-1c0.9,0.4,3.7,1.7,5.4,2.5l2.5-9.9C311,168.4,311.3,168.6,311.5,168.7z"/>
</g>
<g>
	<path class="st4" d="M353.6,177.3c-2.3,1.8-4.4,3.5-4.6,3.7c-0.1,0.1-0.2,0.2-0.4,0.2c-0.2,0-0.7,0-5.5-7.3
		c0.4-0.1,0.7-0.1,0.9-0.2c2,2.9,4,5.8,4.6,6.5c0.8-0.7,2.9-2.4,4.9-4C353.5,176.6,353.5,176.9,353.6,177.3z"/>
</g>
<g>
	<path class="st4" d="M352.9,206.2l-5.8-19.9c-0.1-0.2-0.2-0.3-0.4-0.3c-13.9-0.4-32.4-3.3-32.6-3.3c-0.1,0-0.3,0-0.4,0.1
		c-0.1,0.1-0.1,0.2-0.1,0.4l6,21.1c0,0.1,0.1,0.2,0.3,0.3c6.2,2.2,31.5,2.2,32.6,2.2h0c0.2,0,0.4-0.2,0.4-0.4
		C352.9,206.3,352.9,206.3,352.9,206.2z M320.4,203.9l-5.7-20.3c3.4,0.5,19.3,2.8,31.7,3.2l5.5,19.2
		C348.2,206,326.3,205.8,320.4,203.9z"/>
</g>
<g>
	<path class="st4" d="M381.8,224c-11.5,1.9-25.8,2.4-38.3,2.4c-11.8,0-21.9-0.5-26.6-0.7c-0.1-0.2-0.2-0.5-0.3-0.9
		c9.1,0.5,42,2,64.5-1.6C381.4,223.6,381.7,223.8,381.8,224z"/>
</g>
<g>
	<path class="st4" d="M347.3,273.3c-0.1,0-0.3-0.1-0.4-0.2c-0.2-0.4-2.4-3.6-3.8-5.6c-0.1-0.2-0.1-0.4,0.1-0.6
		c0.2-0.1,0.4-0.1,0.6,0.1c0.4,0.5,3.6,5.1,3.9,5.7c0.1,0.2,0,0.5-0.2,0.5C347.4,273.3,347.3,273.3,347.3,273.3z"/>
</g>
<g>
	<path class="st0" d="M457.5,433.4c-0.8,0-1.7-0.3-2.3-1L251.6,227.7c-1.3-1.3-1.3-3.4,0-4.7c1.3-1.3,3.4-1.3,4.7,0l203.5,204.7
		c1.3,1.3,1.3,3.4,0,4.7C459.2,433,458.4,433.4,457.5,433.4z"/>
</g>
<linearGradient id="SVGID_1_" gradientUnits="userSpaceOnUse" x1="213.7505" y1="383.5551" x2="234.6188" y2="383.5551">
	<stop  offset="5.058590e-03" style="stop-color:#F78A7D"/>
	<stop  offset="1" style="stop-color:#F27682"/>
</linearGradient>
<path class="st14" d="M213.8,381.7c0,0,2.5-9.5,4.7-9.8c2.2-0.3,15.4,12.4,16.1,17.4l-8.1,5.8C226.5,395.2,218.9,385.2,213.8,381.7z
	"/>
<path class="st15" d="M427.1,443.2c0.3,0.8,0,3.9,0,3.9l74.9-1.9c0,0-27.9-0.8-43.1-18.8l-5.2,2.5c0,0,0,8.3-6.1,10.8
	C441.5,442.1,427.1,443.2,427.1,443.2z"/>
<linearGradient id="SVGID_2_" gradientUnits="userSpaceOnUse" x1="427.1157" y1="448.7749" x2="502" y2="448.7749">
	<stop  offset="1.953000e-05" style="stop-color:#F6413C"/>
	<stop  offset="0.995" style="stop-color:#F53347"/>
</linearGradient>
<polygon class="st16" points="427.1,447.1 427.1,452.4 502,450.3 502,445.2 "/>
<linearGradient id="SVGID_3_" gradientUnits="userSpaceOnUse" x1="45.7495" y1="434.9865" x2="86.1544" y2="434.9865">
	<stop  offset="1.005860e-02" style="stop-color:#BBDDFD"/>
	<stop  offset="1" style="stop-color:#A0DDFD"/>
</linearGradient>
<path class="st17" d="M45.7,435c0-11.2,9-20.2,20.2-20.2c11.1,0,20.2,9,20.2,20.2s-9.1,20.2-20.2,20.2
	C54.8,455.2,45.7,446.1,45.7,435z"/>
<g>
	<path class="st18" d="M322.3,65.3c-0.1,0-0.1,0-0.2,0c-12.5-4.8-20-13.8-20.1-13.9c-0.2-0.2-0.1-0.6,0.1-0.7
		c0.2-0.2,0.6-0.2,0.8,0.1c0.1,0.1,7.4,9,19.6,13.6c0.3,0.1,0.4,0.4,0.3,0.7C322.8,65.2,322.6,65.3,322.3,65.3z"/>
</g>
<g>
	<path class="st18" d="M354,68.5c-0.2,0-0.4-0.1-0.5-0.3c-8.3-15.6-22.9-22-23-22c-0.3-0.1-0.4-0.4-0.3-0.7c0.1-0.3,0.4-0.4,0.7-0.3
		c0.2,0.1,15.1,6.6,23.6,22.5c0.1,0.3,0.1,0.6-0.2,0.7C354.1,68.5,354,68.5,354,68.5z"/>
</g>
<g>
	<path class="st18" d="M263.7,87.7c-0.2,0-0.4-0.1-0.5-0.4c-4-11.8-3.1-21.3,2.9-29c0.2-0.2,0.5-0.3,0.7-0.1
		c0.2,0.2,0.3,0.5,0.1,0.7c-5.8,7.4-6.7,16.6-2.8,28c0.1,0.3-0.1,0.6-0.3,0.7C263.8,87.7,263.8,87.7,263.7,87.7z"/>
</g>
<g>
	<path class="st10" d="M384.8,221.1c0,8.8-9,15.7-16.4,20.8c-7.4,5.2-45.7,22.3-45.7,22.3s0.7,5.3-2,8.8c-2.8,3.5-8.5,7.4-10.9,7
		c-2.4-0.4-1.3-3.1-1.3-3.1s-3.1,2.2-4.6,1.5c-1.5-0.7,2.4-3.3,2.4-3.3s-4.2,0.6-5.5-0.5c-1.3-1.1,9.9-9.4,9.9-9.4s-0.9-1.7-2.2-1.7
		c-1.1,0,1-5.6,4.6-9.1c0.6-0.6,1.2-1.1,1.8-1.5c4-2.7,4.7-2.4,4.8-2.3c0,0,0,0,0,0s0.1-0.1,0.3-0.2c0,0,0,0,0,0
		c2.4-2,18.1-15.1,26.4-22.8c9-8.3,13.1-14,13.1-14s-2.2-7-3.9-15.1c-1.7-8.1-1.1-14-1.1-14s3.8-1,9.3-1.2c5-0.2,11.5,0.1,17.9,2.2
		C381.8,185.3,384.8,212.2,384.8,221.1z"/>
	<path class="st11" d="M319.7,250.5c-2.5,1.5-4.7,2.8-6.6,3.8c0.6-0.6,1.2-1.1,1.8-1.5C318.9,250.1,319.6,250.4,319.7,250.5z"/>
	<path class="st11" d="M363.8,221.2c0,0-26.7,18.7-43.8,29.1c2.4-2,18.1-15.1,26.4-22.8c9-8.3,13.1-14,13.1-14s-2.2-7-3.9-15.1
		c-1.7-8.1-1.1-14-1.1-14s3.8-1,9.3-1.2C364.1,207.3,363.8,221.2,363.8,221.2z"/>
</g>
<g>
	<path class="st10" d="M340.7,119.7c-0.9,1.1-1.9,2.2-3,3.3c0,0-0.1,0.1-0.1,0.1c-5.4,5-13.5,8.9-23.3,10c-2.9,0.3-6,0.4-9.1,0.2
		c-16.2-1-26.6-9.4-29.3-16.4c-2.7-7-4.2-19.1-8-30.4c-3.8-11.4,1-16.9,8-22c7-5.1,14.8-8.2,21.7-7.1c0,0,15.7,10.1,25.1,13.2
		c0.8,0.3,1.5,0.4,2.1,0.6c9,1.9,11.9,8.7,16.4,18.7C345.6,100,347,111.6,340.7,119.7z"/>
	<path class="st11" d="M340.7,119.7c-0.9,1.1-1.9,2.2-3,3.3c0,0-0.1,0.1-0.1,0.1c0.5-17.5-9.4-40.6-15-52.5c0.8,0.3,1.5,0.4,2.1,0.6
		c9,1.9,11.9,8.7,16.4,18.7C345.6,100,347,111.6,340.7,119.7z"/>
</g>
<path class="st19" d="M271.5,91.3c-0.3-1.9,1.4-5.8,7-6.8c5.6-1,8.4,0.3,8.4,2.4c0,2.1-4.1,0.7-7.8,1.3
	C275.4,88.9,271.5,91.3,271.5,91.3z"/>
<path class="st19" d="M322.3,81.1c0,0-5.4-4.5-10.6-3.4c-5.2,1.1-8.5,5-7,7.2c1.5,2.2,5.1-2.7,8.6-3.6
	C316.9,80.3,322.3,81.1,322.3,81.1z"/>
<g>
	<path class="st20" d="M296.9,117.4c-2.7,0-5.1-1-5.2-1.1c-0.2-0.1-0.3-0.3-0.2-0.5c4.6-15.5-2.2-22.6-2.2-22.6
		c-0.2-0.2-0.2-0.4,0-0.6c0.2-0.2,0.4-0.2,0.6,0c0.3,0.3,7.1,7.3,2.6,23.1c0.9,0.4,3.8,1.3,6.4,0.7c3-0.7,3.4-3.9,3.4-4
		c0-0.2,0.2-0.4,0.4-0.3c0.2,0,0.4,0.2,0.4,0.4c0,0-0.5,3.9-4.1,4.7C298.2,117.3,297.5,117.4,296.9,117.4z"/>
</g>
<g>
	<path class="st21" d="M306.1,124.1c-2.7,0-4.9-0.7-6-1c-0.3-0.1-0.5-0.2-0.6-0.2c-0.2,0-0.4-0.2-0.4-0.4c0-0.2,0.2-0.4,0.4-0.4
		c0.1,0,0.3,0.1,0.8,0.2c1.6,0.5,5.2,1.7,9.3,0.5c7.4-2.1,8.2-4.5,8.2-4.6c0.1-0.2,0.3-0.3,0.5-0.3c0.2,0.1,0.3,0.3,0.3,0.5
		c0,0.1-0.8,2.9-8.8,5.1C308.6,123.9,307.3,124.1,306.1,124.1z"/>
</g>
<path class="st22" d="M283.3,97.3c1.1,2.8,0.9,5.5-0.4,6c-1.3,0.5-3.3-1.4-4.4-4.2c-1.1-2.8-0.9-5.5,0.4-6
	C280.3,92.6,282.3,94.4,283.3,97.3z"/>
<path class="st22" d="M312.4,92.1c1.1,2.8,0.9,5.5-0.4,6c-1.3,0.5-3.3-1.4-4.4-4.2c-1.1-2.8-0.9-5.5,0.4-6
	C309.3,87.4,311.3,89.3,312.4,92.1z"/>
</svg>
