<?xml version="1.0" encoding="utf-8"?>
<!-- Generator: Adobe Illustrator 23.0.5, SVG Export Plug-In . SVG Version: 6.00 Build 0)  -->
<svg version="1.1" id="Layer_1" xmlns="http://www.w3.org/2000/svg" xmlns:xlink="http://www.w3.org/1999/xlink" x="0px" y="0px"
	 viewBox="0 0 408 386" style="enable-background:new 0 0 408 386;" xml:space="preserve">
<style type="text/css">
	.st0{fill:#F22D5C;}
	.st1{fill:#9566DA;}
	.st2{fill:#2E175A;}
	.st3{fill:#D0D0FF;}
	.st4{fill:#FFFFFF;}
	.st5{fill:#4A3797;}
	.st6{fill:#FFBFC6;}
</style>
<g>
	<g>
		<path class="st0" d="M239.7,187.3h25.9c4.8,0,9,3,10.6,7.5l14.1,40.1h-28.1l-9.5-34.5h-17.2L239.7,187.3z"/>
		<rect x="122.2" y="193.5" class="st1" width="28" height="23.4"/>
		
			<rect x="150.3" y="193.5" transform="matrix(-1 -1.224647e-16 1.224647e-16 -1 416.5088 410.4041)" class="st1" width="116" height="23.4"/>
		<path class="st1" d="M122.2,380c-0.3,0-0.5-0.2-0.5-0.5v-186c0-0.3,0.2-0.5,0.5-0.5h110.7c0.3,0,0.5,0.2,0.5,0.5
			c0,0.3-0.2,0.5-0.5,0.5H122.7v185.5C122.7,379.8,122.5,380,122.2,380z"/>
		<path class="st1" d="M150.3,380c-0.3,0-0.5-0.2-0.5-0.5V216.9c0-0.3,0.2-0.5,0.5-0.5s0.5,0.2,0.5,0.5v162.6
			C150.7,379.8,150.5,380,150.3,380z"/>
		<path class="st1" d="M266.2,380c-0.3,0-0.5-0.2-0.5-0.5V236.8c0-0.3,0.2-0.5,0.5-0.5c0.3,0,0.5,0.2,0.5,0.5v142.8
			C266.7,379.8,266.5,380,266.2,380z"/>
		<g>
			<path class="st1" d="M146.8,160.2c-0.2,0-0.4-0.1-0.5-0.4c-1-3.9-4-6.8-7.9-7.6c-0.3-0.1-0.4-0.3-0.4-0.6
				c0.1-0.3,0.3-0.4,0.6-0.4c4.3,0.9,7.6,4.1,8.6,8.3c0.1,0.3-0.1,0.5-0.3,0.6C146.8,160.2,146.8,160.2,146.8,160.2z"/>
			<polygon class="st2" points="165.6,193.5 130.1,193.5 126.1,187.8 169.6,187.8 			"/>
			<polygon class="st2" points="165.6,187.8 130.1,187.8 126.1,182 169.6,182 			"/>
			<polygon class="st2" points="165.6,182 130.1,182 126.1,176.3 169.6,176.3 			"/>
			<path class="st0" d="M155,168c0,4.6-3.7,8.3-8.3,8.3c-4.6,0-8.3-3.7-8.3-8.3c0-4.6,3.7-8.3,8.3-8.3
				C151.3,159.7,155,163.4,155,168z"/>
			<path class="st3" d="M146.8,159.7c-0.4-2.2,0.2-4.5,1.6-6.3c1.4-1.8,3.5-2.8,5.8-2.9C153.8,154.9,150.9,158.5,146.8,159.7z"/>
		</g>
		<path class="st4" d="M277.8,217.4c-0.2,0-0.4-0.1-0.5-0.3l-5.2-16.4c-0.1-0.3,0.1-0.5,0.3-0.6c0.2-0.1,0.5,0.1,0.6,0.3l5.2,16.4
			c0.1,0.3-0.1,0.5-0.3,0.6C277.9,217.3,277.9,217.4,277.8,217.4z"/>
		<path class="st4" d="M266.2,233.9c-0.3,0-0.5-0.2-0.5-0.5V194h-30.2c-0.3,0-0.5-0.2-0.5-0.5c0-0.3,0.2-0.5,0.5-0.5h30.6
			c0.3,0,0.5,0.2,0.5,0.5v39.9C266.7,233.7,266.5,233.9,266.2,233.9z"/>
	</g>
	<g>
		<path class="st2" d="M259.1,126.1c0.6-8.3-5.3-29.1-8.9-40.8c-1.6-5.2-5.4-9.5-10.5-11.6l-17-7.3c-0.7-2.4-2.5-4.3-4.8-5.2
			l-9.6-3.9c-1.7-0.7-3.5-0.9-5.3-0.5L190,59.2c-2.1,0.4-3.9,1.9-4.5,4L175,65.4c-6,1.2-11.1,5-14.1,10.4l-14.6,25.9
			c-2,3.5-3,7.4-3,11.3c0,2.7,0.5,5.4,1.5,8.1l23.9-9.3l4.5,36.9l-4.5,11.1l65.7,11.7c1.7,0.3,3.2,0.1,4.5-0.5
			c4.4-1.9,6.4-7.9,2.8-12.2l-5.1-6v-26.6H259.1z"/>
		<path class="st3" d="M224.6,290.4l15.1,37.1l-23,12.3l-3.2,1.7l-25.4-61.4v0l-1.7-4.1C148,184,168.6,159.7,168.6,159.7l65.7,11.7
			c1.7,0.3,3.2,0.1,4.5-0.5l3.6,8.9L224.6,290.4z"/>
		<path class="st2" d="M226,35.8c10.3-0.7,7.9-11.1,3-17.2c-4.9-6.1-24.1-13.4-27.8,0c0,0-5.2-2.2-8.5,5.6
			c-5.1,12,8.1,24.9,6.6,29.4L226,35.8z"/>
		<path class="st5" d="M205.1,164.9C205.1,164.9,205,164.9,205.1,164.9c-0.3,0-0.5-0.2-0.5-0.5c0.6-13,6.5-25.4,16.1-34
			c9.7-8.7,22.6-13.2,35.6-12.3c0.3,0,0.5,0.2,0.4,0.5c0,0.3-0.2,0.5-0.5,0.4c-12.7-0.8-25.4,3.6-34.9,12.1
			c-9.5,8.5-15.2,20.7-15.8,33.4C205.5,164.7,205.3,164.9,205.1,164.9z"/>
		<path class="st6" d="M220.2,100.5l0.8-0.9c0.9-1,2.1-1.6,3.4-1.6h1.8c2.5,0,4.5,2,4.5,4.5v2.8c0,1.6-0.4,3.2-1.3,4.6l-6.5,10.9
			c-0.7,1.1-1.8,1.9-3.1,2.1c-1.3,0.2-2.6-0.2-3.6-1l-13.7-11.8L220.2,100.5z"/>
		<path class="st6" d="M260.6,137.2c-1.9,3.4-5.4,5.2-8.9,5.2c-2.4,0-5-0.9-6.9-2.7l-16.1-14l-3.2-2.8l-2.5-2.2l6.5-10.8l2.9,1.4
			l3.8,1.8l20.1,9.8C261.4,125.5,263.5,132,260.6,137.2z"/>
		<path class="st0" d="M234.4,120.9c-1.4,2.3-3.4,4-5.9,4.8l-3.2-2.8c2.2-0.9,4-2.5,5.2-4.6c1.3-2.1,1.9-4.6,1.7-7.1l3.8,1.8
			C236.4,115.8,235.9,118.6,234.4,120.9z"/>
		<polygon class="st1" points="217.3,112.6 198.9,112.6 190.8,100.6 225.4,100.6 		"/>
		<path class="st3" d="M193.9,100.6c0.6-1.7,1.9-3,3.6-3.6c1.7-0.6,3.5-0.5,5.1,0.4c0.7-1.6,2.2-2.7,3.9-2.9
			c1.7-0.2,3.4,0.6,4.4,2.1c1.7-1.6,4.3-2.1,6.5-1.3c2.2,0.8,3.8,2.9,4,5.3H193.9z"/>
		<path class="st5" d="M242,97c-4.7,0-9.3-1.9-12.8-5.4c-5.5-5.7-6.5-14.4-2.5-21.2c0.1-0.2,0.4-0.3,0.7-0.2
			c0.2,0.1,0.3,0.4,0.2,0.7c-3.8,6.4-2.8,14.7,2.4,20.1c5.2,5.4,13.4,6.7,20,3.1c0.2-0.1,0.5,0,0.6,0.2c0.1,0.2,0,0.5-0.2,0.6
			C247.8,96.4,244.9,97,242,97z"/>
		<path class="st5" d="M196.2,163.8c-0.1,0-0.1,0-0.2,0c-0.2-0.1-0.4-0.4-0.2-0.6c9.5-21.5-0.1-47.1-21.4-57
			c-0.2-0.1-0.3-0.4-0.2-0.6c0.1-0.2,0.4-0.3,0.6-0.2c21.8,10.1,31.7,36.2,21.9,58.2C196.6,163.7,196.4,163.8,196.2,163.8z"/>
		<path class="st1" d="M232.9,153.4C232.9,153.4,232.8,153.4,232.9,153.4l-12.5-2.3c-0.3-0.1-0.4-0.3-0.4-0.6
			c0.1-0.3,0.3-0.4,0.6-0.4l12.4,2.3c0.3,0.1,0.4,0.3,0.4,0.6C233.3,153.2,233.1,153.4,232.9,153.4z"/>
		<path class="st1" d="M204.5,85.3c-0.3,0-0.6,0-0.9,0c-4.2-0.2-8.3-1.9-11.4-4.7c-3.1-2.8-5.2-6.6-5.9-10.8
			c-0.1-0.4-0.1-0.8-0.2-1.2c0-0.3,0.2-0.5,0.4-0.5c0.3,0,0.5,0.2,0.5,0.4c0,0.4,0.1,0.8,0.1,1.1c0.6,3.9,2.6,7.6,5.6,10.2
			c3,2.7,6.8,4.2,10.8,4.4c4,0.2,8-1,11.2-3.3c3.2-2.4,5.6-5.8,6.6-9.6c0.2-0.8,0.4-1.7,0.5-2.6c0-0.3,0.3-0.5,0.5-0.4
			c0.3,0,0.5,0.3,0.4,0.5c-0.1,0.9-0.3,1.9-0.5,2.8c-1.1,4.1-3.6,7.7-7,10.2C212.2,84.1,208.4,85.3,204.5,85.3z"/>
		<path class="st4" d="M210.2,80.5c-3.7,1.6-8.1,1.5-11.7-0.2c-6.4-3-9.5-9.4-8.6-15.5c0.2-1.5,1.4-2.8,2.9-3.1l12.6-2.7l11.6,5
			c1.4,0.6,2.3,2,2.3,3.6C219,72.9,215.8,78.1,210.2,80.5z"/>
		<path class="st1" d="M224.6,290.9c-0.2,0-0.4-0.1-0.4-0.3l-19.6-48c0-0.1,0-0.1,0-0.2v-65.9c0-0.3,0.2-0.5,0.5-0.5
			c0.3,0,0.5,0.2,0.5,0.5v65.8l19.5,47.9c0.1,0.2,0,0.5-0.3,0.6C224.7,290.9,224.7,290.9,224.6,290.9z"/>
		<polygon class="st3" points="216.7,339.9 215,350.2 192.3,350.2 188.2,280.2 213.5,341.5 		"/>
		<path class="st1" d="M238.3,186.5c-0.2,0-0.3-0.1-0.4-0.3l-5.4-11.1c-0.1-0.2,0-0.5,0.2-0.6c0.2-0.1,0.5,0,0.6,0.2l5.4,11.1
			c0.1,0.2,0,0.5-0.2,0.6C238.4,186.4,238.4,186.5,238.3,186.5z"/>
		<path class="st1" d="M201.2,182.7c-0.2,0-0.3-0.1-0.4-0.2l-5.8-9.2c-0.1-0.2-0.1-0.5,0.1-0.7c0.2-0.1,0.5-0.1,0.7,0.1l5.8,9.2
			c0.1,0.2,0.1,0.5-0.1,0.7C201.4,182.7,201.3,182.7,201.2,182.7z"/>
		<path class="st1" d="M202.5,191.3c-0.1,0-0.2,0-0.3-0.1L187.8,178c-0.2-0.2-0.2-0.5,0-0.7c0.2-0.2,0.5-0.2,0.7,0l14.3,13.2
			c0.2,0.2,0.2,0.5,0,0.7C202.7,191.3,202.6,191.3,202.5,191.3z"/>
		<path class="st1" d="M168.8,184.7c-0.1,0-0.2,0-0.3-0.1c-0.2-0.2-0.2-0.5,0-0.7l11.1-11.2c0.2-0.2,0.5-0.2,0.7,0
			c0.2,0.2,0.2,0.5,0,0.7l-11.1,11.2C169,184.7,168.9,184.7,168.8,184.7z"/>
		<path class="st1" d="M202.5,242.1c0,0-0.1,0-0.2,0l-9.1-3.1c-0.2-0.1-0.4-0.4-0.3-0.6c0.1-0.2,0.3-0.4,0.6-0.3l9.1,3.1
			c0.2,0.1,0.4,0.4,0.3,0.6C202.8,242,202.7,242.1,202.5,242.1z"/>
		<path class="st6" d="M192.3,350.2v5.5c0,0-6.1,11.6-6.1,23.8h27.7v-2.1c0-2.1-1.5-3.8-3.6-4.1l-1.7-23.1H192.3z"/>
		<path class="st0" d="M207.3,373.5H199c-0.3,0-0.5-0.2-0.5-0.5c0-0.3,0.2-0.5,0.5-0.5h8.3c0.3,0,0.5,0.2,0.5,0.5
			C207.8,373.3,207.5,373.5,207.3,373.5z"/>
		<path class="st6" d="M239.7,327.5c2.6,5.1,6.1,8.6,9.2,11c3.2,2.4,4.4,6.7,2.4,10.2c-1.8,3.1-3.3,7.3-3.3,12.5
			c0,12.2-4.3,18.3-4.3,18.3h-16.3c0,0,0.8-6.5,8.9-6.5c0,0-2.5-23.9-11.7-37.5L239.7,327.5z"/>
		<path class="st6" d="M226,35.8c-0.8,1.1-1.4,2.1-1.8,3.3c-0.5,1.4-0.8,2.8-0.9,4.2c-0.8,6.8,0.5,13.8-8.6,14.9l-0.9,6.1l-0.3,2.1
			c0,0-3,6.8-11,5.2c-8-1.6-8-10.3-8-10.3s5.4-10,6.1-19.3c0,0-8.3-5.4-3-10.1c2.7-2.4,5.9,1.2,5.9,1.2s-1.2-6.5,6.8-5.9
			C218.3,27.8,217.6,36.3,226,35.8z"/>
		<path class="st0" d="M201.2,35.8c-0.1,0-0.3-0.1-0.4-0.2l-1.9-2.3c-0.2-0.2-0.1-0.5,0.1-0.7c0.2-0.2,0.5-0.1,0.7,0.1l1.9,2.3
			c0.2,0.2,0.1,0.5-0.1,0.7C201.4,35.8,201.3,35.8,201.2,35.8z"/>
		<path class="st4" d="M209,47.6c2.7,2.1,6.1,3.2,9.5,3c-1.3,1.9-3.7,2.7-5.8,2C210.5,52,209,49.9,209,47.6z"/>
		<path class="st2" d="M214.7,58.2l-0.9,6.1c-5.1-2.9-6-9.2-6-9.2S210.7,58.6,214.7,58.2z"/>
		<path class="st2" d="M216.6,47.3c-0.3,0-0.6-0.1-0.9-0.2c-1.6-0.7-2.7-1.4-3.5-2c-0.2-0.2-0.2-0.5-0.1-0.7c0.2-0.2,0.5-0.2,0.7,0
			c0.6,0.6,1.8,1.2,3.2,1.8c0.4,0.2,0.8,0.1,1.2-0.1c0.3-0.2,0.5-0.6,0.5-1l-0.1-1c-0.2-2.2-0.3-4.4,0.4-5.8
			c0.1-0.2,0.4-0.3,0.6-0.2c0.2,0.1,0.3,0.4,0.2,0.6c-0.6,1.1-0.5,3.3-0.3,5.3l0.1,1c0,0.8-0.3,1.5-0.9,1.9
			C217.5,47.2,217.1,47.3,216.6,47.3z"/>
		<path class="st4" d="M215.6,38.6c-1.5,1.2-3.4,1.5-5.2,0.8c-0.3-0.1-0.6-0.3-0.9-0.4c-1.3-0.8-2.3-2.1-2.5-3.6
			c1.4-0.7,2.9-0.8,4.4-0.4c0.2,0,0.4,0.1,0.6,0.2C213.6,35.7,214.9,36.9,215.6,38.6z"/>
		<path class="st2" d="M215.6,38.6c-1.5,1.2-3.4,1.5-5.2,0.8c-0.3-0.1-0.6-0.3-0.9-0.4c-0.1-0.3-0.1-0.6-0.1-0.9
			c0-1.4,0.8-2.6,2-3.1c0.2,0,0.4,0.1,0.6,0.2C213.6,35.7,214.9,36.9,215.6,38.6z"/>
		<path class="st4" d="M224.2,39.1c-0.5,1.4-0.8,2.8-0.9,4.2c0,0,0,0-0.1,0c-0.3-0.2-0.6-0.4-0.9-0.6c-0.9-0.8-1.5-1.8-1.7-3
			c0.9-0.5,1.8-0.7,2.9-0.6C223.8,39.1,224,39.1,224.2,39.1z"/>
		<path class="st2" d="M216.2,36.5c-0.2,0-0.3-0.1-0.4-0.2c-1.6-2.4-4.1-4.1-6.9-4.6c-0.3,0-0.4-0.3-0.4-0.6c0-0.3,0.3-0.4,0.6-0.4
			c3.1,0.6,5.8,2.4,7.5,5c0.1,0.2,0.1,0.5-0.1,0.7C216.4,36.5,216.3,36.5,216.2,36.5z"/>
		<path class="st2" d="M225,37.8C225,37.8,224.9,37.8,225,37.8c-1.4-0.2-2.8-0.2-4.1,0c-0.3,0-0.5-0.2-0.5-0.4
			c0-0.3,0.2-0.5,0.4-0.5c1.4-0.2,2.9-0.2,4.3,0c0.3,0,0.4,0.3,0.4,0.5C225.4,37.6,225.2,37.8,225,37.8z"/>
		<path class="st2" d="M224.2,39.1c-0.5,1.4-0.8,2.8-0.9,4.2c0,0,0,0-0.1,0c-0.3-0.2-0.6-0.4-0.9-0.6c0-0.1,0-0.3,0-0.4
			c0-1.2,0.5-2.4,1.2-3.2C223.8,39.1,224,39.1,224.2,39.1z"/>
		<path class="st5" d="M231.4,26.7C231.4,26.7,231.3,26.7,231.4,26.7c-7-1.3-12.6-6.5-14.2-13.4c-0.1-0.3,0.1-0.5,0.4-0.6
			c0.3-0.1,0.5,0.1,0.6,0.4c1.5,6.5,6.8,11.5,13.4,12.7c0.3,0,0.4,0.3,0.4,0.6C231.8,26.6,231.6,26.7,231.4,26.7z"/>
		<path class="st5" d="M192.8,29.5c-0.1,0-0.2,0-0.3-0.1c-0.2-0.2-0.3-0.5-0.1-0.7c2.2-2.8,4.9-2.8,7.7-2.8c2.8,0.1,5.5,0.1,7.3-3.3
			c1.2-2.2,0.5-3.4-0.3-4.7c-0.7-1.2-1.6-2.6-0.9-4.8c0.1-0.2,0.3-0.4,0.6-0.3c0.2,0.1,0.4,0.4,0.3,0.6c-0.6,1.8,0,2.8,0.8,4
			c0.8,1.4,1.8,3,0.3,5.7c-2.1,3.9-5.2,3.9-8.2,3.8c-2.6,0-5-0.1-6.9,2.4C193,29.4,192.9,29.5,192.8,29.5z"/>
		<path class="st5" d="M203,23.8c-0.1,0-0.2,0-0.4,0c-0.8-0.2-1.3-0.5-1.6-1.1c-0.5-1,0-2.2,0.4-3.2c0.1-0.2,0.3-0.3,0.5-0.3
			c1.7,0.3,2.3,1.3,2.4,1.9c0.3,0.8,0.1,1.6-0.4,2.1C203.8,23.7,203.4,23.8,203,23.8z M202.3,20.3c-0.3,0.7-0.5,1.5-0.3,2
			c0.1,0.3,0.4,0.4,0.9,0.6c0.2,0,0.4,0,0.5-0.2c0.3-0.3,0.3-0.8,0.2-1.2C203.4,20.9,203,20.5,202.3,20.3z"/>
		<path class="st6" d="M226,108.7l-9.4-2.2c-0.5-0.1-1.1,0.2-1.3,0.7c-0.2,0.5,0,1.1,0.4,1.4l7.2,4.9l-20.3-1.5
			c-0.7-0.1-1.3,0.4-1.4,1.1c-0.1,0.7,0.3,1.4,1,1.5l17.2,5L226,108.7z"/>
		<path class="st4" d="M219.4,120.1c0,0-0.1,0-0.1,0l-17.2-5c-0.9-0.3-1.5-1.2-1.3-2.1c0.2-0.9,1-1.6,1.9-1.5l18.5,1.3l-5.7-3.8
			c-0.7-0.4-0.9-1.3-0.6-2c0.3-0.7,1.1-1.1,1.9-0.9l9.4,2.2c0.3,0.1,0.4,0.3,0.4,0.6c-0.1,0.3-0.3,0.4-0.6,0.4l-9.4-2.2
			c-0.3-0.1-0.7,0.1-0.8,0.4c-0.1,0.3,0,0.7,0.2,0.8l7.2,4.9c0.2,0.1,0.3,0.3,0.2,0.6c-0.1,0.2-0.3,0.3-0.5,0.3l-20.3-1.5
			c-0.4,0-0.9,0.3-0.9,0.7c-0.1,0.4,0.2,0.9,0.6,1l17.2,5c0.3,0.1,0.4,0.3,0.3,0.6C219.8,120,219.6,120.1,219.4,120.1z"/>
		<path class="st6" d="M181.2,80.7l-14.8,41.4c-2.6,7.2-11,10.4-17.7,6.7l0,0c-6.7-3.7-8.4-12.5-3.7-18.5l27-34.4V61.5
			c0-2.2,1-4.3,2.8-5.7l2.3-1.7c3.3-2.5,7.9-2.9,11.4-0.7c1.8,1.2,2.8,2.7,1.1,4.8l1.7,3c0,0,3.1,1.8,1.9,3.7c0,0,1,2.4-1.9,1.4
			c-2.9-1-5-0.6-7.2,1.6C184,67.9,188,76.3,181.2,80.7z"/>
		<path class="st0" d="M179.4,57.7c-0.2,0-0.3-0.1-0.4-0.2c-0.1-0.2,0-0.5,0.2-0.6c0.1-0.1,0.2-0.1,0.4-0.2c1.3-0.9,4.9-3.3,9,0.3
			c0.2,0.2,0.2,0.5,0,0.7c-0.2,0.2-0.5,0.2-0.7,0.1c-3.6-3.1-6.6-1.1-7.9-0.2c-0.2,0.1-0.3,0.2-0.4,0.3
			C179.5,57.7,179.4,57.7,179.4,57.7z"/>
		<path class="st0" d="M181.6,61.3c-0.2,0-0.4-0.1-0.4-0.3c-0.1-0.2,0-0.5,0.2-0.6c0.1-0.1,3.7-1.7,6.9-0.7c0.3,0.1,0.4,0.3,0.3,0.6
			c-0.1,0.3-0.4,0.4-0.6,0.3c-2.9-0.8-6.2,0.7-6.3,0.7C181.8,61.3,181.7,61.3,181.6,61.3z"/>
		<path class="st0" d="M191.6,64.3c-0.1,0-0.1,0-0.2,0c-2.8-1.3-4.7-1.4-7-0.4c-0.2,0.1-0.5,0-0.6-0.2c-0.1-0.2,0-0.5,0.2-0.6
			c2.5-1.1,4.7-1,7.8,0.4c0.2,0.1,0.3,0.4,0.2,0.6C192,64.2,191.8,64.3,191.6,64.3z"/>
		<path class="st1" d="M175.4,147c-0.1,0-0.2,0-0.2-0.1c-0.2-0.1-0.3-0.4-0.2-0.6c2.3-4.3,3.3-12.8,2.2-17.7
			c-0.1-0.3,0.1-0.5,0.4-0.6c0.3-0.1,0.5,0.1,0.6,0.4c1.2,5.1,0.2,13.8-2.2,18.3C175.7,146.9,175.6,147,175.4,147z"/>
		<path class="st1" d="M178.1,147c-0.1,0-0.2,0-0.3-0.1c-0.2-0.1-0.3-0.4-0.1-0.7l2.8-4.1c0.1-0.2,0.4-0.3,0.7-0.1
			c0.2,0.1,0.3,0.4,0.1,0.7l-2.8,4.1C178.4,147,178.2,147,178.1,147z"/>
	</g>
	<path class="st4" d="M166.1,213c-0.2,0-0.4-0.2-0.5-0.4c0-0.2-3.8-20.2-2.8-33.5c0-0.3,0.2-0.5,0.5-0.4c0.3,0,0.5,0.2,0.4,0.5
		c-1,13.2,2.7,33.1,2.8,33.3C166.6,212.7,166.4,213,166.1,213C166.1,213,166.1,213,166.1,213z"/>
	<path class="st2" d="M213.5,342c-0.2,0-0.4-0.1-0.4-0.3l-22-53.3c-0.1-0.2,0-0.5,0.3-0.6c0.2-0.1,0.5,0,0.6,0.3l22,53.3
		c0.1,0.2,0,0.5-0.3,0.6C213.7,342,213.6,342,213.5,342z"/>
	<path class="st2" d="M227.7,334.5c-0.2,0-0.3-0.1-0.4-0.3c-0.1-0.2,0-0.5,0.2-0.6l10.1-5.4c0.2-0.1,0.5,0,0.6,0.2
		c0.1,0.2,0,0.5-0.2,0.6l-10.1,5.4C227.9,334.4,227.8,334.5,227.7,334.5z"/>
	<path class="st2" d="M205.1,350.7L205.1,350.7l-10.2,0c-0.3,0-0.5-0.2-0.5-0.5c0-0.3,0.2-0.5,0.5-0.5l0,0l10.2,0
		c0.3,0,0.5,0.2,0.5,0.5C205.5,350.4,205.3,350.7,205.1,350.7z"/>
	<path class="st1" d="M157.1,182.5h-20.9c-0.3,0-0.5-0.2-0.5-0.5c0-0.3,0.2-0.5,0.5-0.5h20.9c0.3,0,0.5,0.2,0.5,0.5
		C157.6,182.3,157.4,182.5,157.1,182.5z"/>
	<path class="st1" d="M157.1,188.3h-20.9c-0.3,0-0.5-0.2-0.5-0.5c0-0.3,0.2-0.5,0.5-0.5h20.9c0.3,0,0.5,0.2,0.5,0.5
		C157.6,188,157.4,188.3,157.1,188.3z"/>
</g>
</svg>
