<?xml version="1.0" encoding="utf-8"?>
<!-- Generator: Adobe Illustrator 23.0.5, SVG Export Plug-In . SVG Version: 6.00 Build 0)  -->
<svg version="1.1" xmlns="http://www.w3.org/2000/svg" xmlns:xlink="http://www.w3.org/1999/xlink" x="0px" y="0px"
	 viewBox="0 0 800 800" style="enable-background:new 0 0 800 800;" xml:space="preserve">
<style type="text/css">
	.st0{opacity:5.000000e-02;}
	.st1{opacity:0.8;}
	.st2{fill:#F2F2F2;}
	.st3{fill:#8C6239;}
	.st4{fill:#855C36;}
	.st5{fill:#EDCD7E;}
	.st6{opacity:0.3;}
	.st7{fill:#FFFFFF;}
	.st8{fill:#FDDCBE;}
	.st9{fill:#523D26;}
	.st10{fill:#574939;}
	.st11{fill:#F5F5F5;}
	.st12{fill:#E6E6E6;}
</style>
<g id="Layer_2">
</g>
<g id="Layer_1">
	<g class="st0">
		<ellipse cx="400" cy="744.3" rx="219.8" ry="18.6"/>
	</g>
	<g>
		<g>
			<g class="st1">
				<path class="st2" d="M506.6,404.4V368H293.4v36.4c0,90.8,56,126.6,86.8,139.4c1.7,0.7,1.7,3,0,3.8
					c-30.8,12.8-86.8,48.6-86.8,139.4v36.4h213.2V687c0-90.8-56-126.6-86.8-139.4c-1.7-0.7-1.7-3,0-3.8
					C450.6,531,506.6,495.2,506.6,404.4z"/>
			</g>
			<g>
				<path class="st3" d="M515.5,344.7H284.5c-3.8,0-6.9,3.1-6.9,6.9v9.4c0,3.8,3.1,6.9,6.9,6.9h230.9c3.8,0,6.9-3.1,6.9-6.9v-9.4
					C522.4,347.8,519.3,344.7,515.5,344.7z"/>
			</g>
			<g>
				<path class="st3" d="M515.5,723.5H284.5c-3.8,0-6.9,3.1-6.9,6.9v9.4c0,3.8,3.1,6.9,6.9,6.9h230.9c3.8,0,6.9-3.1,6.9-6.9v-9.4
					C522.4,726.6,519.3,723.5,515.5,723.5z"/>
			</g>
			<g>
				<path class="st4" d="M515.5,739.7H284.5c-3.8,0-6.9-3.1-6.9-6.9v7.1c0,3.8,3.1,6.9,6.9,6.9h230.9c3.8,0,6.9-3.1,6.9-6.9v-7.1
					C522.4,736.6,519.3,739.7,515.5,739.7z"/>
			</g>
			<g>
				<path class="st5" d="M307.1,421.3c-2.1-0.7-4.2,1-4,3.2c2,19.1,6.8,36.3,14.6,51.6c8.2,16.2,19.6,30.2,34,41.5
					c21,16.6,42.3,22.8,48.4,24.3c6.1-1.5,26.9-7.5,47.8-23.8c14.5-11.3,26.1-25.3,34.4-41.5c7.8-15.3,12.8-32.8,14.8-52
					c0.2-2.2-1.9-3.9-4-3.2l-65.6,21.5c-17.8,5.8-36.9,5.8-54.7,0L307.1,421.3z"/>
			</g>
			<g>
				<polygon class="st5" points="302,723.5 400,637.5 497.9,723.5 				"/>
			</g>
			<g>
				<g>
					<rect x="396.6" y="533.9" class="st5" width="6.9" height="115.3"/>
				</g>
			</g>
		</g>
		<g>
			<path class="st4" d="M515.5,360.9H284.5c-3.8,0-6.9-3.1-6.9-6.9v7.1c0,3.8,3.1,6.9,6.9,6.9h230.9c3.8,0,6.9-3.1,6.9-6.9V354
				C522.4,357.8,519.3,360.9,515.5,360.9z"/>
		</g>
		<g class="st6">
			<g class="st1">
				<path class="st7" d="M419.8,543.8c30.8-12.8,86.8-48.6,86.8-139.4V368h-82.5c0,95.1-1.1,146.9-24.1,177.7
					c22.7,37,24.8,106.5,24.1,177.7h82.5V687c0-90.8-56-126.6-86.8-139.4C418.1,546.9,418.1,544.6,419.8,543.8z"/>
			</g>
		</g>
		<g class="st0">
			<rect x="293.4" y="368" width="213.2" height="13.4"/>
		</g>
	</g>
	<g>
		<path class="st0" d="M239.1,346.1c0.1,0.4,0.2,0.8,0.4,1.3l8.1,20.6h4.6v11.8l5.3,13.6c0,0-2.3,0.2-5.3,1v10
			c0,2.8,0.1,5.5,0.2,8.1c7.4-6.5,14.7-15.3,14.7-15.3l-11-48c24.1-2,50.8-2,73.7-1.5L347,399c0,0-19-1.2-22.9,12.9
			c-7.5,26.8,32-7.7,32-7.7l-9.4-49.6c10.2-3,22.5-4,38-4.9c6.9,0,11.7-2.1,15.1-4.9H243.3C241.7,344.7,240.2,345.3,239.1,346.1z"/>
		<g>
			<g>
				<g>
					<path class="st8" d="M256,256.6c0,0,0.6-3.7-1-3.9c-2.2-0.2-2.6,2.5-2.7,3.5c0-1,0-3.4-1.8-3.6c-1.8-0.1-2.2,2.3-2.3,3.2l0,0
						c0-1-0.3-3.7-2.5-3.8c-1.6-0.1-2.1,1.4-2.2,2.5c0,0.2,0,0.3,0,0.5c0-0.1,0-0.3,0-0.5c0-1.1-0.4-2.4-1.7-2.6
						c-1.5-0.1-2,3.5-2,3.5c-16.3,96.8,23.8,108.2,41,16.6l-14.8-2.8c-6.6,27.3-12.6,41.7-13.5,44.4C252,315,250.7,295.2,256,256.6z
						"/>
				</g>
			</g>
		</g>
		<g>
			<path class="st0" d="M249.1,271.6c1.5,3,3,5.9,4.3,8.6c0.6-6.9,1.5-14.7,2.7-23.6c0,0,0.6-3.7-1-3.9c-2.2-0.2-2.6,2.5-2.7,3.5
				c0-1,0-3.4-1.8-3.6c-1.8-0.1-2.2,2.3-2.3,3.2l0,0c0-1-0.3-3.7-2.5-3.8c-1.6-0.1-2.1,1.4-2.2,2.5c0-1.1-0.4-2.4-1.7-2.6
				c-0.6-0.1-1.1,0.6-1.4,1.3C245,264.4,249.1,271.6,249.1,271.6z"/>
			<path class="st0" d="M280.8,272.1l-14.8-2.8c-2.4,9.8-4.7,18-6.7,24.5c3.5,9,5.6,17.3,6.3,26.6C271.2,310,276.7,294,280.8,272.1z
				"/>
		</g>
		<g>
			<path class="st8" d="M251.9,271.4c0,0-80.8-136.9,53.9-141.7c0,0,47.6,9.6,82.1,82.5C288.2,284.9,251.9,271.4,251.9,271.4z"/>
		</g>
		<g>
			<path class="st9" d="M175.9,125.2c0,0,6.8,103.7,131.3,25.4l23,25.3c0,0,6.4-17.8,16-6.4c9.6,11.3-8.6,14.4-8.6,14.4
				s30.1,27.2,50.3,28.3c0,0-20.2-155.9-79.7-111.9c0,0-13.9-23.5-51.1-7.7C218.5,108.9,215.9,165.6,175.9,125.2z"/>
		</g>
		<path class="st10" d="M270.1,329.2l-27.7,4.7c-5.2,0.9-8.3,6.3-6.4,11.3l18,46c0,0-19.6,1.8-21,16.3
			c-2.5,27.7,30.5-12.4,30.5-12.4l-11-48c24.1-2,50.8-2,73.7-1.5l17.3,51.4c0,0-19-1.2-22.9,12.9c-7.5,26.8,32-7.7,32-7.7l-9.4-49.6
			c10.2-3,22.5-4,38-4.9c21.1-0.1,23-19.6,23-19.6L270.1,329.2z"/>
		<g>
			<path class="st11" d="M251.9,271.4c12.4,22.8,18.2,36.9,18.2,57.9c0,0,60.2,7,134.2-1.3c4.5-38,0.1-71.7-16.4-115.8
				C387.9,212.1,304.1,266,251.9,271.4z"/>
		</g>
		<g>
			<g>
				<polygon class="st12" points="307.7,266.1 311.3,273.1 306,281.2 318,329.1 302.2,341.4 289.3,327.6 295.7,281.9 289.8,273.1 
					293.1,267.5 				"/>
			</g>
			<g>
				<polygon class="st10" points="307.7,266.1 311.3,273.1 306,281.2 314,327.6 298.3,339.9 285.3,326.1 295.7,281.9 289.8,273.1 
					293.1,267.5 				"/>
			</g>
		</g>
		<g>
			<g>
				<g>
					<g>
						<path class="st9" d="M251.4,209.5c2,5,1.8,9.8-0.6,10.7c-2.4,1-5.9-2.3-7.9-7.2c-2-5-1.8-9.8,0.6-10.7
							C245.8,201.3,249.3,204.6,251.4,209.5z"/>
					</g>
				</g>
			</g>
		</g>
		<g>
			<g>
				<g>
					<g>
						<path class="st9" d="M310.2,187.7c2,5,1.8,9.8-0.6,10.7c-2.3,1-5.9-2.3-7.9-7.2c-2-5-1.8-9.8,0.6-10.7
							C304.6,179.5,308.1,182.7,310.2,187.7z"/>
					</g>
				</g>
			</g>
		</g>
		<g>
			<path class="st9" d="M230.7,212.5c-0.3,0-0.6-0.1-0.8-0.3c-0.5-0.5-0.6-1.3-0.2-1.8c6-7.1,10.7-15,14.2-23.5c0.3-0.7,1-1,1.7-0.7
				c0.7,0.3,1,1,0.7,1.7c-3.6,8.7-8.5,16.9-14.6,24.1C231.5,212.4,231.1,212.5,230.7,212.5z"/>
		</g>
		<g>
			<path class="st9" d="M317.9,178.4C317.9,178.4,317.9,178.4,317.9,178.4c-10.9-0.8-20-2.7-27.7-5.9c-0.7-0.3-1-1-0.7-1.7
				c0.3-0.7,1-1,1.7-0.7c7.5,3.1,16.3,5,26.8,5.7c0.7,0.1,1.3,0.7,1.2,1.4C319.2,177.9,318.6,178.4,317.9,178.4z"/>
		</g>
		<g>
			<path class="st9" d="M268.3,249.7c-0.2,0-0.4-0.1-0.7-0.2c-0.6-0.4-0.8-1.2-0.5-1.8c12.4-21.2,26.7-30.3,42.4-27.1
				c0.7,0.1,1.2,0.8,1,1.5c-0.1,0.7-0.8,1.2-1.5,1c-14.7-3-27.7,5.5-39.7,25.9C269.1,249.4,268.7,249.7,268.3,249.7z"/>
		</g>
		<g class="st0">
			<path d="M363.4,252.2l-1,13.9c-7.7,73.8-23.3,74.9-40.4-18.2c0,0-0.4-3.7-2-3.4c-2.2,0.4-1.8,3.1-1.7,4.1c-0.2-0.9-1-3.3-2.7-2.9
				c-1.8,0.4-1.5,2.8-1.3,3.7l0,0c-0.3-0.9-1.3-3.5-3.4-3c-1.6,0.4-1.6,1.9-1.4,3c-0.3-1.1-1.1-2.2-2.4-2c-1.5,0.3-1,3.9-1,3.9
				c18,109.1,62,120.5,71.3,15.7l1.6-15.2L363.4,252.2z"/>
		</g>
		<g>
			<g>
				<g>
					<path class="st8" d="M323.8,249.7c0,0-0.2-3.7-1.8-3.5c-2.2,0.3-2,3-1.9,4c-0.2-0.9-0.8-3.4-2.6-3.1c-1.8,0.3-1.6,2.7-1.5,3.6
						l0,0c-0.2-0.9-1.1-3.5-3.3-3.2c-1.6,0.3-1.7,1.8-1.6,2.9c0,0.2,0.1,0.3,0.1,0.5c0-0.1-0.1-0.3-0.1-0.5
						c-0.2-1.1-0.9-2.3-2.2-2.1c-1.5,0.2-1.2,3.9-1.2,3.9c12,109.9,53.8,118.9,68.9,14.8l-14.9-1.8
						C349.9,338.5,335.8,343.6,323.8,249.7z"/>
				</g>
			</g>
		</g>
		<g>
			<polygon class="st11" points="361.6,265.2 363.4,251.4 379,251.9 376.6,267 			"/>
		</g>
	</g>
	<g>
		<path class="st0" d="M562.1,346.1c-0.1,0.4-0.2,0.8-0.4,1.3l-8.1,20.6h-4.6v11.8l-5.3,13.6c0,0,2.3,0.2,5.3,1v10
			c0,2.8-0.1,5.5-0.2,8.1c-7.4-6.5-14.7-15.3-14.7-15.3l11-48c-24.1-2-50.8-2-73.7-1.5L454.2,399c0,0,19-1.2,22.9,12.9
			c7.5,26.8-32-7.7-32-7.7l9.4-49.6c-10.2-3-22.5-4-38-4.9c-6.9,0-11.7-2.1-15.1-4.9h156.6C559.5,344.7,561,345.3,562.1,346.1z"/>
		<g>
			<g>
				<g>
					<path class="st8" d="M545.2,256.6c0,0-0.6-3.7,1-3.9c2.2-0.2,2.6,2.5,2.7,3.5c0-1,0-3.4,1.8-3.6c1.8-0.1,2.2,2.3,2.3,3.2l0,0
						c0-1,0.3-3.7,2.5-3.8c1.6-0.1,2.1,1.4,2.2,2.5c0,0.2,0,0.3,0,0.5c0-0.1,0-0.3,0-0.5c0-1.1,0.4-2.4,1.7-2.6c1.5-0.1,2,3.5,2,3.5
						c16.3,96.8-23.8,108.2-41,16.6l14.8-2.8c6.6,27.3,12.6,41.7,13.5,44.4C549.2,315,550.5,295.2,545.2,256.6z"/>
				</g>
			</g>
		</g>
		<g>
			<path class="st0" d="M552.2,271.6c-1.5,3-3,5.9-4.3,8.6c-0.6-6.9-1.5-14.7-2.7-23.6c0,0-0.6-3.7,1-3.9c2.2-0.2,2.6,2.5,2.7,3.5
				c0-1,0-3.4,1.8-3.6c1.8-0.1,2.2,2.3,2.3,3.2l0,0c0-1,0.3-3.7,2.5-3.8c1.6-0.1,2.1,1.4,2.2,2.5c0-1.1,0.4-2.4,1.7-2.6
				c0.6-0.1,1.1,0.6,1.4,1.3C556.2,264.4,552.2,271.6,552.2,271.6z"/>
			<path class="st0" d="M520.4,272.1l14.8-2.8c2.4,9.8,4.7,18,6.7,24.5c-3.5,9-5.6,17.3-6.3,26.6C530,310,524.6,294,520.4,272.1z"/>
		</g>
		<g>
			<path class="st8" d="M549.3,271.4c0,0,80.8-136.9-53.9-141.7c0,0-47.6,9.6-82.1,82.5C513.1,284.9,549.3,271.4,549.3,271.4z"/>
		</g>
		<g>
			<path class="st9" d="M625.3,125.2c0,0-6.8,103.7-131.3,25.4l-23,25.3c0,0-6.4-17.8-16-6.4c-9.6,11.3,8.6,14.4,8.6,14.4
				s-30.1,27.2-50.3,28.3c0,0,20.2-155.9,79.7-111.9c0,0,13.9-23.5,51.1-7.7C582.7,108.9,585.4,165.6,625.3,125.2z"/>
		</g>
		<path class="st10" d="M531.1,329.2l27.7,4.7c5.2,0.9,8.3,6.3,6.4,11.3l-18,46c0,0,19.6,1.8,21,16.3c2.5,27.7-30.5-12.4-30.5-12.4
			l11-48c-24.1-2-50.8-2-73.7-1.5l-17.3,51.4c0,0,19-1.2,22.9,12.9c7.5,26.8-32-7.7-32-7.7l9.4-49.6c-10.2-3-22.5-4-38-4.9
			c-21.1-0.1-23-19.6-23-19.6L531.1,329.2z"/>
		<g>
			<path class="st11" d="M549.3,271.4c-12.4,22.8-18.2,36.9-18.2,57.9c0,0-60.2,7-134.2-1.3c-4.5-38-0.1-71.7,16.4-115.8
				C413.3,212.1,497.1,266,549.3,271.4z"/>
		</g>
		<g>
			<g>
				<polygon class="st12" points="493.5,266.1 489.9,273.1 495.3,281.2 483.2,329.1 499,341.4 511.9,327.6 505.5,281.9 511.4,273.1 
					508.1,267.5 				"/>
			</g>
			<g>
				<polygon class="st10" points="493.5,266.1 489.9,273.1 495.3,281.2 487.2,327.6 503,339.9 515.9,326.1 505.5,281.9 511.4,273.1 
					508.1,267.5 				"/>
			</g>
		</g>
		<g>
			<g>
				<g>
					<g>
						<path class="st9" d="M549.9,209.5c-2,5-1.8,9.8,0.6,10.7c2.4,1,5.9-2.3,7.9-7.2c2-5,1.8-9.8-0.6-10.7
							C555.4,201.3,551.9,204.6,549.9,209.5z"/>
					</g>
				</g>
			</g>
		</g>
		<g>
			<g>
				<g>
					<g>
						<path class="st9" d="M491.1,187.7c-2,5-1.8,9.8,0.6,10.7c2.3,1,5.9-2.3,7.9-7.2c2-5,1.8-9.8-0.6-10.7
							C496.6,179.5,493.1,182.7,491.1,187.7z"/>
					</g>
				</g>
			</g>
		</g>
		<g>
			<path class="st9" d="M570.5,212.5c0.3,0,0.6-0.1,0.8-0.3c0.5-0.5,0.6-1.3,0.2-1.8c-6-7.1-10.7-15-14.2-23.5c-0.3-0.7-1-1-1.7-0.7
				c-0.7,0.3-1,1-0.7,1.7c3.6,8.7,8.5,16.9,14.6,24.1C569.7,212.4,570.1,212.5,570.5,212.5z"/>
		</g>
		<g>
			<path class="st9" d="M483.3,178.4C483.3,178.4,483.3,178.4,483.3,178.4c10.9-0.8,20-2.7,27.7-5.9c0.7-0.3,1-1,0.7-1.7
				c-0.3-0.7-1-1-1.7-0.7c-7.5,3.1-16.3,5-26.8,5.7c-0.7,0.1-1.3,0.7-1.2,1.4C482,177.9,482.6,178.4,483.3,178.4z"/>
		</g>
		<g>
			<path class="st9" d="M533,249.7c0.2,0,0.4-0.1,0.7-0.2c0.6-0.4,0.8-1.2,0.5-1.8c-12.4-21.2-26.7-30.3-42.4-27.1
				c-0.7,0.1-1.2,0.8-1,1.5c0.1,0.7,0.8,1.2,1.5,1c14.7-3,27.7,5.5,39.7,25.9C532.1,249.4,532.5,249.7,533,249.7z"/>
		</g>
		<g class="st0">
			<path d="M437.8,252.2l1,13.9c7.7,73.8,23.3,74.9,40.4-18.2c0,0,0.4-3.7,2-3.4c2.2,0.4,1.8,3.1,1.7,4.1c0.2-0.9,1-3.3,2.7-2.9
				c1.8,0.4,1.5,2.8,1.3,3.7l0,0c0.3-0.9,1.3-3.5,3.4-3c1.6,0.4,1.6,1.9,1.4,3c0.3-1.1,1.1-2.2,2.4-2c1.5,0.3,1,3.9,1,3.9
				c-18,109.1-62,120.5-71.3,15.7l-1.6-15.2L437.8,252.2z"/>
		</g>
		<g>
			<g>
				<g>
					<path class="st8" d="M477.4,249.7c0,0,0.2-3.7,1.8-3.5c2.2,0.3,2,3,1.9,4c0.2-0.9,0.8-3.4,2.6-3.1c1.8,0.3,1.6,2.7,1.5,3.6l0,0
						c0.2-0.9,1.1-3.5,3.3-3.2c1.6,0.3,1.7,1.8,1.6,2.9c0,0.2-0.1,0.3-0.1,0.5c0-0.1,0.1-0.3,0.1-0.5c0.2-1.1,0.9-2.3,2.2-2.1
						c1.5,0.2,1.2,3.9,1.2,3.9c-12,109.9-53.8,118.9-68.9,14.8l14.9-1.8C451.3,338.5,465.5,343.6,477.4,249.7z"/>
				</g>
			</g>
		</g>
		<g>
			<polygon class="st11" points="439.6,265.2 437.8,251.4 422.2,251.9 424.6,267 			"/>
		</g>
	</g>
</g>
</svg>
