<?xml version="1.0" encoding="utf-8"?>
<!-- Generator: Adobe Illustrator 23.0.5, SVG Export Plug-In . SVG Version: 6.00 Build 0)  -->
<svg version="1.1" xmlns="http://www.w3.org/2000/svg" xmlns:xlink="http://www.w3.org/1999/xlink" x="0px" y="0px"
	 viewBox="0 0 800 800" style="enable-background:new 0 0 800 800;" xml:space="preserve">
<style type="text/css">
	.st0{opacity:5.000000e-02;}
	.st1{opacity:0.8;}
	.st2{fill:#F2F2F2;}
	.st3{fill:#8C6239;}
	.st4{fill:#855C36;}
	.st5{fill:#EDCD7E;}
	.st6{opacity:0.3;}
	.st7{fill:#FFFFFF;}
	.st8{fill:#FDDCBE;}
	.st9{fill:#523D26;}
	.st10{fill:#574939;}
	.st11{fill:#F5F5F5;}
	.st12{fill:#E6E6E6;}
</style>
<g id="Layer_2">
</g>
<g id="Layer_1">
	<g class="st0">
		<ellipse cx="400" cy="744.3" rx="219.8" ry="18.6"/>
	</g>
	<g>
		<g>
			<g class="st1">
				<path class="st2" d="M506.6,404.4V368H293.4v36.4c0,90.8,56,126.6,86.8,139.4c1.7,0.7,1.7,3,0,3.8
					c-30.8,12.8-86.8,48.6-86.8,139.4v36.4h213.2V687c0-90.8-56-126.6-86.8-139.4c-1.7-0.7-1.7-3,0-3.8
					C450.6,531,506.6,495.2,506.6,404.4z"/>
			</g>
			<g>
				<path class="st3" d="M515.5,344.7H284.5c-3.8,0-6.9,3.1-6.9,6.9v9.4c0,3.8,3.1,6.9,6.9,6.9h230.9c3.8,0,6.9-3.1,6.9-6.9v-9.4
					C522.4,347.8,519.3,344.7,515.5,344.7z"/>
			</g>
			<g>
				<path class="st3" d="M515.5,723.5H284.5c-3.8,0-6.9,3.1-6.9,6.9v9.4c0,3.8,3.1,6.9,6.9,6.9h230.9c3.8,0,6.9-3.1,6.9-6.9v-9.4
					C522.4,726.6,519.3,723.5,515.5,723.5z"/>
			</g>
			<g>
				<path class="st4" d="M515.5,739.7H284.5c-3.8,0-6.9-3.1-6.9-6.9v7.1c0,3.8,3.1,6.9,6.9,6.9h230.9c3.8,0,6.9-3.1,6.9-6.9v-7.1
					C522.4,736.6,519.3,739.7,515.5,739.7z"/>
			</g>
			<g>
				<path class="st5" d="M307.1,421.3c-2.1-0.7-4.2,1-4,3.2c2,19.1,6.8,36.3,14.6,51.6c8.2,16.2,19.6,30.2,34,41.5
					c21,16.6,42.3,22.8,48.4,24.3c6.1-1.5,26.9-7.5,47.8-23.8c14.5-11.3,26.1-25.3,34.4-41.5c7.8-15.3,12.8-32.8,14.8-52
					c0.2-2.2-1.9-3.9-4-3.2l-65.6,21.5c-17.8,5.8-36.9,5.8-54.7,0L307.1,421.3z"/>
			</g>
			<g>
				<polygon class="st5" points="302,723.5 400,637.5 497.9,723.5 				"/>
			</g>
			<g>
				<g>
					<rect x="396.6" y="533.9" class="st5" width="6.9" height="115.3"/>
				</g>
			</g>
		</g>
		<g>
			<path class="st4" d="M515.5,360.9H284.5c-3.8,0-6.9-3.1-6.9-6.9v7.1c0,3.8,3.1,6.9,6.9,6.9h230.9c3.8,0,6.9-3.1,6.9-6.9V354
				C522.4,357.8,519.3,360.9,515.5,360.9z"/>
		</g>
		<g class="st6">
			<g class="st1">
				<path class="st7" d="M419.8,543.8c30.8-12.8,86.8-48.6,86.8-139.4V368h-82.5c0,95.1-1.1,146.9-24.1,177.7
					c22.7,37,24.8,106.5,24.1,177.7h82.5V687c0-90.8-56-126.6-86.8-139.4C418.1,546.9,418.1,544.6,419.8,543.8z"/>
			</g>
		</g>
		<g class="st0">
			<rect x="293.4" y="368" width="213.2" height="13.4"/>
		</g>
	</g>
	<g>
		<path class="st0" d="M280.4,346.1c0.1,0.4,0.2,0.8,0.4,1.3l8.1,20.6h4.6v11.8l5.3,13.6c0,0-2.3,0.2-5.3,1v10
			c0,2.8,0.1,5.5,0.2,8.1c7.4-6.5,14.7-15.3,14.7-15.3l-11-48c24.1-2,50.8-2,73.7-1.5l17.3,51.4c0,0-19-1.2-22.9,12.9
			c-7.5,26.8,32-7.7,32-7.7l-9.4-49.6c10.2-3,22.5-4,38-4.9c6.9,0,11.7-2.1,15.1-4.9H284.5C283,344.7,281.5,345.3,280.4,346.1z"/>
		<g>
			<g>
				<g>
					<path class="st8" d="M297.3,256.6c0,0,0.6-3.7-1-3.9c-2.2-0.2-2.6,2.5-2.7,3.5c0-1,0-3.4-1.8-3.6c-1.8-0.1-2.2,2.3-2.3,3.2l0,0
						c0-1-0.3-3.7-2.5-3.8c-1.6-0.1-2.1,1.4-2.2,2.5c0,0.2,0,0.3,0,0.5c0-0.1,0-0.3,0-0.5c0-1.1-0.4-2.4-1.7-2.6
						c-1.5-0.1-2,3.5-2,3.5c-16.3,96.8,23.8,108.2,41,16.6l-14.8-2.8c-6.6,27.3-12.6,41.7-13.5,44.4
						C293.3,315,292,295.2,297.3,256.6z"/>
				</g>
			</g>
		</g>
		<g>
			<path class="st0" d="M290.3,271.6c1.5,3,3,5.9,4.3,8.6c0.6-6.9,1.5-14.7,2.7-23.6c0,0,0.6-3.7-1-3.9c-2.2-0.2-2.6,2.5-2.7,3.5
				c0-1,0-3.4-1.8-3.6c-1.8-0.1-2.2,2.3-2.3,3.2l0,0c0-1-0.3-3.7-2.5-3.8c-1.6-0.1-2.1,1.4-2.2,2.5c0-1.1-0.4-2.4-1.7-2.6
				c-0.6-0.1-1.1,0.6-1.4,1.3C286.3,264.4,290.3,271.6,290.3,271.6z"/>
			<path class="st0" d="M322,272.1l-14.8-2.8c-2.4,9.8-4.7,18-6.7,24.5c3.5,9,5.6,17.3,6.3,26.6C312.5,310,317.9,294,322,272.1z"/>
		</g>
		<g>
			<path class="st8" d="M293.2,271.4c0,0-80.8-136.9,53.9-141.7c0,0,47.6,9.6,82.1,82.5C329.4,284.9,293.2,271.4,293.2,271.4z"/>
		</g>
		<g>
			<path class="st9" d="M217.2,125.2c0,0,6.8,103.7,131.3,25.4l23,25.3c0,0,6.4-17.8,16-6.4c9.6,11.3-8.6,14.4-8.6,14.4
				s30.1,27.2,50.3,28.3c0,0-20.2-155.9-79.7-111.9c0,0-13.9-23.5-51.1-7.7C259.8,108.9,257.1,165.6,217.2,125.2z"/>
		</g>
		<path class="st10" d="M311.4,329.2l-27.7,4.7c-5.2,0.9-8.3,6.3-6.4,11.3l18,46c0,0-19.6,1.8-21,16.3
			c-2.5,27.7,30.5-12.4,30.5-12.4l-11-48c24.1-2,50.8-2,73.7-1.5l17.3,51.4c0,0-19-1.2-22.9,12.9c-7.5,26.8,32-7.7,32-7.7l-9.4-49.6
			c10.2-3,22.5-4,38-4.9c21.1-0.1,23-19.6,23-19.6L311.4,329.2z"/>
		<g>
			<path class="st11" d="M293.2,271.4c12.4,22.8,18.2,36.9,18.2,57.9c0,0,60.2,7,134.2-1.3c4.5-38,0.1-71.7-16.4-115.8
				C429.2,212.1,345.3,266,293.2,271.4z"/>
		</g>
		<g>
			<g>
				<polygon class="st12" points="349,266.1 352.6,273.1 347.2,281.2 359.3,329.1 343.5,341.4 330.6,327.6 337,281.9 331,273.1 
					334.3,267.5 				"/>
			</g>
			<g>
				<polygon class="st10" points="349,266.1 352.6,273.1 347.2,281.2 355.3,327.6 339.5,339.9 326.6,326.1 337,281.9 331,273.1 
					334.3,267.5 				"/>
			</g>
		</g>
		<g>
			<g>
				<g>
					<g>
						<path class="st9" d="M292.6,209.5c2,5,1.8,9.8-0.6,10.7c-2.4,1-5.9-2.3-7.9-7.2c-2-5-1.8-9.8,0.6-10.7
							C287.1,201.3,290.6,204.6,292.6,209.5z"/>
					</g>
				</g>
			</g>
		</g>
		<g>
			<g>
				<g>
					<g>
						<path class="st9" d="M351.4,187.7c2,5,1.8,9.8-0.6,10.7c-2.3,1-5.9-2.3-7.9-7.2c-2-5-1.8-9.8,0.6-10.7
							C345.9,179.5,349.4,182.7,351.4,187.7z"/>
					</g>
				</g>
			</g>
		</g>
		<g>
			<path class="st9" d="M272,212.5c-0.3,0-0.6-0.1-0.8-0.3c-0.5-0.5-0.6-1.3-0.2-1.8c6-7.1,10.7-15,14.2-23.5c0.3-0.7,1-1,1.7-0.7
				c0.7,0.3,1,1,0.7,1.7c-3.6,8.7-8.5,16.9-14.6,24.1C272.8,212.4,272.4,212.5,272,212.5z"/>
		</g>
		<g>
			<path class="st9" d="M359.2,178.4C359.2,178.4,359.2,178.4,359.2,178.4c-10.9-0.8-20-2.7-27.7-5.9c-0.7-0.3-1-1-0.7-1.7
				c0.3-0.7,1-1,1.7-0.7c7.5,3.1,16.3,5,26.8,5.7c0.7,0.1,1.3,0.7,1.2,1.4C360.5,177.9,359.9,178.4,359.2,178.4z"/>
		</g>
		<g>
			<path class="st9" d="M309.5,249.7c-0.2,0-0.4-0.1-0.7-0.2c-0.6-0.4-0.8-1.2-0.5-1.8c12.4-21.2,26.7-30.3,42.4-27.1
				c0.7,0.1,1.2,0.8,1,1.5c-0.1,0.7-0.8,1.2-1.5,1c-14.7-3-27.7,5.5-39.7,25.9C310.4,249.4,310,249.7,309.5,249.7z"/>
		</g>
		<g class="st0">
			<path d="M404.7,252.2l-1,13.9c-7.7,73.8-23.3,74.9-40.4-18.2c0,0-0.4-3.7-2-3.4c-2.2,0.4-1.8,3.1-1.7,4.1c-0.2-0.9-1-3.3-2.7-2.9
				c-1.8,0.4-1.5,2.8-1.3,3.7l0,0c-0.3-0.9-1.3-3.5-3.4-3c-1.6,0.4-1.6,1.9-1.4,3c-0.3-1.1-1.1-2.2-2.4-2c-1.5,0.3-1,3.9-1,3.9
				c18,109.1,62,120.5,71.3,15.7l1.6-15.2L404.7,252.2z"/>
		</g>
		<g>
			<g>
				<g>
					<path class="st8" d="M365.1,249.7c0,0-0.2-3.7-1.8-3.5c-2.2,0.3-2,3-1.9,4c-0.2-0.9-0.8-3.4-2.6-3.1c-1.8,0.3-1.6,2.7-1.5,3.6
						l0,0c-0.2-0.9-1.1-3.5-3.3-3.2c-1.6,0.3-1.7,1.8-1.6,2.9c0,0.2,0.1,0.3,0.1,0.5c0-0.1-0.1-0.3-0.1-0.5
						c-0.2-1.1-0.9-2.3-2.2-2.1c-1.5,0.2-1.2,3.9-1.2,3.9c12,109.9,53.8,118.9,68.9,14.8l-14.9-1.8
						C391.2,338.5,377,343.6,365.1,249.7z"/>
				</g>
			</g>
		</g>
		<g>
			<polygon class="st11" points="402.9,265.2 404.7,251.4 420.3,251.9 417.9,267 			"/>
		</g>
	</g>
</g>
</svg>
