<?xml version="1.0" encoding="utf-8"?>
<!-- Generator: Adobe Illustrator 23.0.5, SVG Export Plug-In . SVG Version: 6.00 Build 0)  -->
<svg version="1.1" id="Layer_1" xmlns="http://www.w3.org/2000/svg" xmlns:xlink="http://www.w3.org/1999/xlink" x="0px" y="0px"
	 viewBox="0 0 689 561" style="enable-background:new 0 0 689 561;" xml:space="preserve">
<style type="text/css">
	.st0{fill:#F04264;}
	.st1{fill:#A7E8A8;}
	.st2{fill:#8BD68B;}
	.st3{fill:#703A22;}
	.st4{opacity:0.3;fill:#703A22;enable-background:new    ;}
	.st5{fill:#E2335C;}
	.st6{fill:#63D4AF;}
	.st7{fill:#52C199;}
	.st8{fill:#7B1146;}
	.st9{fill:#6D0B41;}
	.st10{fill:url(#SVGID_1_);}
	.st11{opacity:0.4;fill:#F9DABB;enable-background:new    ;}
	.st12{fill:#F3B6AB;}
	.st13{fill:#F4948E;}
	.st14{fill:#227289;}
	.st15{fill:#EA65A2;}
	.st16{fill:#0A3E54;}
	.st17{fill:#6BDEAB;}
	.st18{fill:#EFA630;}
	.st19{fill:#1E61D8;}
	.st20{fill:#207444;}
	.st21{fill:url(#SVGID_2_);}
	.st22{fill:url(#SVGID_3_);}
	.st23{fill:url(#SVGID_4_);}
	.st24{fill:#993022;}
	.st25{fill:#1E1724;}
	.st26{fill:#F27079;}
	.st27{fill:#64371F;}
	.st28{fill:#EFE2D5;}
	.st29{fill:#874329;}
	.st30{fill:#51BA7F;}
	.st31{fill:#4C4749;}
	.st32{fill:url(#SVGID_5_);}
	.st33{fill:#FFC04F;}
	.st34{fill:#186577;}
	.st35{fill:#083544;}
	.st36{fill:#2F88F2;}
	.st37{fill:#FFFFFF;}
	.st38{fill:#A9DEFF;}
</style>
<g>
	<path class="st0" d="M195.6,263.2c0,0,0.6,4.2,0.6,5.6l3.2,0.2c0,0,0.2-3.5-0.3-5.7H195.6z"/>
	<g>
		<path class="st1" d="M603.7,318.9V330c0,5.4,1.7,51.5,1.7,51.5l-3.5,1.2c-1.5,0.6-3.2,1.2-4.8,1.7c-5.3,1.5-11.3,2.4-17.2,2.7
			c-0.3-10.8-6.3-12.2-11.9,0.3c-0.6,0-1.1,0-1.7,0c-7.7-0.2-14.1-0.9-17.3-1.4c-1.4-0.2-2.1-0.3-2.1-0.3
			c1.5-21.1,9.9-63.7,9.9-63.7c0.8-9.6,1.8-19.7,3.5-28.6c1.2-7.1,3-11.6,4.8-14.4c3.2-5,6.8-5.3,9.5-5.9c9.8-2.1,14.3-2,19.4,0.5
			c1.1,0.5,2.3,1.1,3.3,1.8c4.2,2.4,11.1,2.1,17.2-0.2c0.3,3.5,1.1,7.5,3,10.7c1.2,1.8,2.7,3.3,4.8,4.1c-10.2,3.5-20.9,3-20.9,3
			c0.3,3.2-0.5,8.9-0.6,9.5c-1.5,0.3-3,0.5-4.4,0.5c-1.2,0-2.4-0.3-3.8-0.6c-3.9-1.2-9-6.8-12.9-13.2c0,0-8,5.3-11.7,11.3
			c0,0,3.2,15.5,19.7,20c0,0,1.2,0.8,3.9,1.1c2.9,0.3,7.5-0.2,13.8-3.5C604.6,318.4,603.7,318.9,603.7,318.9z"/>
		<path class="st2" d="M603.7,318.9V330c0,5.4,1.7,51.5,1.7,51.5l-3.5,1.2c-1.5,0.6-3.2,1.2-4.8,1.7c-5.3,1.5-11.3,2.4-17.2,2.7
			c-0.3-10.8-6.3-12.2-11.9,0.3c-0.6,0-1.1,0-1.7,0c3-6.5,7.5-15.7,7.5-15.7s14.1-36.1,17.6-48.8c0.2-0.6,0.3-1.2,0.5-1.8
			c2.9,0.3,7.5-0.2,13.8-3.5C604.6,318.4,603.7,318.9,603.7,318.9z"/>
		<path class="st2" d="M598.4,293.9c0-4.2-3.3-9.6-3.3-9.6s5.6,4.2,9.5,4.5c3.5,0.2,7.2-0.8,13.2-3.2c1.2,1.8,2.7,3.3,4.8,4.1
			c-10.2,3.5-20.9,3-20.9,3c0.3,3.2-0.5,8.9-0.6,9.5c-1.5,0.3-3,0.5-4.4,0.5C597.8,298.9,598.4,295.7,598.4,293.9z"/>
		<path class="st2" d="M594.2,273.3c-2.7,2-5,3.3-12.6,3.5c-6.3,0.2-12.6,1.2-16.3,2c3.2-5,6.8-5.3,9.5-5.9
			C584.7,270.7,589.1,270.9,594.2,273.3z"/>
	</g>
	<g>
		<path class="st3" d="M294.3,90.8c-2.1,10.4-9,18.8-16.4,24.4c-10.8,8-20.5,20.2-20.5,20.2s-14.1,5.4-33.7-1.5
			c-19.7-6.8-16.9-14.4-17.8-28.1c-0.9-13.7-0.6-18.8-1.8-29.6c-0.9-9-0.8-14.3,4.1-20.3c1.1-1.4,2.3-2.6,3.8-4.1
			c8.3-7.8,17-5.9,22-4.1c0,0,3.5-12.3,11.6-14c8.1-1.7,18.1-1.7,26,7.8s19,16.9,22.7,34.3C295.3,81.1,295.3,86.2,294.3,90.8z"/>
		<path class="st4" d="M294.3,90.8c-2.1,10.4-9,18.8-16.4,24.4c-10.8,8-20.5,20.2-20.5,20.2s-14.1,5.4-33.7-1.5
			c-19.7-6.8-16.9-14.4-17.8-28.1c-0.9-13.7-0.6-18.8-1.8-29.6c-0.9-9-0.8-14.3,4.1-20.3c0.8,7.4,10.7,22.1,28,18.5
			c19.7-4.1,25.7-3.2,27.7,1.4C265.3,79,282,95.6,294.3,90.8z"/>
	</g>
	<path class="st0" d="M297.3,181.7L297.3,181.7c0.3,0.3,1.1,9,2.3,19.3c0.6,5.3,1.2,11,1.8,16.3c0.3,2,0.5,3.9,0.8,5.7
		c2.3,15.8,4.8,35.1,4.8,35.1s-14.9,6-36.9,5.1c-10.1-0.5-18.1-3.3-23.8-6.3c-6.9-3.6-10.5-7.2-10.5-7.2c2.3-13.4,13.8-24.7,16-31.1
		c2.3-6.6-5.1-24.7-8.7-35.5c-3.6-11-10.5-25.9-9.5-35.5c0.2-0.8,0.2-1.5,0.5-2.3c0.5-2,1.2-3.5,2.3-4.8c3.2-4.1,8.6-5.7,14-7.1
		l13.8-2.3c0,0,4.4-2,8.3-2.7c0.8-0.2,1.5-0.3,2.3-0.3c4.2-0.3,11.6,6.5,18.7,14.3c6.9,7.8,19.9,26.2,19.9,26.2
		c-2.1,1.7-4.4,5.1-6.2,8.4c-2,3.5-3.3,6.6-3.3,6.6C301.7,182.9,297.6,181.5,297.3,181.7z"/>
	<path class="st5" d="M272.2,128.2c-2,2.7-3.8,5.6-8.4,6.2c-6.3,0.8-14.4,4.8-14.4,4.8s-8.1,1.2-13.2,1.1c3.2-4.1,8.6-5.7,14-7.1
		l13.8-2.3C263.9,130.9,268.3,129.1,272.2,128.2z"/>
	<path class="st5" d="M301.4,217.2c-4.1-0.6-9.6-1.8-15.2-4.4c-10.7-5.3-33.7-33.1-33.7-33.1l0.8,5.9c0,0,6.3,25,6.9,26
		c0.6,0.9-3.2,14.7-3.2,14.7s-6.8,10.5-9.6,19.7c-1.1,3.3-1.2,7.1-1.2,10.8c-6.9-3.6-10.5-7.2-10.5-7.2c2.3-13.4,13.8-24.7,16-31.1
		c2.3-6.6-5.1-24.7-8.7-35.5c-3.6-11-10.5-25.9-9.5-35.5c0.2-0.8,0.2-1.5,0.5-2.3c1.2,3.2,2.9,7.2,4.4,10.4
		c2.7,5.9,15.8,19.6,27.5,30.1c10.2,9,19.9,11.9,22.4,12.5c0.5,0.2,0.6,0.2,0.6,0.2c2.9,0.9,6.9,2,10.7,2.7
		C300,206.2,300.6,211.9,301.4,217.2z"/>
	<path class="st5" d="M306.6,176.8c-2,3.5-3.3,6.6-3.3,6.6c-1.8-0.6-5.7-2-6.2-1.8l-1.1-4.5c1.5-0.5,2.4-5.6,2.4-5.6L306.6,176.8z"
		/>
	<path class="st6" d="M179.2,413.4c0,8.1-0.5,11.9-0.5,11.9s-6.9,3.2-18.7,6.3c-5.9,1.7-12.8,3.2-20.8,4.5
		c-8.6,1.4-18.4,2.4-28.9,2.4c-0.8,0-1.4,0-2.1,0c-0.5,0-0.9,0-1.5,0c-8.7,0-16-0.5-21.8-0.9c-19.3-1.8-25.7-5.3-25.7-5.3
		s-7.1-40-5.6-78.9c0.6-14.9,2-27.2,3.6-37c2.7-15.7,6-24.7,7.7-26.8c0.2,0.5,0.2,0.8,0.2,0.8s11.4,5.7,45.4,4.5
		c14.9-0.6,26.2-2.3,34.2-4.1c10.2-2.3,15.2-4.7,15.2-4.7s14.6,49.7,17.5,86.2c0.2,1.8,0.3,3.5,0.5,5.3l0,0
		C179,393.7,179.2,405.6,179.2,413.4z"/>
	<path class="st7" d="M177.8,377.4c-6.5-23-15.8-42-15.8-42c-4.4,0.5-17.5-4.1-17.5-4.1l-3.9-3.6c-4.1-10.1,1.1-27.8,4.2-37.2
		c10.2-2.3,15.2-4.7,15.2-4.7s14.6,49.7,17.5,86.2C177.5,374.1,177.7,375.8,177.8,377.4z"/>
	<path class="st7" d="M179.2,413.4c0,8.1-0.5,11.9-0.5,11.9s-6.9,3.2-18.7,6.3c-5.9,1.7-12.8,3.2-20.8,4.5
		c-8.6,1.4-18.4,2.4-28.9,2.4c-0.8,0-1.4,0-2.1,0c-0.5,0-0.9,0-1.5,0c-8.7,0-16-0.5-21.8-0.9c-19.3-1.8-25.7-5.3-25.7-5.3
		s-7.1-40-5.6-78.9c0.6-14.9,2-27.2,3.6-37c0.6,11.4,1.8,26.8,4.2,38.7c4.5,21.5,20,55.7,21.5,55.7s20,21.4,53.7,17.9
		C161.4,426,174.1,417.8,179.2,413.4z"/>
	<path class="st8" d="M185.5,240c0,0-4.1,3.3-6.6,10.1c-0.5,1.1-0.8,2.1-1.1,3.2c-1.5,4.7-1.8,7.2-1.8,7.2
		c-12.5-2.4-18.4-7.8-20.6-11.6c-0.5-0.9-0.8-2-1.4-2.7c0,0.2,0.5,1.2,1.4,2.7c4.7,11.6,4.7,30.4,4.5,35.8c0,0.9,0,1.5,0,1.5
		s-15.5,7.4-49.4,8.7c-33.9,1.4-45.4-4.5-45.4-4.5s0-0.3-0.2-0.8c-0.8-3.2-3.3-16-3.3-32.2c0-18.8,5.6-50.4,16.9-68.5
		c2.7-4.2,5.3-7.7,8-10.4c8.7-8.9,17-10.5,22.9-10.8c14.4-0.5,24.1,3.3,31.1,8.7c5.4,4.2,9.3,9.5,12.6,14.3
		c7.7,11.1,20.2,37.3,22.9,41.2C178.7,235.8,185.5,240,185.5,240z"/>
	<path class="st9" d="M102,232.5c0,0,6.3,21.5,21.8,20.2c0,0-8.4,3-12.3,1.8c0,0,1.8,8,3.5,8.3c0,0-4.7-0.8-5.4-3.2
		C108.9,257.3,102.7,235.7,102,232.5z"/>
	<path class="st9" d="M130.6,278.6c-5.9,0.3-27.4-0.6-32.8-3.8c-5.4-3.2-15.7-16.9-17.3-28.1c-1.5-11.4-2.4-45.3-2.4-45.3
		s-5,2.4-6,16.3c-1.1,13.8,2.7,40.9,9,52.2c6.3,11.3,19.4,19,50.9,16.3L130.6,278.6z"/>
	<path class="st9" d="M155.4,248.8c4.7,11.6,4.7,30.4,4.5,35.8c-2-10.5-5-25.9-5.9-30.1c-1.5-6.5-5-6.6-5.3-6.6
		c7.4-1.4,11.7-9.6,11.7-9.6c2.4,6.3,14,13.1,17.2,14.9c-1.5,4.7-1.8,7.2-1.8,7.2C163.5,257.9,157.7,252.7,155.4,248.8z"/>
	<path class="st9" d="M140.5,176.4c-3.2,3-8.4,5.6-21.4,6.5c-12.6,0.9-25.3-2.3-32.5-4.5c8.7-8.9,17-10.5,22.9-10.8
		C123.9,167.1,133.6,171,140.5,176.4z"/>
	
		<linearGradient id="SVGID_1_" gradientUnits="userSpaceOnUse" x1="48.9492" y1="284.4277" x2="163.6308" y2="284.4277" gradientTransform="matrix(1 0 0 -1 0 396)">
		<stop  offset="1.003910e-02" style="stop-color:#FCD69A"/>
		<stop  offset="0.995" style="stop-color:#EFE2D5"/>
	</linearGradient>
	<path class="st10" d="M161.4,140c-2.3,5.6-6.8,8.1-11,9.2c-5.3,1.4-10.1,0.5-10.1,0.5c7.2-8.1,8.1-16.6,5.3-27.4
		c-2.9-10.8-8.4-35.5-37.2-32.1c-6.2,0.8-16.7,3.2-21.8,11.9c-5.1,9-4.1,24.4-4.1,24.4s-3.2-5.1-7.2-5.3c-0.6,0-1.4,0.2-2.1,0.3
		c-5,2.1-5.6,8.1,1.1,12.9c1.5,1.1,2.9,2,4.2,2.4c4.2,2,7.1,1.2,7.1,1.2s3.2,9.8,15.5,15.7c-0.6,1.8-2.4,5.3-8.6,8.9
		c-9.2,5.6-27.2,4.5-36.6-3.9c-5-4.5-6.9-10.8-6.8-16.7c0.3-5.1,2.3-9.9,5.6-12.5c7.1-5.7,11-4.7,12.6-13.2c1.8-8.6-8-9.5-5.9-22.1
		c2.3-12.6,15.8-12.3,25.4-14.1c9.8-1.8,14.3-13.1,27.5-19.9s23.6-0.3,28.6,4.7c1.7,1.7,3.8,4.2,4.4,10.2c0.2,1.1,0.2,2.3,0.2,3.6
		c-0.2,8.6-10.4,11.1-10.4,11.1c0.2,6.2,9.5,19.3,16,25.7c1.1,1.1,2.1,2,3,2.6C162,122.5,166.5,127.5,161.4,140z"/>
	<path class="st11" d="M100.9,153.8c-0.6,1.8-2.4,5.3-8.6,8.9c-9.2,5.6-27.2,4.5-36.6-3.9c-5-4.5-6.9-10.8-6.8-16.7
		c4.8,4.5,13.1,10.1,23.2,7.5c10.8-2.9,8.9-6.8,6.2-12.6c4.2,2,7.1,1.2,7.1,1.2S88.6,147.9,100.9,153.8z"/>
	<path class="st11" d="M150.4,149.3c-5.3,1.4-10.1,0.5-10.1,0.5c7.2-8.1,8.1-16.6,5.3-27.4c-2.9-10.8-8.4-35.5-37.2-32.1
		c-6.2,0.8-16.7,3.2-21.8,11.9c-5.1,8.9-4.1,24.2-4.1,24.2s-3.2-5.1-7.2-5.3c0.9-12.6,7.2-31.1,24.7-32.4c15.2-1.1,40-3.3,47.4-13.8
		c0.2,1.1,0.2,2.3,0.2,3.6c-0.2,8.6-10.4,11.1-10.4,11.1c0.2,6.2,9.5,19.3,16,25.7C149.8,124.9,146.4,138.9,150.4,149.3z"/>
	<path class="st12" d="M637.2,278.4c-1.1,2.3-2.4,4.1-3.8,5.3c-3,2.7-6.9,4.7-10.8,6c-2.1-0.8-3.6-2.3-4.8-4.1
		c-2.1-3.2-2.9-7.4-3.2-10.8c3.6-1.4,7.1-3.3,9.6-5.9c6.6-6.8,1.4-20,1.4-20s-8,0.5-9.2-1.2s5.7-1.4,5.7-1.4s-10.5-3.5-10.5-5.7
		c0-1.1,2.3-0.6,4.5,0.3c-2.7-1.2-5.7-2.9-5.4-3.6c0.9-2,6.9,1.1,9.6,2.6c-1.8-1.1-5-3.2-4.7-4.4c0.5-1.7,8.7,4.4,8.7,3.9
		c0-0.5-3-2.4-2.4-4.2c0.2-0.5,2.6,0.6,5.6,2.9c2.7,2,5.7,5,8.1,8.7C642.1,257.3,641,270.4,637.2,278.4z"/>
	<path class="st3" d="M594.7,208.7c-2.9-2.7-9.8-8.9-23-5.1c-13.2,3.9-19.4,11.4-20.5,23.6c-1.2,12.2-1.5,12.9-4.8,19.1
		c-3.3,6.3-3.8,12.6,3.9,17c7.5,4.4,19.1,4.8,29.5,3.3c10.2-1.5,21.5,2.3,28.7-4.4c7.2-6.6,4.8-9.5,5.3-17
		c0.5-7.5,2.9-20.6-0.9-28.7c-3.8-8.1-7.5-6.9-11-7.7C598.3,208,594.7,208.7,594.7,208.7z"/>
	<path class="st12" d="M607.7,249.1c0,0,2.6-15-2.3-22.3c-4.7-6.9-13.7-10.1-20.6-9.2c-0.3,0-0.6,0.2-0.9,0.2c0,0-3.5,7.5-9.6,13.4
		c-6.2,6-12.8,11.1-12.8,11.1c-1.1-0.5-6.6-4.8-9.8,0s5.4,11.3,10.8,10.2c0,0,1.4,7.4,9.3,11.9c0.8,0.5,1.7,0.9,2.7,1.4
		c1.1,0.5,2.3,0.9,3.5,1.2c2.3,0.6,4.5,0.9,6.6,1.2c10.4,1.1,18.7-2,21.8-5C610.3,259.5,610.3,253.9,607.7,249.1z"/>
	<path class="st13" d="M576.4,233.3c-2.7,3.9-8.3,20-2,32.7c-10.2-4.2-11.9-13.2-11.9-13.2c-5.3,1.1-14-5.4-10.8-10.2
		c3.2-4.8,8.7-0.5,9.8,0c0,0,6.6-5.3,12.8-11.1c6.2-6,9.6-13.4,9.6-13.4c0.3,0,0.6-0.2,0.9-0.2C583.4,222.4,579,229.7,576.4,233.3z"
		/>
	<g>
		<path class="st12" d="M376.6,195.5c-2.3-0.9-10.1,1.4-12.8,2.3c-0.6,0.2-0.9,0.3-0.9,0.3s-4.1-0.8-16-2.6
			c-11.9-2-43.3-12.2-43.3-12.2c1.1-2.4,2-4.5,3-6.3c3.5-6.2,6.5-8.6,6.5-8.6l52.1,24.1C370.7,192.6,376.3,195.3,376.6,195.5z"/>
		<path class="st13" d="M364.1,197.3l-0.3,0.6c-0.6,0.2-0.9,0.3-0.9,0.3s-4.1-0.8-16-2.6c-11.9-2-43.3-12.2-43.3-12.2
			c1.1-2.4,2-4.5,3-6.3C322.1,183.6,364.1,197.3,364.1,197.3z"/>
	</g>
	<g>
		<path class="st12" d="M275.6,97.8c-0.5,6-4.4,14.6-11.9,19.6c-1.7,1.1-3.6,2.1-5.6,2.9c-2.4,0.9-5.3,1.4-8.3,1.4
			c-2,0-3.8-0.2-5.6-0.6c-13.5-2.7-22.7-14.6-22.7-14.6c-3.2,0.3-6-0.5-8.3-1.8c-6.5-3.9-8.6-12.9-5.1-15.5l0,0
			c4.5-3.3,10.4,1.7,10.4,1.7s-1.7-13.5,0.9-21.7c0.6-1.8,1.4-3.6,2.3-5.3c3.3-5.9,9.2-10.5,17.3-10.7c10.7-0.3,19.1,0.6,25.4,12.3
			C271.3,77.2,276.2,88.8,275.6,97.8z"/>
		<path class="st13" d="M258.2,120.3c-2.4,0.9-5.3,1.4-8.3,1.4c-2,0-3.8-0.2-5.6-0.6c-13.5-2.7-22.7-14.6-22.7-14.6
			c-3.2,0.3-6-0.5-8.3-1.8c-0.8-4.5-2.3-10.8-5.1-15.5c4.5-3.3,10.4,1.7,10.4,1.7s-1.7-13.5,0.9-21.7c0.6-1.8,1.4-3.6,2.3-5.3
			c-2,12.3-0.2,24.2,5.3,33.9C232.9,107.6,242.1,120.4,258.2,120.3z"/>
	</g>
	<g>
		<path class="st12" d="M140.4,149.8c-4.1,4.5-9.8,7.5-16.7,8.3c-1.5,0.2-3.2,0.2-4.8,0.2c-4.2-0.2-8.9-1.1-14-2.7
			c-1.5-0.5-2.9-1.1-4.1-1.7l0,0c-12.3-5.9-15.5-15.7-15.5-15.7s-4.7,1.2-11.3-3.6c-6.6-4.8-6-11-1.1-12.9c5-2.1,9.3,5,9.3,5
			s-0.8-15.5,4.4-24.2c0.9-1.5,2-2.9,3.2-4.1c5.6-5.4,13.5-7.2,18.7-7.8c28.7-3.5,34.2,21.2,37.2,32.1
			C148.5,133.2,147.6,141.6,140.4,149.8z"/>
		<path class="st13" d="M118.8,158.2c-4.2-0.2-8.9-1.1-14-2.7c-1.5-0.5-2.9-1.1-4.1-1.7l0,0c-12.3-5.9-15.5-15.7-15.5-15.7
			s-4.7,1.2-11.3-3.6s-6-11-1.1-12.9c5-2.1,9.3,5,9.3,5s-0.8-15.5,4.4-24.2c0.9-1.5,2-2.9,3.2-4.1c-1.5,9-3.5,25-0.6,35.4
			C92.2,144.8,105,155.2,118.8,158.2z"/>
	</g>
	<g>
		<path class="st12" d="M223,260.4c-2.4,4.8-5.9,8-7.2,6.5c-0.6-0.6-0.5-1.4-0.2-2.1c-1.1,1.4-2.3,2.6-2.7,2c-0.9-1.1,1.5-6,1.7-6.3
			c-1.5,3-11.4,2.7-11.4,2.7c-13.8,0.9-26.9-2.7-26.9-2.7c0.2-3.6,0.9-6.8,2-9.5c2.7-7.4,7.5-10.8,7.5-10.8l20.5,6.6
			c0,0,9.5-0.5,13.1,1.8C222.7,250.6,225.5,255.7,223,260.4z"/>
		<path class="st13" d="M213,266.7c-0.9-1.1,1.5-6,1.7-6.3c-1.5,3-11.4,2.7-11.4,2.7c-13.8,0.9-26.9-2.7-26.9-2.7
			c0.2-3.6,0.9-6.8,2-9.5c6.2,2.3,18.7,6.5,25.6,6.9c9.6,0.6,12.5-0.9,12.5-0.9S216.8,262.2,213,266.7z"/>
	</g>
	<g>
		<path class="st12" d="M106.9,438.5l-24.7,52.2l-5-1.4l-0.5-0.2c0,0-1.7-19.3,0.8-33.7c1.7-10.2,5.4-15.8,7.4-18.1
			c3,0.3,6.3,0.5,9.9,0.6C98.7,438.4,102.6,438.5,106.9,438.5z"/>
		<path class="st13" d="M95.1,438.2c0,0-8.7,8-12.2,17.3c-2.7,7.1-4.7,25.3-5.4,33.9l-0.5-0.2c0,0-1.7-19.3,0.8-33.7
			c1.7-10.2,5.4-15.8,7.4-18.1C88.1,437.9,91.4,438.1,95.1,438.2z"/>
	</g>
	<path class="st14" d="M217.7,330.9c-17.5,2.4-35.5,0.9-48.2-1.1c-10.2-1.5-16.9-3.5-16.9-3.6c0-0.6-2-8.6,0-24.2
		c1.2-10.2,3.5-18.5,6.3-25.7c0.2-0.5,0.3-0.9,0.6-1.4c1.4-3.3,2.9-6.5,4.5-9.3c1.5-2.6,3.8-2.6,3.8-2.6s11.3,4.5,20.2,5.3
		c0.2,0,0.5,0,0.6,0c9,0.8,24.5,0.6,24.5,0.6c1.5,3.3,2.6,7.7,3.3,12.3c0.2,0.5,0.2,0.9,0.3,1.5
		C219.8,303.2,217.7,330.9,217.7,330.9z"/>
	<g>
		<path class="st12" d="M160.1,431.6l-6.6,57.8l-5.4,3c0,0-0.9-2.1-2.1-5.4c-2.7-7.1-7.1-19.7-8.4-29.2c-1.5-10.7,0.5-18.2,1.8-21.8
			c3.3-0.6,6.5-1.1,9.3-1.8C152.8,433.6,156.6,432.5,160.1,431.6z"/>
		<path class="st13" d="M144.4,462c0.6,8.6,1.2,18.8,1.5,25c-2.7-7.1-7.1-19.7-8.4-29.2c-1.5-10.7,0.5-18.2,1.8-21.8
			c3.3-0.6,6.5-1.1,9.3-1.8C145.8,441.4,143.7,451.8,144.4,462z"/>
	</g>
	<path class="st12" d="M548.6,395.9c0,0-4.2,4.7-2.9,19.3c1.4,14.6,4.8,17.5,4.8,17.5h3.3c0,0,2.9-15.5,8.6-31.5
		c1.5-4.4,3.6-9.3,5.7-14.1c-8.4-0.2-15.5-0.9-19-1.4C548.6,392.6,548.6,395.9,548.6,395.9z"/>
	<path class="st12" d="M580.7,399.7c0,0-2.1,3.3-2.3,14c-0.2,10.7,0.6,20.2,0.6,20.2h2.9c0,0,8.7-17.6,11.9-33
		c0.9-4.4,2.1-10.2,3.5-16.7c-5.3,1.5-11.3,2.4-17.2,2.7C580.2,392.5,580.4,397.3,580.7,399.7z"/>
	<path class="st15" d="M106.9,438.5L106.9,438.5L106.9,438.5z"/>
	<path class="st16" d="M381.1,486.7l-2.3,1.7l-1.4,1.1c0,0-44.1-34.9-50.6-56.7c-6.5-21.8,0-31,0-31s-13.8-20.8-23.2-38.5
		c-7.8-14.9-21.5-40.2-25.7-47.9c-0.5-0.9-0.8-1.5-1.1-2l0,0c-0.2-0.3-0.2-0.5-0.2-0.5s-0.5,2-1.1,4.8c-0.2,0.5-0.3,1.1-0.3,1.5l0,0
		c-1.1,4.8-2.6,11.6-3.8,17.9c-2.3,11.3-14.3,65.9-15.2,67.7c-0.9,1.8-47.1,33.9-64.6,48.3c-17.5,14.4-42.9,33.9-42.9,33.9
		s-3.6-3.6-4.5-4.8c-0.2-0.2-0.2-0.3-0.2-0.3c0.2-0.5,32.4-57.9,48.3-76.1c0.9-0.9,1.7-1.8,2.4-2.6c14.9-14.4,39.9-13.8,40-13.4
		c0-0.3-8-40.2-9.2-72.8c-1.7-48,8.3-65.9,9.8-67.4c0,0,3.3,3.5,9.6,6.9c5.9,3.2,14.1,6.3,24.7,6.6c22,0.9,36.9-5.1,36.9-5.1
		s37.9,124.6,41.4,138.1C351.8,409.8,381.1,486.7,381.1,486.7z"/>
	<path class="st17" d="M144.4,481.9c0,0-6.6,4.4-8.4,10.1l26.3,9.9l-13.2-16L144.4,481.9z"/>
	<path class="st17" d="M377.5,489.4c0,0-0.3,6.3,0,7.2c0,0,20,0.8,25.9-1.7l-22.3-8.3L377.5,489.4z"/>
	<path class="st0" d="M77,489.4c-0.8,0.3-2.3,3.3-2.3,7.5c0,0,14.6,2,21.7,1.7l-14.1-7.7L77,489.4z"/>
	<path class="st18" d="M550.6,432.7c0,0,4.4-3.6,8.4-3.5c4.1,0.2,5,4.7,5,4.7L550.6,432.7z"/>
	<path class="st19" d="M579,433.9c0,0,4.8-4.7,8.7-4.7s6.3,4.7,6.3,4.7H579z"/>
	<path class="st18" d="M609.4,398.2c-0.2,3.5-0.5,6.9-1.1,10.4c-0.2,0.6-0.3,1.4-0.5,2l0,0c-1.2,5.4-3.2,10.5-5.7,14.4
		c-0.2,0.2-0.3,0.5-0.5,0.6c-1.5,2.1-3.2,3.8-5.1,4.8c-8.1,5-21.5,4.7-28.1-1.2c-0.2-0.2-0.3-0.3-0.6-0.5c-0.2-0.2-0.3-0.3-0.5-0.5
		c-3.5-3.8-5.1-9.6-4.8-17.5l0,0c0-0.6,0-1.2,0.2-1.8l0,0c0.3-4.4,1.2-9.3,2.6-14.9c0.2-0.5,0.2-0.8,0.3-1.2
		c0.2-0.3,0.2-0.6,0.3-0.9c1.5-5.1,3.5-8.7,5.6-11.4c0.2-0.2,0.3-0.3,0.5-0.6c5.6-6,12.9-5.6,19.7-4.8c10.8,1.2,15.3,6,16.9,13.7
		c0,0.2,0,0.5,0.2,0.6c0.3,1.5,0.5,3.2,0.5,5c0,0.3,0,0.6,0,0.9C609.4,396.5,609.4,397.3,609.4,398.2z"/>
	<path class="st20" d="M581.7,374.9c-0.2-0.2-4.5-8.4-5.9-16.1c-1.2-7.7-1.7-10.4-0.9-10.2c0.8,0.2,6.8,3.9,10.4,17.2
		c0,0-2.6-12.3-1.8-14c0.9-1.7,5,6,5,6s3.3-12.5,5.3-13.2c2.1-0.8,2.3,5.1,1.2,14.3c-1.1,9.2-2,14.3-2,14.3s3.6-7.8,7.7-12.9
		c4.1-5.1,12.8-11.1,13.5-9.5c0.9,1.7-15,22.1-15,21.8c0-0.3,13.8-9.2,17.3-9.5s2.9,2.7-0.9,5.3c-3.8,2.6-17.5,8.4-17.5,8.4
		s-3.6-0.9-8.4-1.4C585,374.9,581.7,374.9,581.7,374.9z"/>
	
		<linearGradient id="SVGID_2_" gradientUnits="userSpaceOnUse" x1="534.3907" y1="-9.4207" x2="554.1948" y2="-9.4207" gradientTransform="matrix(1 0 0 -1 0 396)">
		<stop  offset="1.953000e-05" style="stop-color:#F6413C"/>
		<stop  offset="0.995" style="stop-color:#F53347"/>
	</linearGradient>
	<path class="st21" d="M534.5,405.4c0-5.4,4.4-9.9,9.9-9.9s9.9,4.4,9.9,9.9c0,5.4-4.4,9.9-9.9,9.9S534.5,411,534.5,405.4z"/>
	
		<linearGradient id="SVGID_3_" gradientUnits="userSpaceOnUse" x1="523.2278" y1="-25.6728" x2="541.7672" y2="-25.6728" gradientTransform="matrix(1 0 0 -1 0 396)">
		<stop  offset="1.953000e-05" style="stop-color:#F6413C"/>
		<stop  offset="0.995" style="stop-color:#F53347"/>
	</linearGradient>
	<path class="st22" d="M523.2,421.7c0-5.4,3.2-9.9,8.6-9.9s9.9,4.4,9.9,9.9c0,5.4-4.4,9.9-9.9,9.9
		C526.3,431.5,523.2,427.1,523.2,421.7z"/>
	
		<linearGradient id="SVGID_4_" gradientUnits="userSpaceOnUse" x1="543.0412" y1="-27.3281" x2="562.8452" y2="-27.3281" gradientTransform="matrix(1 0 0 -1 0 396)">
		<stop  offset="1.953000e-05" style="stop-color:#F6413C"/>
		<stop  offset="0.995" style="stop-color:#F53347"/>
	</linearGradient>
	<path class="st23" d="M543,423.3c0-5.4,4.4-9.9,9.9-9.9c5.4,0,9.9,4.4,9.9,9.9c0,5.4-4.4,9.9-9.9,9.9
		C547.4,433.1,543,428.7,543,423.3z"/>
	<g>
		<g>
			<path class="st24" d="M122.7,136.7c-2.6,0-3.3-0.8-3.5-0.8c-0.2-0.2-0.2-0.3,0-0.3l0.9-1.5c0.2-0.2,0.3-0.2,0.5-0.2
				c0.2,0.2,0.2,0.3,0.2,0.5l-0.8,1.4c0.5,0.3,2.3,0.9,6.2,0.2c3.2-0.6,5-1.8,5.3-3.2c-0.2-0.2-0.8-0.9-1.4-1.5
				c-2-2.1-5.9-6.2-8-10.2c-2.1-3.6-2.3-6.9-0.6-9.8c0,0,0-0.2,0.2-0.2c0-0.2,0.3-0.2,0.5-0.2c0.2,0,0.2,0.3,0.2,0.5
				c0,0,0,0.2-0.2,0.2c-1.5,2.7-1.2,5.9,0.6,9.2c2.3,3.9,6,7.8,8,10.1c1.5,1.7,1.7,1.7,1.5,2c-0.3,1.8-2.3,3-5.9,3.8
				C124.7,136.5,123.6,136.7,122.7,136.7z"/>
		</g>
		<g>
			<path class="st25" d="M107.2,133.3c-5.6,0-9.9-4.5-9.9-9.9c0-5.6,4.5-9.9,9.9-9.9c5.6,0,9.9,4.5,9.9,9.9S112.7,133.3,107.2,133.3
				z M107.2,113.9c-5.1,0-9.3,4.2-9.3,9.3c0,5.1,4.2,9.3,9.3,9.3c5.1,0,9.3-4.2,9.3-9.3S112.4,113.9,107.2,113.9z"/>
		</g>
		<g>
			<path class="st25" d="M134.5,127.3c-5.6,0-9.9-4.5-9.9-9.9c0-5.6,4.5-9.9,9.9-9.9s9.9,4.5,9.9,9.9S139.9,127.3,134.5,127.3z
				 M134.5,107.9c-5.1,0-9.3,4.2-9.3,9.3c0,5.1,4.2,9.3,9.3,9.3c5.1,0,9.3-4.2,9.3-9.3C143.8,112.1,139.6,107.9,134.5,107.9z"/>
		</g>
		<g>
			<path class="st25" d="M116,119.7c-0.2,0-0.2,0-0.3-0.2c0-0.2,0-0.2,0-0.5c0.3-0.5,3-2.4,9-2.1c0.2,0,0.3,0.2,0.3,0.3
				c0,0.2-0.2,0.3-0.3,0.3c-5.6-0.3-8.1,1.5-8.4,1.8C116.3,119.5,116.3,119.7,116,119.7C116.1,119.7,116,119.7,116,119.7z"/>
		</g>
		<g>
			<path class="st25" d="M80.9,124.6c-0.2,0-0.3-0.2-0.3-0.3c0-0.2,0.2-0.3,0.3-0.3l16.7-1.4c0.2,0,0.3,0.2,0.3,0.3
				s-0.3,0.5-0.5,0.5L80.9,124.6L80.9,124.6z"/>
		</g>
		<g>
			<path class="st24" d="M80.9,132.7c-0.2,0-0.2,0-0.3-0.2c-0.8-1.8-2.6-4.2-5.1-6.6l-0.2-0.2c-0.2-0.2-0.2-0.3,0-0.5
				c0.2-0.2,0.3-0.2,0.5,0l0.2,0.2c1.5,1.5,4.2,4.2,5.3,6.9C81.2,132.4,81.1,132.6,80.9,132.7L80.9,132.7z"/>
		</g>
		<g>
			<path class="st24" d="M77,132c-0.5,0-0.8-0.2-1.2-0.5c-0.5-0.3-0.6-0.8-0.6-1.2c0-0.9,1.2-1.8,1.8-2.3c0.2-0.2,0.3-0.3,0.3-0.3
				c0.2-0.2,0.3-0.2,0.5,0c0.2,0.2,0.2,0.3,0,0.5c-0.2,0.2-0.3,0.2-0.5,0.5c-0.6,0.5-1.5,1.2-1.5,1.8c0,0.3,0.2,0.5,0.3,0.8
				c0.3,0.3,0.6,0.3,0.9,0.3c1.1-0.2,2-1.5,2-1.7c0.2-0.2,0.3-0.2,0.5-0.2c0.2,0.2,0.2,0.3,0.2,0.5c0,0-1.2,1.7-2.4,1.8
				C77.1,132,77,132,77,132z"/>
		</g>
		<g>
			<path class="st26" d="M123.9,148.7c-0.3,0-0.5,0-0.8,0c-2.3-0.2-3.8-1.1-3.9-1.2s-0.2-0.3-0.2-0.5c0.2-0.2,0.3-0.2,0.5-0.2
				c0,0,1.5,0.9,3.6,1.1c2.9,0.2,5.7-0.9,8.3-3.5c0.2-0.2,0.3-0.2,0.5,0s0.2,0.3,0,0.5C128.9,147.9,126.1,148.7,123.9,148.7z"/>
		</g>
	</g>
	<g>
		<path class="st24" d="M217.1,100.4c-0.2,0-0.2,0-0.3-0.2c-2.3-5.1-5.9-6.6-5.9-6.6c-0.2,0-0.2-0.3-0.2-0.5c0-0.2,0.3-0.2,0.5-0.2
			c0.2,0,3.9,1.7,6.2,6.9C217.4,100.1,217.4,100.4,217.1,100.4C217.2,100.4,217.1,100.4,217.1,100.4z"/>
	</g>
	<g>
		<path class="st24" d="M213.3,100.1c-0.3,0-0.6-0.2-0.9-0.5c-1.5-1.5,0.9-4.1,1.4-4.5c0.2-0.2,0.3-0.2,0.5,0c0.2,0.2,0.2,0.3,0,0.5
			c-0.2,0.2-2.6,2.6-1.4,3.6c0.2,0.2,0.3,0.3,0.6,0.3c0.8-0.2,1.8-1.5,2.3-2c0.2-0.2,0.3-0.2,0.5-0.2c0.2,0.2,0.2,0.3,0.2,0.5
			C215.9,98.1,214.7,100.1,213.3,100.1L213.3,100.1z"/>
	</g>
	<g>
		<path class="st24" d="M255.3,101.1c-1.2,0-2.7-0.2-4.2-0.6c-0.2,0-0.3-0.2-0.2-0.3c0-0.2,0.2-0.3,0.3-0.2
			c7.2,2.3,10.5-1.8,11.3-2.7c-0.8-0.8-3.5-3.5-6.6-8c-3.8-5.3-2.9-12-2.7-12.5c0-0.2,0.3-0.2,0.5-0.2c0.2,0,0.2,0.2,0.2,0.3
			c-0.2,0.6-0.9,6.9,2.7,11.9c3.6,5.1,6.8,8,6.8,8c0.2,0.2,0.2,0.3,0,0.3C263,97.4,260.7,101.1,255.3,101.1z"/>
	</g>
	<g>
		<path class="st26" d="M252.3,110.9c-3.3,0-6-0.8-6.2-0.9c-0.2,0-0.3-0.2-0.2-0.3c0-0.2,0.2-0.3,0.3-0.2c0.2,0,8.3,2.4,14.1-1.2
			c0.2-0.2,0.3,0,0.5,0.2c0.2,0.2,0,0.3-0.2,0.5C257.9,110.3,254.9,110.9,252.3,110.9z"/>
	</g>
	<path class="st27" d="M225.4,84c0-0.2,1.5-3.3,5.7-6c4.4-2.7,9.9-3,10.2-1.1c0.3,2.1-3.9,1.7-8,3.3C229.3,81.7,225.4,84,225.4,84z"
		/>
	<path class="st27" d="M268,71.7c0.5,0-3.2-2.3-8.4-2.1c-5.3,0.2-6.6,3-5.9,4.4S263.3,71.2,268,71.7z"/>
	<path class="st28" d="M92.6,117.2c0.2-1.4,2.6-5,5.7-7.4c3-2.3,8.4-1.7,8.9,0.3c0,0-2.3,0.5-6.8,2.7C96,115,92.6,117.2,92.6,117.2z
		"/>
	<path class="st28" d="M122.4,107.6c-1.8-0.2-0.5-3.8,4.2-4.7c4.5-0.8,9.3,1.7,9.3,1.7s-4.4,0.5-7.7,1.5
		C125,107.2,123.3,107.8,122.4,107.6z"/>
	<g>
		<path class="st24" d="M559.9,249.7c-0.2,0-0.2,0-0.3-0.2c-0.9-1.8-4.5-5.4-5-5.6c-0.2,0-0.2-0.2-0.2-0.3c0-0.2,0.2-0.2,0.3-0.2
			c0.6,0.2,4.4,3.9,5.3,5.9C560.2,249.4,560.2,249.5,559.9,249.7C560,249.7,560,249.7,559.9,249.7z"/>
	</g>
	<g>
		<path class="st24" d="M557,248.5c-0.3,0-0.6-0.2-0.9-0.3c-0.5-0.3-0.6-0.6-0.6-0.9c0-0.6,0.6-1.1,1.1-1.5c0.2-0.2,0.3-0.2,0.3-0.3
			c0.2-0.2,0.3-0.2,0.3,0c0.2,0.2,0.2,0.3,0,0.3c-0.2,0.2-0.3,0.2-0.5,0.3c-0.3,0.3-0.9,0.8-0.9,1.1c0,0.2,0.2,0.3,0.3,0.5
			c0.3,0.2,0.6,0.3,0.8,0.2c0.6-0.2,0.9-0.9,0.9-0.9c0-0.2,0.2-0.2,0.3-0.2s0.2,0.2,0.2,0.3c0,0-0.5,1.1-1.4,1.2
			C557.2,248.5,557.2,248.5,557,248.5z"/>
	</g>
	<g>
		<g>
			<path class="st24" d="M594.4,254.6c-2.6,0-3.6-1.5-3.6-1.5c-0.2-0.2,0-0.3,0.2-0.3s0.3,0,0.3,0.2c0,0,1.1,1.7,4.1,1.2
				c2.4-0.3,3.5-1.7,3.8-2.1c-0.6-0.6-2.4-2.7-3.9-6.5c-1.7-4.2,1.8-8.1,2.1-8.6l0.2-0.3c0-0.2,0.3-0.2,0.3-0.2
				c0.2,0,0.2,0.3,0.2,0.3l-0.2,0.3l0,0c0,0-3.8,3.9-2.1,8c1.7,4.2,3.9,6.3,4.1,6.3c0.2,0.2,0.2,0.2,0,0.3c0,0.2-1.1,2.3-4.4,2.6
				C595,254.5,594.7,254.6,594.4,254.6z"/>
		</g>
	</g>
	<path class="st29" d="M574.9,235.8c-0.2-0.9,2.7-3,7.7-3.9c5-0.9,6.5,1.5,5.6,2.7c-0.9,1.2-4.4,0-7.1,0.2
		C578.3,234.9,574.9,235.8,574.9,235.8z"/>
	<path class="st29" d="M598.6,234.9c-0.8-0.8,0.9-2.9,3.5-2.1c2.6,0.8,5.7,3.5,5.7,3.6c0,0.2-2.6-0.2-4.8-0.8
		C600.7,235.2,599.2,235.5,598.6,234.9z"/>
	<g>
		<path class="st8" d="M285,205.3h-0.2c-20-7.8-43.3-36.1-46.2-43.5c-0.2-0.3,0-0.6,0.3-0.8c0.3-0.2,0.6,0,0.8,0.3
			c2.9,7.1,25.7,35.1,45.6,42.7c0.3,0.2,0.5,0.5,0.3,0.8C285.4,205.1,285.1,205.3,285,205.3z"/>
	</g>
	<g>
		<path class="st8" d="M296.1,184.8c-0.2,0-0.2,0-0.3-0.2c-0.2-0.2-4.5-2.7-8.9-7.7c-4.4-4.8-26.9-29.2-27.2-29.3
			c-0.2-0.3-0.2-0.6,0-0.8c0.3-0.2,0.6-0.2,0.8,0c0.3,0.3,22.9,24.5,27.2,29.5c4.2,4.8,8.6,7.4,8.6,7.5c0.3,0.2,0.3,0.5,0.2,0.8
			C296.6,184.7,296.3,184.8,296.1,184.8z"/>
	</g>
	<g>
		<path class="st8" d="M297.6,184.8c-0.3,0-0.6-0.2-0.6-0.5c-0.5-2.9-1.1-6.2-1.4-6.8c-0.5-0.5-0.2-1.1,0.5-2
			c0.9-1.7,2.6-4.7,2.4-8.6c-0.2-4.7-3.8-8.7-5.3-10.4c-0.3-0.5-0.6-0.6-0.8-0.9s-0.2-0.6,0.2-0.8s0.6-0.2,0.8,0.2
			c0,0.2,0.3,0.5,0.6,0.8c1.7,1.8,5.4,6,5.6,11.1c0.2,4.4-1.7,7.5-2.6,9.2c-0.2,0.3-0.5,0.6-0.5,0.9c0.3,0.5,0.6,2,1.4,7.1
			C298.4,184.4,298.1,184.7,297.6,184.8C297.8,184.7,297.8,184.8,297.6,184.8z"/>
	</g>
	<g>
		<path class="st0" d="M122.4,287c-2.9,0-6.2-0.2-9.5-0.3c-6.2-0.5-14.6-1.5-19-3.9c-8-4.4-15.7-11-19.3-29.9
			c-3.5-19-3.2-41.8-1.7-46.5c0.2-0.3,0.5-0.5,0.8-0.3c0.3,0.2,0.5,0.5,0.3,0.8c-1.5,4.4-1.7,27.4,1.8,45.9
			c3.3,17.5,9.8,24.2,18.7,29.2c7.8,4.4,30.1,4.5,36.1,3.8c0.3,0,0.6,0.2,0.6,0.5s-0.2,0.6-0.5,0.6C128.9,286.8,126.1,287,122.4,287
			z"/>
	</g>
	<g>
		<path class="st0" d="M131.5,264.6c-7.1,0-17-0.5-21.2-2.7c-0.2,0-0.2-0.2-0.3-0.3c0-0.2-4.7-10.8-8-26.8
			c-3.5-16.9-6.2-28.4-11.3-36.6c-0.2-0.3-0.2-0.6,0.2-0.8c0.3-0.2,0.6-0.2,0.8,0.2c5.1,8.1,7.8,19.9,11.4,36.9
			c3,14.6,7.2,24.8,7.8,26.3c6.6,3.3,27.7,2.3,27.8,2.3c0.3,0,0.6,0.3,0.6,0.6s-0.3,0.6-0.6,0.6
			C138.5,264.4,135.5,264.6,131.5,264.6z"/>
	</g>
	<g>
		<path class="st0" d="M114.6,255.1c-6.6,0-8.3-3.8-8.4-3.9c-0.2-0.3,0-0.6,0.3-0.8c0.3-0.2,0.6,0,0.8,0.3c0,0.2,1.8,4.1,9.9,3
			c8.3-1.1,9.9-3.8,9.9-3.8c0.2-0.3,0.5-0.5,0.8-0.2c0.3,0.2,0.5,0.5,0.3,0.8c0,0.2-1.8,3.2-10.8,4.4
			C116.3,255.1,115.4,255.1,114.6,255.1z"/>
	</g>
	<g>
		<path class="st0" d="M154.2,246.7c-0.2,0-0.5-0.2-0.5-0.3c-0.2-0.3,0-0.6,0.2-0.8c0,0,5.6-3.3,7.2-10.2
			c1.8-7.7-7.4-24.8-14.4-33.7c-0.2-0.3-0.2-0.6,0.2-0.8c0.3-0.2,0.6-0.2,0.8,0.2c7.4,9.3,16.7,26.5,14.7,34.6
			c-1.8,7.5-7.7,10.8-7.8,11C154.3,246.7,154.2,246.7,154.2,246.7z"/>
	</g>
	<path class="st30" d="M537.2,376.1c-1.5,4.5-5.1,3-5.6,4.4c-0.5,1.4,3.5,3.9,2.4,7.1c-1.1,3.2-3.8,0.6-6.8,1.5
		c-3,1.1,0.5,1.5,0,6.9c-0.5,5.6-3.9,3.6-8,3.9c-4.1,0.3-3.9,2.9-3.9,2.9h-5.1c0,0,1.8-3.2,5.9-5.3c3-1.7,1.5-3-0.5-4.8
		c0.5-0.8,0.3-1.8-0.3-3.2c-0.9-2-2-2.1-2.7-2.1c0.3-2,2.7-3.5,5.9-3.8c4.7-0.6,3.2-3.2,2.1-9.9c-1.1-6.8-3.9-8.6,0-11
		c3.9-2.3,6.8,7.1,6.9,11c0.3,3.8,3.2,2.4,3.8-1.2c0.6-3.8,0.2-8.4,2.9-8C537,364.8,538.5,371.6,537.2,376.1z"/>
	<path class="st30" d="M515.5,392.6c-0.8,1.4-2.7,2.3-5.4,4.4c-4.1,3.3-2.4,5.7-2.3,5.7h-7.2c0,0-1.1-4.4,1.7-6.3
		c0.2-0.2,0.3-0.2,0.5-0.3c0,0,0,0,0.2,0c2.4-1.4,2.3-2.9,1.1-6.5c-0.2-0.3-0.2-0.6-0.3-0.9c-0.3-0.9-0.6-2-0.9-3.2
		c-1.4-4.7-4.4-5-7.4-4.2c-0.5-0.6-0.8-1.2-0.9-1.8c-0.8-5.1-0.3-3.6,4.5-3.8c4.8-0.2,2.7-2.3,0.3-6.2c-2.4-3.8-6.8-6-3.9-10.1
		c2.7-4.1,7.1,2,10.8,2.9c3.6,0.9,1.7-6.5,5.4-3c3.8,3.5-1.5,10.8-3.3,14.4c-2,3.6-0.2,3.3,3.3,4.5c3.5,1.2,0.8,3.5,0,7.1
		c-0.5,1.8,0.2,1.8,0.9,2c0.8,0.2,1.8,0.3,2.7,2.1C516,390.8,516,391.9,515.5,392.6z"/>
	<g>
		<g>
			<path class="st31" d="M608.8,389.6c-0.2,0-0.3,0-0.5,0c-2-0.5-3.5-3.2-4.2-4.5c-0.6,1.4-1.8,4.1-3.3,4.7
				c-0.2,0.2-0.5,0.2-0.6,0.2c-0.2,0-0.5,0-0.6-0.2c-2-0.9-3.3-5-3.6-6.5c0,0.2-0.2,0.2-0.2,0.3c-1.4,2-4.2,6.6-6.8,6.3
				c-2.4-0.5-3.5-5.1-3.8-7.4c-0.9,2.1-3.5,6.6-7.4,6.6s-5.7-5.7-6.2-8.4c0.2-0.2,0.3-0.3,0.5-0.6c0.5,2.3,2,8.3,5.7,8.3
				c4.7,0,7.2-7.2,7.2-7.4c0-0.2,0.2-0.2,0.3-0.2c0.2,0,0.3,0.2,0.3,0.3c0.2,2.1,1.2,7.5,3.5,8c2.1,0.3,5.1-4.2,6.2-6
				c0.6-0.9,0.6-1.1,0.9-0.9c0.2,0,0.2,0.2,0.2,0.3c0,0.5,1.4,5.7,3.5,6.6c0.3,0.2,0.5,0.2,0.8,0c1.4-0.6,2.9-3.8,3.3-5
				c0-0.2,0.2-0.2,0.3-0.2c0.2,0,0.3,0,0.3,0.2c0,0,1.8,4.4,4.1,4.8c0.2,0,0.2,0,0.3,0C608.8,389.3,608.8,389.5,608.8,389.6z"/>
		</g>
		<g>
			<path class="st31" d="M609.4,395.6c-2,2.6-5,6-6.9,6l0,0c-0.6,0-1.1-0.3-1.4-0.8c-0.9-1.2-0.9-3.6-0.6-5.3
				c-1.2,2.4-2.9,5.1-4.7,5.1c-2.3,0-3.2-4.1-3.5-6c-0.9,2.1-3.2,6.6-6.2,6.9c-0.9,0-1.7-0.3-2.6-1.1c-1.8-1.7-3.2-5-3.8-6.5
				c-1.4,3-3.9,7.4-8.6,6.5c-2.6-0.5-4.5-2.6-5.6-6c0-0.2-0.2-0.3-0.2-0.6c0.2-0.5,0.2-0.8,0.3-1.2c0.6,2.9,2.1,6.5,5.6,7.1
				c4.5,0.8,6.9-3.9,8.1-6.6c0.2-0.3,0.2-0.5,0.5-0.3c0.2,0,0.3,0.2,0.3,0.3c0.2,0.5,2.7,8.1,6,7.8c3.3-0.3,6-7.5,6-7.5
				c0-0.2,0.2-0.2,0.3-0.2c0.2,0,0.3,0.2,0.3,0.3c0.2,1.8,1.1,6.6,3,6.6c1.4,0,2.9-2.1,4.7-6c0.3-0.6,0.3-0.8,0.6-0.6
				c0.2,0,0.3,0.2,0.3,0.3c0,0,0,0.2,0,0.5c-0.6,3.3-0.5,5.6,0.3,6.5c0.3,0.3,0.6,0.5,1.1,0.5l0,0c1.8,0,5-3.6,6.9-6.3
				C609.3,395,609.4,395.3,609.4,395.6z"/>
		</g>
		<g>
			<path class="st31" d="M610.2,406c0,0.2-0.9,2.3-2.3,4.5l0,0c-1.7,2.9-4.1,5.9-6.8,5.9l0,0c-0.9,0-1.7-0.3-2.3-1.1
				c-1.1-1.1-1.4-3-1.5-4.8c-0.9,4.1-2.4,5.4-3.8,5.7c-1.1,0.3-2.4,0.2-3.6-2.1c-0.8-1.2-1.2-3-1.5-4.5c-0.8,2.4-2.7,7.4-5.7,7.7
				h-0.2c-0.6,0-1.2-0.2-1.7-0.6c-1.5-1.4-1.8-4.8-1.8-7.5c-0.8,2.1-2.3,5.6-4.8,5.6c-1.4,0-3-1.1-3.9-5.9c-0.5,4.4-1.5,6.6-3.3,6.8
				c-0.9,0.2-1.7-0.3-2.4-1.4c-0.8-0.9-1.2-2.3-1.7-3.6l0,0c0-0.6,0-1.2,0.2-1.8c0.5,2,1.4,4.4,2.6,5.4c0.5,0.5,1.1,0.8,1.5,0.6
				c1.1-0.2,2.7-1.4,3-8.9c0-0.5,0-0.6,0.3-0.6c0.2,0,0.3,0.2,0.3,0.2s0,0.2,0,0.3c0.5,5.1,1.8,8,3.6,8c2.7,0,4.1-4.7,4.7-6.3
				c0.2-0.6,0.3-0.8,0.5-0.8s0.3,0.2,0.3,0.3c0,0.2,0,0.2,0,0.6c0,1.7-0.2,6.8,1.7,8.4c0.5,0.3,0.8,0.5,1.4,0.5
				c1.8-0.2,3.3-2.4,4.1-4.2c0.9-2,1.4-3.8,1.5-4.4c0-0.2,0-0.3,0.2-0.5c0.2-0.2,0.3-0.2,0.3,0c0.2,0.2,0.2,0.3,0.2,0.6
				c0,1.1,0.8,5.3,2.6,6.8c0.6,0.6,1.4,0.8,2.1,0.6c1.5-0.3,3.5-2.3,3.9-9.5c0-0.5,0-0.6,0.3-0.6c0.2,0,0.3,0.2,0.3,0.3
				c0,0.2,0,0.3,0,0.8c-0.2,1.7-0.5,6.5,1.4,8.4c0.5,0.6,1.1,0.8,1.8,0.8l0,0c2.9,0,5.7-4.2,7.2-7.2c0.8-1.5,1.4-2.7,1.4-2.7
				c0-0.2,0.3-0.2,0.5-0.2C610.2,405.7,610.2,405.9,610.2,406z"/>
		</g>
		<g>
			<path class="st31" d="M602.2,425c-0.2,0.2-0.3,0.5-0.5,0.6c-0.5-0.9-0.3-2.4-0.3-3.5V422c0,0.2-0.2,0.2-0.2,0.3
				c-0.9,1.5-2.9,4.8-5.6,4.7c-0.9,0-1.7-0.3-2-1.1c-0.6-0.9-0.6-2.1-0.5-3c-1.5,2.1-4.7,6-6.8,6.2h-0.2c-0.5,0-1.1-0.2-1.5-0.6
				c-1.4-1.4-2.4-4.4-2.9-6.3c-0.5,2.4-1.7,6.2-4.7,6.8c-0.9,0.2-1.8,0-2.6-0.5c-1.8-1.2-2.9-4.2-3.3-6c-0.5,1.8-1.2,5-2.9,6
				c-0.2,0.2-0.3,0.2-0.5,0.3c-0.2-0.2-0.3-0.3-0.5-0.5c0.2,0,0.3-0.2,0.6-0.3c2.1-1.5,2.9-6.9,2.9-7.1c0-0.2,0.2-0.3,0.3-0.3l0,0
				c0.2,0,0.3,0.2,0.3,0.3c0,0,1.1,5.4,3.5,7.1c0.6,0.5,1.4,0.6,2.1,0.5c3.5-0.8,4.4-6.2,4.5-7.8c0-0.3,0.2-0.3,0.3-0.3
				c0.2,0,0.3,0.2,0.3,0.3c0,0.3,1.2,5.9,3,7.5c0.3,0.3,0.8,0.5,1.1,0.5c2.3-0.2,6-5.3,7.2-7.2c0.2-0.2,0.3-0.2,0.3-0.2
				c0.2,0,0.2,0.2,0.2,0.3c0,0-0.9,2.7,0,4.1c0.3,0.5,0.9,0.8,1.5,0.8c2.4,0.2,4.2-2.9,5.1-4.4c0.5-0.8,0.6-1.1,0.9-1.1
				c0.2,0,0.3,0,0.3,0.2c0.2,0.2,0.2,0.5,0,1.2C602,423,601.9,424.1,602.2,425z"/>
		</g>
	</g>
	<g>
		<path class="st31" d="M506,369.8c-1.7,1.4-2.1,8.6-1.1,12.8c0.6,2.4,0.2,3.9-0.6,5.9c-0.2,0.5-0.3,0.9-0.5,1.4
			c-0.3,1.1-0.8,2.4-0.9,4.1c-0.2,0.8-0.2,1.5-0.2,2.4c0,2,0,4.2,0.6,6.6h-0.6c-0.6-2.3-0.8-4.4-0.6-6.3c0-1.1,0.2-2,0.2-2.7
			c0.3-2.1,0.8-3.8,1.2-5c0-0.2,0.2-0.5,0.2-0.6c0.8-1.8,1.2-3.2,0.6-5.4c-1.1-4.1-0.8-11.7,1.2-13.4c0.2-0.2,0.3-0.2,0.5,0
			C506.2,369.5,506.2,369.6,506,369.8z"/>
	</g>
	<g>
		<path class="st31" d="M521.4,388c-0.5,1.2,0.6,3,1.5,4.8c0.3,0.5,0.5,0.9,0.8,1.5c0.5,0.8,0.5,1.5,0.2,2c-0.6,1.4-3,2.1-5.4,2.7
			c-0.8,0.2-1.4,0.5-2.1,0.6c-2.1,0.6-2.9,2-3.2,3.2h-0.6c0.3-1.2,1.2-2.9,3.6-3.6c0.8-0.2,1.4-0.5,2.1-0.6c2.3-0.6,4.5-1.2,5-2.4
			c0.2-0.5,0.2-0.9-0.2-1.5c-0.3-0.5-0.5-0.9-0.8-1.5c-1.1-2-2.1-3.9-1.7-5.3c0.2-0.6,0.6-1.1,1.4-1.4c2.4-1.2,4.8-3.6,3-8.9
			c0-0.2,0-0.3,0.2-0.3s0.3,0,0.3,0.2c2,5.7-0.6,8.3-3.3,9.6C521.8,387.2,521.5,387.5,521.4,388z"/>
	</g>
	<path class="st30" d="M502.9,396.1C502.9,396.1,502.7,396.1,502.9,396.1c-0.3,0.2-0.5,0.3-0.6,0.3c-2.7,2-1.7,6.3-1.7,6.3h-12.2
		c0,0,0-5.6-5.4-8c-5.4-2.4-9.5-1.4-9.5-5.9s3.6-2.9,4.7-5.1c1.1-2.3-3.5-3.3-5.6-8.1c-2.1-4.8-3.9-7.1-6.5-9.8
		c-2.4-2.6-3-5.4,1.2-7.1c4.2-1.8,5.6-2.3,6,2c0.5,4.2,2.3,10.1,6.3,9.5c3.9-0.6,1.8-6.8,6-5.1c4.2,1.8,5.9,3.6,5.4,9.9
		c-0.5,6.3-2.4,8.3,0.9,7.2c1.1-0.3,2.3-0.8,3.6-1.1c2.9-0.6,6-0.5,7.4,4.2c0.3,1.2,0.6,2.3,0.9,3.2c0.2,0.3,0.2,0.6,0.3,0.9
		C505,393.2,505.3,394.7,502.9,396.1z"/>
	<g>
		<path class="st31" d="M495,402.7h-0.6c0.3-2.6-0.9-5.7-3.8-9.2c-3.5-4.2-5.7-8.6-7.4-12.2c-0.9-2-1.8-3.6-2.6-4.7
			c-0.9-1.2-2.6-2.6-4.4-4.1c-2.6-2.1-5.1-4.2-5.9-6c0-0.2,0-0.3,0.2-0.3s0.3,0,0.3,0.2c0.6,1.7,3.2,3.8,5.6,5.7
			c1.8,1.5,3.6,3,4.5,4.2c0.8,1.1,1.7,2.7,2.6,4.7c1.8,3.5,3.9,7.8,7.4,12C494,396.8,495.3,400,495,402.7z"/>
	</g>
	
		<linearGradient id="SVGID_5_" gradientUnits="userSpaceOnUse" x1="487.0651" y1="-21.0834" x2="518.4229" y2="-21.0834" gradientTransform="matrix(1 0 0 -1 0 396)">
		<stop  offset="2.509770e-02" style="stop-color:#C41840"/>
		<stop  offset="1" style="stop-color:#BB1640"/>
	</linearGradient>
	<path class="st32" d="M518.4,402.7h-3.2h-5.1h-2.3h-7.2H498h-9.6h-1.2c0,0-1.8,28.9,15.7,28.7C520.2,431.3,518.4,402.7,518.4,402.7
		z"/>
	<path class="st25" d="M113.1,122.7c0.3,1.5-0.2,3-1.1,3.2c-0.9,0.3-2-0.9-2.4-2.4c-0.5-1.5,0.2-3,1.1-3.2S112.8,121.2,113.1,122.7z
		"/>
	<path class="st25" d="M139.4,116c0.3,1.5-0.2,3-1.1,3.2c-0.9,0.2-2-0.9-2.4-2.4c-0.3-1.5,0.2-3,1.1-3.2
		C137.9,113.5,139.1,114.5,139.4,116z"/>
	<path class="st0" d="M188.1,268.5c0,0,0.2-17.9,9.3-22.7l3.2-0.8c0,0,0-0.8-3.2-1.5c-3.9-0.9-9.2,6.3-10.8,11.7
		c-1.7,5.4-2.7,12.8-2.7,12.8S186.7,268.5,188.1,268.5z"/>
	<g>
		<path class="st33" d="M121.8,498c-0.2,0-0.2,0-0.3,0c-0.6-0.2-1.1-0.8-0.9-1.4l54.3-225c0.2-0.6,0.8-1.1,1.4-0.9
			c0.6,0.2,1.1,0.8,0.9,1.4l-54.3,225C122.7,497.5,122.3,498,121.8,498z"/>
	</g>
	<path class="st25" d="M243.1,86.8c0.6,2.1,0.2,4.2-0.9,4.4c-1.1,0.3-2.4-1.2-2.9-3.5c-0.6-2.1-0.2-4.2,0.9-4.4
		C241.2,83.1,242.5,84.6,243.1,86.8z"/>
	<path class="st34" d="M188.7,268.5c-3.5,3.5-10.8,11.1-12.5,17.6c-1.7,6.2-5,30.4-6.6,43.8c-10.2-1.5-16.9-3.5-16.9-3.6
		c0-0.6-2-8.6,0-24.2c2-15.7,6.2-27.1,11.4-36.3c1.5-2.6,3.8-2.6,3.8-2.6s11.3,4.5,20.2,5.3C188.2,268.5,188.4,268.5,188.7,268.5z"
		/>
	<g>
		<path class="st6" d="M216.8,282.8c-13.4,14.1-32.4,24.7-32.7,24.8c-0.2,0-0.2,0-0.3,0c-0.2,0-0.3,0-0.3-0.2
			c-9.5-6.8-19.3-22.4-24.5-31.3c0.2-0.5,0.3-0.9,0.6-1.4c5.1,8.6,15,24.5,24.4,31.5c2.6-1.5,20.3-11.7,32.7-25.1
			C216.6,281.9,216.6,282.3,216.8,282.8z"/>
	</g>
	<path class="st25" d="M265.7,80.1c0.6,2.1,0.2,4.2-0.9,4.4c-1.1,0.3-2.4-1.2-2.9-3.5c-0.6-2.3-0.2-4.2,0.9-4.4
		C263.7,76.3,265.1,78,265.7,80.1z"/>
	<path class="st25" d="M585.5,242.1c-0.3,1.8-1.1,3.2-1.8,3.2c-0.8-0.2-1.2-1.7-0.9-3.5s1.1-3.2,1.8-3.2
		C585.3,238.8,585.8,240.3,585.5,242.1z"/>
	<path class="st25" d="M604.6,242.1c-0.3,1.8-1.1,3.2-1.8,3.2c-0.8-0.2-1.2-1.7-0.9-3.5s1.1-3.2,1.8-3.2
		C604.4,238.8,604.7,240.3,604.6,242.1z"/>
	<g>
		<path class="st12" d="M123.6,172.5c-0.6,5.6-6.5,4.5-11.6,0.8c-2.4-1.8-5-6-7.1-10.2c-2.4-4.8-4.2-9.2-4.2-9.2l0,0
			c1.2,0.6,2.6,1.2,4.1,1.7c6.9,2.4,13.2,3.2,18.7,2.6c0,1.4,0.2,3.5,0.2,5.7C123.8,166.8,123.8,170.1,123.6,172.5z"/>
		<path class="st13" d="M123.8,163.7c-4.5,1.1-11.1,1.5-18.8-0.8c-2.4-4.8-4.2-9.2-4.2-9.2l0,0c1.2,0.6,2.6,1.2,4.1,1.7
			c6.9,2.4,13.2,3.2,18.7,2.6C123.6,159.4,123.8,161.5,123.8,163.7z"/>
	</g>
	<g>
		<path class="st12" d="M263.7,117.4c0,2.9-0.2,7.7-0.3,11.6c-0.2,3.3-0.3,6.2-0.5,6.6c-0.6,1.7-7.7,1.8-11.1,0
			c-0.9-0.5-1.8-1.7-2.7-3.3c-2.1-3.6-4.1-9-4.8-11.4c1.8,0.3,3.6,0.6,5.6,0.6C255.5,121.6,260,120,263.7,117.4z"/>
		<path class="st13" d="M263.7,117.4c0,2.9-0.2,7.7-0.3,11.6c-3.6,1.8-8.7,3.6-14.3,3.5c-2.1-3.6-4.1-9-4.8-11.4
			c1.8,0.3,3.6,0.6,5.6,0.6C255.5,121.6,260,120,263.7,117.4z"/>
	</g>
	<g>
		<path class="st12" d="M585.9,273.1c0,0-1.1,2.1-3.6,2.9c-1.4,0.3-2.9-0.2-4.4-1.1c-1.2-0.8-2.3-1.8-2.9-2.9
			c-0.9-1.5-2.4-5.1-3.3-7.5c0.8,0.5,1.7,0.9,2.7,1.4c1.1,0.5,2.3,0.9,3.5,1.2c1.1,0.3,2,0.5,3,0.6c1.2,0.3,2.4,0.5,3.6,0.5
			L585.9,273.1z"/>
		<path class="st13" d="M581,267.7c-1.1,2-2.3,4.7-2.9,7.2c-1.2-0.8-2.3-1.8-2.9-2.9c-0.9-1.5-2.4-5.1-3.3-7.5
			c0.8,0.5,1.7,0.9,2.7,1.4c1.1,0.5,2.3,0.9,3.5,1.2C579,267.3,580.1,267.6,581,267.7z"/>
	</g>
	<path class="st35" d="M353.9,458.7c-13.5-18.1-19.4-41.7-21.5-58.8l-54.2-88.5l-1.5-2.3l-0.8,2.3l-27.2,87.1c0,0-26,22.7-52.5,43
		c-19.7,14.9-41.5,32.5-51.6,40.8c0.9,1.2,4.5,4.8,4.5,4.8s25.4-19.4,42.9-33.9c17.5-14.4,63.7-46.6,64.6-48.3
		c0.9-1.8,12.8-56.3,15.2-67.7c1.5-7.1,3.2-14.6,4.2-19.4c0.6-3,1.1-4.8,1.1-4.8s0,0.2,0.2,0.5l0,0c0,0.2,0.2,0.3,0.3,0.5
		c2.9,5.3,18.1,33.1,26.5,49.2c9.3,17.8,23.2,38.5,23.2,38.5s-6.5,9.2,0,31c6.5,21.8,50.6,56.7,50.6,56.7l1.4-1.1
		C373,481.7,362.8,470.4,353.9,458.7z"/>
	<path class="st35" d="M235.2,389.8c0,0-24.7,6.5-39,14.6c-1.4,0.8-2.6,1.2-3.5,1.4c0.9-0.9,1.7-1.8,2.4-2.6
		C209.9,388.7,235,389.3,235.2,389.8z"/>
	<path class="st35" d="M235.2,389.8c0-0.3-8-40.2-9.2-72.8c-1.7-48,8.3-65.9,9.8-67.4c0,0,3.3,3.5,9.6,6.9
		c-3.8,12.6-8.9,33.3-10.5,54.2C233,333,235.2,389.8,235.2,389.8z"/>
	<path class="st36" d="M608.7,299.8c-0.9,0.5-2,0.8-2.9,1.1l0,0C606.7,300.5,607.6,300.2,608.7,299.8z"/>
	<path class="st12" d="M605.6,301c-1.7,0.6-3.2,1.1-4.5,1.4l0,0C602.2,302.2,603.8,301.6,605.6,301z"/>
	<path class="st12" d="M614.1,312.7c-3,2-6,3.8-8.1,5C609.1,316,611.8,314.4,614.1,312.7z"/>
	<path class="st12" d="M626.7,299.5c-0.2-0.8-0.5-1.4-0.5-1.4S626.4,298.9,626.7,299.5z"/>
	<path class="st12" d="M630.8,299.3c-1.4,0.9-1.2-2.1-1.2-2.1s-0.2,2.7-1.5,3.2c-0.6,0.2-1.1-0.3-1.5-1.1c-0.2-0.8-0.5-1.4-0.5-1.4
		s0.2,0.8,0.5,1.4c0.2,0.8,0.3,1.8-0.2,2.1c-0.2,0-0.2,0.2-0.3,0.2c-1.5,0.2-1.8,0-1.8,0l-1.2,2.4c0,0-0.8,1.1-2.4,2.7
		c-1.5,1.5-3.8,3.6-6.9,5.9c-2.9,2-6,3.8-8.1,5l0,0c-11.9,6-17.6,2.4-17.6,2.4c-16.6-4.5-19.7-20-19.7-20c1.2-2,3-3.9,4.7-5.6
		c3.5-3.3,7.1-5.7,7.1-5.7c3.9,6.6,8.9,12,12.9,13.2c2.7,0.8,5,0.9,8,0.3l0,0c0.9-0.2,2.7-0.8,4.5-1.5l0,0c0.9-0.3,2-0.8,2.9-1.1
		c4.5-1.8,8.4-3.8,8.4-3.8s1.1-3.9,2-4.2c0.9-0.3,2.7,0.8,2.7,0.8s0.5-1.5,1.8-1.4s2.1,2.6,2.1,2.6s0.6-2.3,1.8-2.6
		c1.2-0.2,1.7,2.4,1.7,2.4s0-3.2,1.8-2.3C632.4,292.6,632,298.4,630.8,299.3z"/>
	<path class="st13" d="M626.6,301.6c-0.2,0-0.2,0.2-0.3,0.2c-1.5,0.2-1.8,0-1.8,0l-1.2,2.4c0,0-0.8,1.1-2.4,2.7
		c-1.5,1.5-3.8,3.6-6.9,5.9c-2.9,2-6,3.8-8.1,5l0,0c-11.9,6-17.6,2.4-17.6,2.4c-16.6-4.5-19.7-20-19.7-20c1.2-2,3-3.9,4.7-5.6
		c0.8,2.9,1.8,7.8,4.7,11.9c3.8,5.3,9.9,9.5,16.7,9.5c6.8,0,16.4-5.1,16.9-5.3c0.5-0.2,11.3-10.7,11.3-10.7s-2.3-3.2-2.3-3.6
		C620.5,295.7,624.3,300.7,626.6,301.6z"/>
	<path class="st13" d="M637.2,278.4c-1.1,2.3-2.4,4.1-3.8,5.3c-3,2.7-6.9,4.7-10.8,6c-2.1-0.8-3.6-2.3-4.8-4.1
		c3.3-1.1,8.7-2.9,12-5.9c3.9-3.5,7.7-11.1,7.2-17.9c-0.5-6.8-4.1-16.1-4.2-16.6c-0.2-0.3-3.2-4.1-5.6-7.1c2.7,2,5.7,5,8.1,8.7
		C642.1,257.3,641,270.4,637.2,278.4z"/>
	<path class="st31" d="M641.5,296.5c-0.2-0.2-0.3-0.3-0.5-0.3L415,281l-11.3-40.8c0-0.2-0.2-0.2-0.2-0.3l-34-30.5
		c-0.3-0.2-0.6-0.2-0.8,0c-0.2,0.3-0.2,0.6,0,0.8l34,30.4l11.4,41.1l0,0l41.5,149.9c0,0.3,0.3,0.5,0.6,0.5l15.5,0.3
		c0,1.4,0,4.7,0,7.2L427.6,474c-0.2,0.2-0.3,0.5-0.2,0.6c1.7,5.1,3.3,10.8,3.3,11.4c0,0.3,0.3,0.6,0.6,0.6s0.6-0.3,0.6-0.6
		c0-1.1-2.6-9-3.3-11.4l43.8-34.3l21.8-2.9l122.5,33.4l1.8,10.7c0,0.3,0.3,0.6,0.6,0.5c0.3,0,0.6-0.3,0.5-0.6l-1.8-11.1
		c0-0.2-0.2-0.5-0.5-0.5l-122.6-33.4l-1.7-3.8l108.6,1.8l0,0c0.3,0,0.5-0.2,0.6-0.5l27.2-95l0,0l0,0l12-42
		C641.6,296.8,641.6,296.6,641.5,296.5z M612.9,390.4l-13.5-0.3l11-51.3c3.8,0.2,7.1,0.3,9.9,0.5c2.7,0.2,5,0.2,6.3,0.3
		c0.6,0,1.2,0,1.5,0L613.3,391C613.5,390.5,613.2,390.4,612.9,390.4z M598.3,390.1l-20.2-0.5l0.8-52.4c6.9,0.3,13.1,0.6,18.7,0.8
		c4.2,0.2,8.1,0.3,11.7,0.5L598.3,390.1z M589.1,433.1l-11.7-0.2l0.6-42.1l20,0.5L589.1,433.1C589.1,433,589.1,433.1,589.1,433.1z
		 M492.2,431.5L492.2,431.5l-7.1-0.2c-0.2-0.6-3.8-19.1-8.3-42.7l23.6,0.5l7.5,42.4v0.2L492.2,431.5z M469.8,431.2l-10.4-42.7
		l16.3,0.3c4.4,22.6,7.8,40.3,8.3,42.7L469.8,431.2z M428.8,330.6c2,0.2,7.5,0.3,15.5,0.8l13.5,56l-13.5-0.3L428.8,330.6z
		 M445.5,331.4c5.4,0.3,11.9,0.6,19.1,0.9c1.7,8.3,3.3,17.2,5,25.9c2,10.1,3.9,20.2,5.7,29.5l-16.3-0.3L445.5,331.4z M491.7,333.3
		c8.6,0.5,17.6,0.8,26.6,1.2l10.2,54l-27.1-0.6L491.7,333.3z M500.3,388.1l-23.8-0.5c-3.5-17.5-7.4-37.5-10.8-55.4
		c7.5,0.3,16,0.8,24.8,1.1L500.3,388.1z M519.6,334.7c3,0.2,5.9,0.3,8.9,0.5c6.5,0.3,12.6,0.6,18.4,0.8c0.8,8.1,1.7,16.9,2.6,25.6
		c0.9,9.5,1.8,18.8,2.7,27.5l-22.3-0.5L519.6,334.7z M548,335.9c11,0.5,20.9,0.9,29.6,1.4l-0.8,52.4l-23.8-0.5
		C551.5,372.3,549.7,353.1,548,335.9z M547.9,334.7c-2.1-22.1-3.9-40.3-4.2-43.9l34.8,2.4l-0.6,42.9
		C568.3,335.7,558.2,335.3,547.9,334.7z M543,296.5c0.3,3.9,0.9,9.5,1.5,16.1c0.6,6.5,1.4,14,2.1,22.1c-9-0.5-18.2-0.8-27.4-1.2
		l-8.4-44.8l31.6,2.1C542.6,291.7,542.7,293.2,543,296.5z M518.2,333.5c-9-0.5-18.1-0.8-26.6-1.2l-8.1-45.4l26.2,1.8L518.2,333.5z
		 M490.4,332.1c-8.9-0.5-17.2-0.8-24.8-1.1c-4.5-23.2-8.3-42.3-8.9-46l25.6,1.7L490.4,332.1z M456.5,290.8c0.8,4.1,2,9.8,3.2,16.7
		c1.4,6.9,2.9,14.9,4.5,23.5c-7.2-0.3-13.7-0.6-19.1-0.9l-11.3-46.6l21.5,1.5C455.6,285.8,455.9,287.4,456.5,290.8z M501.7,389.2
		l27.1,0.6l8,42.4l-27.7-0.5c0-0.2,0.2-0.3,0-0.3L501.7,389.2z M529.9,389.8l22.1,0.5c2.1,22.4,3.9,40.3,4.1,42.3l-18.2-0.3
		L529.9,389.8z M553.3,390.2l23.6,0.5l-0.6,42.1l-18.8-0.3C557.3,431.5,555.5,413.4,553.3,390.2z M578.9,336.2l0.6-42.9l38.8,2.6
		l-8.9,41.5C601.1,337.1,590.6,336.7,578.9,336.2z M432.6,283.4l11.3,46.8c-8.4-0.3-14-0.6-15.5-0.8l-13.1-47.3L432.6,283.4z
		 M444.8,388.1l13.4,0.3l10.4,42.7l-12-0.2L444.8,388.1z M493.4,436.4l-20.6,2.7c0-3.9,0-5.9,0-6.8l19.1,0.3L493.4,436.4z
		 M601.3,433.3l-11-0.2l8.9-41.8l13.7,0.3l0,0c0.2,0,0.3,0,0.5-0.2L601.3,433.3z M628.5,338.3c-1.7,0-8.1-0.3-17.9-0.8l8.9-41.5
		l20.8,1.4L628.5,338.3z"/>
	<g>
		<path class="st12" d="M385.5,210.7c-1.5,0.9-2.4-5-2.4-5s0.8,6.8,0,7.4c-0.5,0.5-1.4-1.5-2.1-3c0.9,2.9,0,4.8-1.4,4.2
			c0,0-0.2,0-0.2-0.2c-1.7-1.1-6.9-5.9-6.9-5.9c-6,0.9-11.7-1.7-12-1.5c-0.3,0.2-19,0.9-34.5,2c-15.7,1.1-39.4-1.8-41.1-4.1
			c0,0,0.5-4.1,2.3-8.7c0.3-0.8,0.8-1.7,1.1-2.4c2.7-5.4,7.8-9.5,7.8-9.5s17,3.5,25.9,6.2c8.9,2.6,40.8,7.8,40.8,7.8
			s9.3-7.1,16.6-1.5C386.7,202.4,387,209.8,385.5,210.7z"/>
		<path class="st13" d="M379.6,214.3C379.6,214.2,379.6,214.2,379.6,214.3c-1.8-1.1-7.1-5.9-7.1-5.9c-6,0.9-11.7-1.7-12-1.5
			c-0.3,0.2-19,0.9-34.5,2c-15.7,1.1-39.4-1.8-41.1-4.1c0,0,0.5-4.1,2.3-8.7c3.8,1.7,12.2,5,25.7,6.8c19,2.6,48.9-1.5,48.9-1.5
			S381.7,206.3,379.6,214.3z"/>
	</g>
	<g>
		<path class="st12" d="M183.8,269.7c-0.3,2-2.1,0.5-2.7,0.2c0.5,0.5,2.3,2.1,1.8,2.7c-0.6,0.8-2.6,0-2.6,0s1.8,1.5,1.1,2.7
			c-0.8,1.4-2.3,0-2.3,0c0.2,0.5-0.2,0.9-0.6,1.2c-1.8,1.2-7.7,0.2-11.1-0.9c-4.2-1.4-7.5,1.7-16.1,5.7s-20.6,5-20.6,5
			s-0.9-2.9-0.2-7.5c0.2-1.1,0.5-2.1,0.8-3.3c2.1-6.6,8-12,8-12s13.4-1.4,19.1-2.4c5.7-1.1,10.7-5.1,16-1.4
			C179.8,262.9,184.1,267.4,183.8,269.7z"/>
		<path class="st13" d="M178.6,276.3c-1.8,1.2-7.7,0.2-11.1-0.9c-4.2-1.4-7.5,1.7-16.1,5.7s-20.6,5-20.6,5s-0.9-2.9-0.2-7.5
			c3.9-0.3,9.6-1.1,16.6-2.7c11.4-2.6,14.9-6.3,14.9-6.3S172.3,275.1,178.6,276.3z"/>
	</g>
	<path class="st37" d="M582.8,258.7c0,0,8.7,2.3,11.3,1.8c0,0-3.2,3.9-5.9,3.5C585.5,263.5,582.8,258.7,582.8,258.7z"/>
	<g>
		<path class="st16" d="M425.2,488.2c0-4.4,3.5-7.8,7.8-7.8s7.8,3.5,7.8,7.8c0,4.4-3.5,7.8-7.8,7.8S425.2,492.5,425.2,488.2z"/>
		<path class="st16" d="M611.2,488.2c0-4.4,3.5-7.8,7.8-7.8s7.8,3.5,7.8,7.8c0,4.4-3.5,7.8-7.8,7.8
			C614.7,496,611.2,492.5,611.2,488.2z"/>
	</g>
</g>
<path class="st38" d="M53.7,496.8H655c0,0-78.9,12.6-126,16c-47.1,3.5-329,0-329,0L53.7,496.8z"/>
</svg>
