<?xml version="1.0" encoding="utf-8"?>
<!-- Generator: Adobe Illustrator 23.0.5, SVG Export Plug-In . SVG Version: 6.00 Build 0)  -->
<svg version="1.1" id="Layer_1" xmlns="http://www.w3.org/2000/svg" xmlns:xlink="http://www.w3.org/1999/xlink" x="0px" y="0px"
	 viewBox="0 0 682 651" style="enable-background:new 0 0 682 651;" xml:space="preserve">
<style type="text/css">
	.st0{fill:#F04264;}
	.st1{fill:#703A22;}
	.st2{opacity:0.3;fill:#703A22;}
	.st3{fill:#E2335C;}
	.st4{fill:#F3B6AB;}
	.st5{fill:#F4948E;}
	.st6{fill:#0A3E54;}
	.st7{fill:#6BDEAB;}
	.st8{fill:#EFA630;}
	.st9{fill:#1E61D8;}
	.st10{fill:#207444;}
	.st11{fill:url(#SVGID_1_);}
	.st12{fill:url(#SVGID_2_);}
	.st13{fill:url(#SVGID_3_);}
	.st14{fill:#993022;}
	.st15{fill:#F27079;}
	.st16{fill:#64371F;}
	.st17{fill:#7B1146;}
	.st18{fill:#51BA7F;}
	.st19{fill:#4C4749;}
	.st20{fill:url(#SVGID_4_);}
	.st21{fill:#1E1724;}
	.st22{fill:#083544;}
	.st23{fill:#A9DEFF;}
</style>
<path class="st0" d="M162.1,289.6c0,0,0.7,4.7,0.6,6.2l3.5,0.1c0,0,0.2-3.8-0.4-6.3H162.1z"/>
<g>
	<path class="st1" d="M272.2,97.4c-2.4,11.6-10,20.9-18.3,27.1c-12,8.9-22.9,22.4-22.9,22.4s-15.7,6-37.6-1.6
		c-21.9-7.6-18.8-16.1-19.8-31.3c-1-15.2-0.7-20.9-1.9-33.1c-1.1-10-0.8-16,4.5-22.7c1.1-1.4,2.5-2.9,4.1-4.4
		c9.2-8.8,19-6.5,24.5-4.5c0,0,3.9-13.8,13-15.6c9.1-1.8,20.1-1.8,29,8.8c8.9,10.5,21.1,18.8,25.3,38.3
		C273.4,86.7,273.3,92.3,272.2,97.4z"/>
	<path class="st2" d="M272.2,97.4c-2.4,11.6-10,20.9-18.3,27.1c-12,8.9-22.9,22.4-22.9,22.4s-15.7,6-37.6-1.6
		c-21.9-7.6-18.8-16.1-19.8-31.3c-1-15.2-0.7-20.9-1.9-33.1c-1.1-10-0.8-16,4.5-22.7c0.8,8.2,12,24.7,31.2,20.7
		c21.9-4.6,28.7-3.5,30.8,1.6C239.8,84.4,258.5,102.8,272.2,97.4z"/>
</g>
<path class="st0" d="M275.5,198.6C275.4,198.6,275.4,198.6,275.5,198.6c0.3,0.4,1.2,10,2.5,21.5c0.6,5.9,1.3,12.3,2.1,18.1
	c0.3,2.2,0.6,4.4,0.8,6.4c2.4,17.7,5.4,39.1,5.4,39.1s-16.5,6.7-41,5.7c-11.2-0.4-20.1-3.6-26.6-7c-7.7-4-11.7-8.1-11.7-8.1
	c2.6-14.9,15.4-27.4,17.8-34.7c2.4-7.3-5.7-27.4-9.7-39.6c-4.1-12.2-11.7-28.9-10.5-39.6c0.1-0.9,0.2-1.7,0.4-2.4
	c0.5-2.1,1.4-3.8,2.5-5.3c3.5-4.6,9.5-6.4,15.6-7.8l15.4-2.6c0,0,4.9-2.2,9.2-3.1c0.8-0.2,1.7-0.3,2.4-0.4c4.7-0.3,13,7.1,20.8,15.9
	c7.8,8.8,22.1,29.2,22.1,29.2c-2.4,1.8-4.9,5.8-6.9,9.4c-2.1,3.9-3.6,7.3-3.6,7.3C280.3,200,275.8,198.5,275.5,198.6z"/>
<path class="st3" d="M247.6,139.1c-2.2,3.1-4.3,6.3-9.4,6.9c-7.1,0.9-16.1,5.4-16.1,5.4s-9,1.4-14.8,1.2c3.5-4.6,9.5-6.4,15.6-7.8
	l15.4-2.6C238.3,142.2,243.2,140,247.6,139.1z"/>
<path class="st3" d="M280,238.1c-4.6-0.6-10.8-1.9-16.9-4.9c-11.9-5.8-37.5-36.9-37.5-36.9l0.9,6.6c0,0,7,27.9,7.7,29
	c0.7,1.1-3.5,16.4-3.5,16.4s-7.5,11.7-10.7,22c-1.1,3.6-1.4,7.9-1.3,12c-7.7-4-11.7-8.1-11.7-8.1c2.6-14.9,15.4-27.4,17.8-34.7
	c2.4-7.3-5.7-27.4-9.7-39.6c-4.1-12.2-11.7-28.9-10.5-39.6c0.1-0.9,0.2-1.7,0.4-2.4c1.4,3.5,3.2,8,4.8,11.5
	c3,6.5,17.5,21.8,30.7,33.5c11.3,10,22.2,13.2,25,13.9c0.5,0.1,0.7,0.2,0.7,0.2c3.2,1.1,7.8,2.2,11.8,3.1
	C278.6,225.9,279.3,232.3,280,238.1z"/>
<path class="st3" d="M285.9,193.3c-2.1,3.9-3.6,7.3-3.6,7.3c-1.9-0.6-6.4-2.1-6.8-2l-1.1-5c1.7-0.4,2.7-6.2,2.7-6.2L285.9,193.3z"/>
<g>
	<path class="st4" d="M363.9,214.1c-2.5-1-11.3,1.6-14.3,2.5c-0.7,0.2-1.1,0.3-1.1,0.3s-4.6-0.8-17.8-2.9
		c-13.2-2.1-48.3-13.5-48.3-13.5c1.1-2.8,2.2-5.1,3.3-7.1c3.8-7,7.2-9.6,7.2-9.6l58.1,26.8C357.3,210.8,363.5,213.9,363.9,214.1z"/>
	<path class="st5" d="M349.9,216l-0.3,0.6c-0.7,0.2-1.1,0.3-1.1,0.3s-4.6-0.8-17.8-2.9c-13.2-2.1-48.3-13.5-48.3-13.5
		c1.1-2.8,2.2-5.1,3.3-7.1C303.2,200.8,349.9,216,349.9,216z"/>
</g>
<g>
	<path class="st4" d="M251.3,105.2c-0.4,6.7-4.8,16.2-13.2,21.8c-1.9,1.3-4,2.3-6.2,3.1c-2.8,1-5.8,1.5-9.2,1.5
		c-2.1,0-4.2-0.2-6.2-0.6c-15-3.1-25.3-16.2-25.3-16.2c-3.6,0.4-6.7-0.4-9.1-1.9c-7.2-4.4-9.5-14.4-5.8-17.2c0,0,0,0,0.1,0
		c5-3.6,11.6,1.8,11.6,1.8s-1.8-15.1,1-24.2c0.6-2,1.5-4.1,2.5-5.9c3.7-6.5,10.2-11.7,19.4-11.9c11.8-0.3,21.3,0.6,28.4,13.8
		C246.4,82.3,251.9,95.2,251.3,105.2z"/>
	<path class="st5" d="M231.9,130.1c-2.8,1-5.8,1.5-9.2,1.5c-2.1,0-4.2-0.2-6.2-0.6c-15-3.1-25.3-16.2-25.3-16.2
		c-3.6,0.4-6.7-0.4-9.1-1.9c-0.9-5.1-2.6-12-5.7-17.2c5-3.6,11.6,1.8,11.6,1.8s-1.8-15.1,1-24.2c0.6-2,1.5-4.1,2.5-5.9
		c-2.2,13.8-0.2,27,5.9,37.8C203.7,116.1,214,130.4,231.9,130.1z"/>
</g>
<path class="st4" d="M555.5,437.4c0,0-4.8,5.2-3.2,21.4c1.5,16.2,5.4,19.5,5.4,19.5h3.7c0,0,3.2-17.3,9.5-35
	c1.7-4.9,4-10.4,6.3-15.7c-9.4-0.2-17.3-1-21.1-1.5C555.5,433.6,555.5,437.4,555.5,437.4z"/>
<path class="st4" d="M591.2,441.5c0,0-2.4,3.7-2.6,15.6c-0.2,11.9,0.7,22.5,0.7,22.5h3.2c0,0,9.7-19.7,13.2-36.8
	c1-4.8,2.3-11.4,3.8-18.6c-5.9,1.7-12.5,2.6-19.1,3C590.6,433.4,590.9,438.9,591.2,441.5z"/>
<path class="st6" d="M368.9,538.5l-2.5,1.8l-1.6,1.2c0,0-49.2-38.9-56.3-63.3c-7.1-24.3,0-34.6,0-34.6s-15.4-23.2-25.8-43
	c-8.7-16.6-24-44.7-28.6-53.3c-0.5-1-0.9-1.7-1.1-2.1v0c-0.2-0.3-0.2-0.4-0.2-0.4s-0.5,2.1-1.2,5.4c-0.1,0.6-0.3,1.1-0.4,1.8v0
	c-1.2,5.3-2.8,12.9-4.2,19.9c-2.6,12.7-15.9,73.5-16.9,75.4c-1,1.9-52.4,37.8-71.9,53.9c-19.5,16.1-47.9,37.6-47.9,37.6
	s-4.1-4.1-5-5.4c-0.1-0.2-0.2-0.3-0.2-0.4c0.2-0.5,36-64.6,53.8-84.8c0.9-1.1,1.8-2,2.6-2.8c16.5-16.1,44.5-15.5,44.6-15
	c0-0.3-8.9-44.8-10.2-81.1c-1.8-53.4,9.2-73.4,10.8-75.1c0,0,3.7,3.8,10.8,7.6c6.5,3.5,15.8,7,27.5,7.5c24.5,1,41-5.7,41-5.7
	s42.2,138.9,46.1,153.9C336.1,452.7,368.9,538.5,368.9,538.5z"/>
<path class="st7" d="M105.1,533c0,0-7.3,4.9-9.4,11.2l29.4,11l-14.7-17.7L105.1,533z"/>
<path class="st7" d="M364.9,541.4c0,0-0.3,7,0,8.1c0,0,22.2,0.8,28.9-1.8l-24.8-9.2L364.9,541.4z"/>
<path class="st8" d="M557.7,478.3c0,0,4.9-4,9.4-3.8c4.5,0.2,5.5,5.1,5.5,5.1L557.7,478.3z"/>
<path class="st9" d="M589.3,479.6c0,0,5.3-5.1,9.7-5.1c4.4,0,7,5.1,7,5.1H589.3z"/>
<path class="st8" d="M623.1,439.9c-0.1,3.8-0.5,7.7-1.2,11.5c-0.1,0.7-0.3,1.4-0.4,2.1c0,0,0,0,0,0c-1.3,6.1-3.5,11.8-6.4,16.1
	c-0.1,0.2-0.3,0.4-0.4,0.6c-1.6,2.3-3.5,4.1-5.7,5.4c-9.1,5.5-24,5.2-31.3-1.3c-0.2-0.2-0.4-0.4-0.6-0.6c-0.2-0.2-0.3-0.3-0.5-0.5
	c-3.8-4.1-5.7-10.7-5.4-19.5c0,0,0,0,0,0c0-0.7,0.1-1.3,0.1-2c0,0,0,0,0,0c0.3-4.9,1.3-10.4,2.9-16.5c0.1-0.4,0.2-0.8,0.4-1.3
	c0.1-0.3,0.2-0.7,0.3-1c1.7-5.7,3.8-9.8,6.3-12.7c0.2-0.2,0.4-0.4,0.5-0.6c6.3-6.7,14.5-6.1,22-5.3c12.1,1.3,17.1,6.7,18.8,15.3
	c0,0.2,0.1,0.4,0.1,0.7c0.3,1.7,0.5,3.6,0.5,5.5c0,0.4,0,0.7,0,1.1C623.2,437.9,623.1,438.9,623.1,439.9z"/>
<path class="st10" d="M592.4,413.9c-0.1-0.2-5.1-9.4-6.5-18c-1.4-8.5-1.8-11.6-1-11.5c0.9,0.1,7.5,4.4,11.6,19
	c0,0-2.9-13.7-1.9-15.6c1-1.8,5.5,6.6,5.5,6.6s3.7-14,5.9-14.8c2.3-0.8,2.5,5.7,1.3,16c-1.2,10.3-2.2,15.9-2.2,15.9s4-8.7,8.5-14.4
	c4.5-5.7,14.2-12.3,15.1-10.5c1,1.8-16.8,24.6-16.8,24.3c0.1-0.3,15.4-10.2,19.3-10.5c3.9-0.3,3.1,3-1,5.9
	c-4.1,2.9-19.5,9.4-19.5,9.4s-4-0.9-9.4-1.5C596.1,413.9,592.4,413.9,592.4,413.9z"/>
<linearGradient id="SVGID_1_" gradientUnits="userSpaceOnUse" x1="539.631" y1="447.9969" x2="561.6944" y2="447.9969">
	<stop  offset="1.953000e-05" style="stop-color:#F6413C"/>
	<stop  offset="0.995" style="stop-color:#F53347"/>
</linearGradient>
<path class="st11" d="M539.6,448c0-6.1,4.9-11,11-11s11,4.9,11,11c0,6.1-4.9,11-11,11S539.6,454.1,539.6,448z"/>
<linearGradient id="SVGID_2_" gradientUnits="userSpaceOnUse" x1="527.1945" y1="465.9752" x2="547.8491" y2="465.9752">
	<stop  offset="1.953000e-05" style="stop-color:#F6413C"/>
	<stop  offset="0.995" style="stop-color:#F53347"/>
</linearGradient>
<path class="st12" d="M527.2,466c0-6.1,3.5-11,9.6-11c6.1,0,11,4.9,11,11c0,6.1-4.9,11-11,11C530.7,477,527.2,472.1,527.2,466z"/>
<linearGradient id="SVGID_3_" gradientUnits="userSpaceOnUse" x1="549.2574" y1="467.8125" x2="571.3207" y2="467.8125">
	<stop  offset="1.953000e-05" style="stop-color:#F6413C"/>
	<stop  offset="0.995" style="stop-color:#F53347"/>
</linearGradient>
<path class="st13" d="M549.3,467.8c0-6.1,4.9-11,11-11c6.1,0,11,4.9,11,11c0,6.1-4.9,11-11,11C554.2,478.8,549.3,473.9,549.3,467.8z
	"/>
<g>
	<path class="st14" d="M186.2,108.1c-0.1,0-0.2-0.1-0.3-0.2c-2.5-5.6-6.5-7.4-6.6-7.5c-0.2-0.1-0.2-0.3-0.2-0.4
		c0.1-0.2,0.3-0.2,0.4-0.2c0.2,0.1,4.3,1.9,6.9,7.8c0.1,0.2,0,0.4-0.2,0.4C186.2,108.1,186.2,108.1,186.2,108.1z"/>
</g>
<g>
	<path class="st14" d="M181.9,107.8c-0.4,0-0.7-0.2-1-0.5c-1.6-1.7,1-4.5,1.6-5c0.1-0.1,0.3-0.1,0.5,0c0.1,0.1,0.1,0.3,0,0.5
		c-0.1,0.1-2.8,2.8-1.5,4.1c0.2,0.2,0.4,0.3,0.6,0.3c0.9-0.1,2.1-1.6,2.5-2.2c0.1-0.2,0.3-0.2,0.4-0.1c0.2,0.1,0.2,0.3,0.1,0.5
		c-0.2,0.2-1.5,2.4-2.9,2.5C182,107.8,182,107.8,181.9,107.8z"/>
</g>
<g>
	<path class="st14" d="M228.7,108.9c-1.4,0-3-0.2-4.7-0.8c-0.2-0.1-0.3-0.2-0.2-0.4c0.1-0.2,0.2-0.3,0.4-0.2
		c8.1,2.4,11.8-1.9,12.5-3c-0.8-0.8-3.8-3.9-7.4-8.9c-4.2-5.9-3.2-13.3-3-13.9c0.1-0.2,0.3-0.2,0.4-0.2c0.2,0.1,0.2,0.3,0.2,0.4
		c-0.2,0.6-1,7.7,3,13.2c4.1,5.7,7.5,8.9,7.5,9c0.1,0.1,0.1,0.3,0.1,0.4C237.3,104.7,234.8,108.9,228.7,108.9z"/>
</g>
<g>
	<path class="st15" d="M225.3,119.8c-3.8,0-6.7-0.9-6.9-0.9c-0.2-0.1-0.3-0.2-0.2-0.4c0.1-0.2,0.2-0.3,0.4-0.2
		c0.1,0,9.3,2.7,15.7-1.4c0.2-0.1,0.4-0.1,0.4,0.1c0.1,0.2,0.1,0.3-0.1,0.4C231.7,119.2,228.2,119.8,225.3,119.8z"/>
</g>
<path class="st16" d="M195.4,89.8c-0.1-0.2,1.6-3.6,6.4-6.7c4.8-3.1,11-3.4,11.4-1.1c0.3,2.3-4.3,1.9-8.9,3.6
	C199.7,87.4,195.4,89.8,195.4,89.8z"/>
<path class="st16" d="M242.8,76.1c0.5,0-3.6-2.4-9.4-2.3c-5.8,0.2-7.5,3.3-6.6,4.8C227.7,80.1,237.6,75.6,242.8,76.1z"/>
<g>
	<path class="st17" d="M261.7,224.9c-0.1,0-0.2,0-0.2,0c-22.4-8.8-48.3-40.3-51.5-48.4c-0.1-0.3,0-0.7,0.4-0.8
		c0.3-0.1,0.7,0,0.8,0.4c3.1,8,28.7,39,50.7,47.7c0.3,0.1,0.5,0.5,0.4,0.8C262.2,224.8,261.9,224.9,261.7,224.9z"/>
</g>
<g>
	<path class="st17" d="M274.2,202.1c-0.1,0-0.2,0-0.3-0.1c-0.2-0.1-5-3-9.9-8.6c-4.8-5.4-30.1-32.5-30.3-32.8
		c-0.2-0.3-0.2-0.7,0-0.9c0.3-0.2,0.7-0.2,0.9,0c0.3,0.3,25.5,27.3,30.3,32.8c4.7,5.4,9.5,8.3,9.6,8.3c0.3,0.2,0.4,0.6,0.2,0.9
		C274.6,201.9,274.4,202.1,274.2,202.1z"/>
</g>
<g>
	<path class="st17" d="M275.9,202.1c-0.3,0-0.6-0.2-0.6-0.6c-0.5-3.2-1.2-6.9-1.4-7.5c-0.4-0.5-0.1-1.1,0.5-2.2
		c1-1.8,2.9-5.1,2.7-9.6c-0.1-5.3-4.2-9.7-5.9-11.5c-0.4-0.4-0.7-0.7-0.8-0.9c-0.2-0.3-0.1-0.7,0.2-0.9c0.3-0.2,0.7-0.1,0.9,0.2
		c0.1,0.1,0.4,0.4,0.7,0.8c1.8,2,6.1,6.6,6.3,12.4c0.1,4.8-1.9,8.3-2.9,10.2c-0.2,0.4-0.4,0.8-0.5,1c0.3,0.5,0.7,2.2,1.6,7.9
		C276.6,201.7,276.4,202,275.9,202.1C276,202.1,275.9,202.1,275.9,202.1z"/>
</g>
<path class="st18" d="M542.7,415.2c-1.6,5-5.7,3.4-6.2,4.9c-0.5,1.5,3.9,4.4,2.8,7.8c-1.1,3.5-4.2,0.6-7.6,1.7
	c-3.4,1.1,0.5,1.6,0,7.8c-0.5,6.2-4.4,4.1-8.9,4.4c-4.5,0.3-4.4,3.1-4.4,3.1h-5.7c0,0,1.9-3.5,6.5-5.9c3.3-1.8,1.6-3.3-0.5-5.4
	c0.4-0.9,0.4-1.9-0.3-3.5c-0.9-2.1-2.1-2.3-3-2.4c0.4-2.2,2.9-3.8,6.5-4.3c5.1-0.6,3.5-3.6,2.3-11c-1.1-7.5-4.4-9.6,0-12.2
	c4.4-2.6,7.5,8,7.8,12.2c0.3,4.2,3.6,2.8,4.2-1.4c0.6-4.1,0.2-9.3,3.2-8.8C542.5,402.7,544.3,410.2,542.7,415.2z"/>
<path class="st18" d="M518.6,433.7c-0.8,1.5-3.1,2.5-6,4.9c-4.5,3.7-2.8,6.4-2.6,6.4h-8.1c0,0-1.2-4.9,1.9-7
	c0.2-0.1,0.3-0.2,0.5-0.3c0,0,0.1,0,0.1-0.1c2.7-1.5,2.4-3.2,1.2-7.2c-0.1-0.3-0.2-0.7-0.3-1.1c-0.3-1-0.7-2.2-1-3.5
	c-1.5-5.3-4.9-5.5-8.2-4.8c-0.5-0.6-0.8-1.3-0.9-2.1c-0.8-5.7-0.3-4.1,5.1-4.2c5.4-0.2,3.1-2.6,0.3-6.8c-2.8-4.2-7.5-6.7-4.4-11.2
	c3.1-4.5,7.9,2.1,12,3.2c4.1,1.1,1.8-7.2,6-3.3c4.2,3.9-1.6,12-3.7,16.1c-2.1,4.1-0.2,3.7,3.7,5c3.9,1.3,0.8,3.9,0,8
	c-0.4,2.1,0.2,2.1,1.1,2.2c0.9,0.1,2.1,0.3,3,2.4C519,431.7,519.1,432.8,518.6,433.7z"/>
<g>
	<g>
		<path class="st19" d="M622.6,430.4c-0.2,0-0.3,0-0.5-0.1c-2.2-0.4-3.9-3.6-4.6-5c-0.6,1.4-2.1,4.5-3.7,5.2
			c-0.2,0.1-0.5,0.1-0.7,0.1c-0.2,0-0.5-0.1-0.7-0.2c-2.1-1.1-3.6-5.5-4.1-7.3c-0.1,0.1-0.1,0.2-0.2,0.3c-1.4,2.2-4.8,7.4-7.6,7
			c-2.8-0.5-3.9-5.8-4.3-8.2c-1,2.4-3.8,7.4-8.2,7.4c-4.4,0-6.3-6.4-6.9-9.3c0.2-0.2,0.4-0.4,0.5-0.6c0.5,2.6,2.3,9.3,6.4,9.3
			c5.1,0,8-8.1,8-8.1c0.1-0.1,0.2-0.2,0.3-0.2c0.1,0,0.3,0.1,0.3,0.3c0.2,2.3,1.3,8.4,3.9,8.9c2.4,0.4,5.7-4.8,6.9-6.7
			c0.7-1,0.7-1.1,1-1c0.1,0,0.2,0.2,0.2,0.3c0,0.5,1.6,6.3,3.9,7.5c0.3,0.1,0.6,0.1,0.9,0c1.5-0.6,3.1-4.2,3.6-5.5
			c0-0.1,0.2-0.2,0.3-0.2c0.1,0,0.3,0.1,0.3,0.2c0,0.1,2,4.9,4.5,5.3c0.1,0,0.2,0,0.3,0C622.5,430,622.5,430.2,622.6,430.4z"/>
	</g>
	<g>
		<path class="st19" d="M623.1,437c-2.2,2.9-5.5,6.7-7.8,6.7h0c-0.6,0-1.2-0.3-1.6-0.8c-1.1-1.3-0.9-4-0.7-5.9
			c-1.4,2.7-3.2,5.7-5.2,5.7c-2.5,0-3.5-4.5-3.9-6.7c-1,2.3-3.6,7.4-6.8,7.7c-0.9,0.1-1.9-0.3-2.8-1.2c-2-1.9-3.6-5.5-4.2-7.2
			c-1.4,3.4-4.4,8.2-9.5,7.2c-2.8-0.5-5-2.8-6.2-6.6c-0.1-0.2-0.1-0.4-0.2-0.6c0.1-0.4,0.2-0.8,0.4-1.3c0.7,3.1,2.4,7.2,6.2,7.9
			c5,0.9,7.8-4.3,9-7.5c0.1-0.3,0.2-0.5,0.5-0.4c0.2,0,0.3,0.2,0.3,0.3c0.1,0.6,3.1,9,6.6,8.7c3.6-0.3,6.7-8.3,6.7-8.4
			c0.1-0.1,0.2-0.2,0.3-0.2c0.1,0,0.3,0.1,0.3,0.3c0.2,2,1.3,7.3,3.4,7.3c1.4,0,3.2-2.3,5.3-6.7c0.3-0.7,0.4-0.8,0.6-0.7
			c0.2,0,0.3,0.2,0.3,0.3c0,0,0,0.2-0.1,0.4c-0.7,3.7-0.6,6.1,0.3,7.2c0.3,0.3,0.6,0.5,1.1,0.5h0c2.1,0,5.5-4,7.7-7.1
			C623.1,436.3,623.1,436.7,623.1,437z"/>
	</g>
	<g>
		<path class="st19" d="M624,448.6c-0.1,0.2-1,2.5-2.5,5c0,0,0,0,0,0c-1.8,3.1-4.6,6.6-7.6,6.6h-0.1c-1,0-1.8-0.4-2.5-1.1
			c-1.1-1.2-1.6-3.3-1.7-5.3c-1,4.5-2.8,6-4.2,6.3c-1.1,0.3-2.7,0.1-4.1-2.3c-0.8-1.4-1.4-3.4-1.7-5c-0.9,2.7-3,8.3-6.4,8.5
			c-0.1,0-0.2,0-0.2,0c-0.7,0-1.3-0.2-1.8-0.7c-1.7-1.6-2-5.3-2-8.5c-0.8,2.4-2.5,6.2-5.3,6.2c-1.5,0-3.4-1.2-4.3-6.5
			c-0.5,4.8-1.7,7.3-3.7,7.5c-1,0.1-1.9-0.4-2.7-1.5c-0.8-1-1.4-2.5-1.9-4c0,0,0,0,0,0c0-0.7,0.1-1.3,0.1-2c0.6,2.2,1.5,4.8,2.8,6.1
			c0.6,0.6,1.1,0.8,1.7,0.7c1.1-0.1,3.1-1.6,3.3-9.8c0-0.5,0-0.7,0.3-0.7c0.2,0,0.3,0.1,0.4,0.3c0,0,0,0.2,0,0.4
			c0.5,5.7,2,8.8,4.1,8.8c3,0,4.6-5.2,5.1-7c0.2-0.7,0.3-0.9,0.6-0.8c0.1,0,0.3,0.1,0.3,0.3c0,0.1,0,0.2,0,0.7
			c0,1.9-0.1,7.5,1.8,9.3c0.4,0.4,0.9,0.6,1.5,0.5c2-0.2,3.6-2.7,4.6-4.8c1-2.1,1.5-4.2,1.7-4.9c0-0.2,0-0.4,0.1-0.5
			c0.1-0.1,0.3-0.1,0.4-0.1c0.2,0.1,0.2,0.3,0.1,0.7c0,1.2,0.8,5.8,2.8,7.6c0.7,0.7,1.5,0.9,2.4,0.7c1.7-0.4,3.8-2.6,4.4-10.6
			c0-0.5,0.1-0.7,0.4-0.7c0.1,0,0.3,0.1,0.3,0.3c0,0.1,0,0.3,0,0.8c-0.1,1.8-0.5,7.3,1.5,9.4c0.5,0.6,1.2,0.9,2.1,0.9h0.1
			c3.3,0,6.3-4.8,8-8.1c0.9-1.7,1.4-3.1,1.4-3.1c0.1-0.2,0.3-0.2,0.4-0.2C624,448.2,624.1,448.4,624,448.6z"/>
	</g>
	<g>
		<path class="st19" d="M615.1,469.7c-0.1,0.2-0.3,0.4-0.4,0.6c-0.5-1-0.4-2.6-0.3-3.8c0-0.1,0-0.1,0-0.2c-0.1,0.1-0.1,0.2-0.2,0.3
			c-1,1.7-3.2,5.3-6.3,5.2c-1,0-1.8-0.4-2.3-1.1c-0.6-0.9-0.6-2.3-0.5-3.4c-1.7,2.3-5.2,6.7-7.6,6.9h-0.1c-0.6,0-1.1-0.2-1.6-0.7
			c-1.6-1.5-2.6-4.9-3.2-7c-0.5,2.7-1.8,6.8-5.3,7.6c-1,0.2-2,0.1-2.8-0.5c-2.1-1.4-3.2-4.7-3.8-6.7c-0.4,2-1.4,5.5-3.2,6.7
			c-0.2,0.1-0.3,0.2-0.5,0.3c-0.2-0.2-0.3-0.3-0.5-0.5c0.2-0.1,0.4-0.2,0.6-0.3c2.3-1.6,3.2-7.8,3.2-7.8c0-0.2,0.2-0.3,0.3-0.3h0
			c0.2,0,0.3,0.1,0.3,0.3c0,0.1,1.1,6,3.8,7.8c0.7,0.5,1.5,0.6,2.3,0.4c3.9-0.9,4.8-7,5-8.8c0-0.3,0.2-0.4,0.3-0.4
			c0.2,0,0.3,0.2,0.3,0.3c0,0.4,1.3,6.5,3.4,8.4c0.4,0.4,0.8,0.5,1.2,0.5c2.4-0.2,6.7-5.9,8.1-8c0.1-0.1,0.3-0.2,0.4-0.1
			c0.1,0.1,0.2,0.2,0.2,0.4c0,0-1,3,0,4.5c0.4,0.5,0.9,0.8,1.7,0.8c2.7,0.1,4.6-3.1,5.7-4.9c0.5-0.9,0.7-1.1,1-1.2
			c0.1,0,0.3,0.1,0.3,0.2c0.1,0.2,0.1,0.5,0.1,1.3C614.9,467.5,614.8,468.8,615.1,469.7z"/>
	</g>
</g>
<g>
	<path class="st19" d="M508.1,408.1c-1.8,1.6-2.4,9.6-1.1,14.2c0.7,2.7,0.1,4.4-0.6,6.5c-0.2,0.5-0.4,1-0.5,1.5
		c-0.4,1.2-0.8,2.7-1,4.6c-0.1,0.8-0.2,1.6-0.2,2.6c-0.1,2.2,0.1,4.8,0.7,7.4h-0.7c-0.6-2.5-0.8-4.9-0.7-7c0-1.1,0.1-2.2,0.2-3.1
		c0.3-2.4,0.8-4.2,1.4-5.6c0.1-0.2,0.2-0.5,0.3-0.7c0.8-2.1,1.3-3.6,0.6-6.1c-1.2-4.6-0.8-13,1.3-14.9c0.1-0.1,0.3-0.1,0.5,0
		C508.2,407.8,508.2,408,508.1,408.1z"/>
</g>
<g>
	<path class="st19" d="M525.1,428.5c-0.4,1.3,0.7,3.4,1.8,5.4c0.3,0.5,0.6,1.1,0.9,1.6c0.4,0.8,0.5,1.6,0.2,2.3
		c-0.7,1.6-3.3,2.3-6,3c-0.8,0.2-1.5,0.4-2.3,0.7c-2.4,0.7-3.2,2.2-3.6,3.5h-0.7c0.4-1.4,1.3-3.2,4-4.1c0.8-0.2,1.5-0.5,2.3-0.7
		c2.6-0.7,5-1.4,5.6-2.7c0.2-0.5,0.2-1-0.2-1.7c-0.3-0.5-0.6-1.1-0.8-1.6c-1.2-2.2-2.3-4.3-1.8-5.9c0.2-0.7,0.7-1.2,1.5-1.6
		c2.7-1.3,5.4-4,3.3-9.9c-0.1-0.2,0-0.3,0.2-0.4c0.2-0.1,0.3,0,0.4,0.2c2.3,6.3-0.7,9.3-3.6,10.7C525.6,427.6,525.3,428,525.1,428.5
		z"/>
</g>
<path class="st18" d="M504.5,437.5c0,0-0.1,0.1-0.1,0.1c-0.2,0.1-0.4,0.2-0.5,0.3c-3.1,2.2-1.9,7-1.9,7h-13.6c0,0-0.1-6.2-6.1-8.8
	c-6-2.6-10.5-1.5-10.5-6.5c0-5,4.1-3.2,5.2-5.7c1.1-2.4-3.9-3.7-6.2-9.1c-2.3-5.4-4.4-8-7.1-10.9c-2.8-2.9-3.4-6,1.3-8
	c4.7-1.9,6.2-2.6,6.7,2.1c0.5,4.7,2.6,11.2,7,10.5c4.4-0.6,1.9-7.6,6.7-5.7c4.7,1.9,6.5,4.1,6,11c-0.5,7-2.8,9.2,1,8.1
	c1.1-0.4,2.5-0.9,4-1.2c3.2-0.7,6.7-0.5,8.2,4.8c0.4,1.3,0.7,2.5,1,3.5c0.1,0.4,0.2,0.7,0.3,1.1
	C506.9,434.4,507.2,436.1,504.5,437.5z"/>
<g>
	<path class="st19" d="M495.7,445h-0.7c0.4-2.8-1.1-6.4-4.2-10.2c-3.9-4.8-6.3-9.6-8.3-13.5c-1.1-2.1-2-4-2.9-5.1
		c-1-1.3-2.9-2.9-4.9-4.5c-2.8-2.3-5.8-4.7-6.5-6.7c-0.1-0.2,0-0.4,0.2-0.4c0.2-0.1,0.4,0,0.4,0.2c0.7,1.9,3.5,4.2,6.3,6.5
		c2.1,1.7,4,3.3,5,4.7c0.9,1.2,1.8,3,2.9,5.2c2,3.9,4.4,8.7,8.2,13.4C494.6,438.3,496.1,442,495.7,445z"/>
</g>
<linearGradient id="SVGID_4_" gradientUnits="userSpaceOnUse" x1="486.9062" y1="460.9868" x2="521.8415" y2="460.9868">
	<stop  offset="2.509770e-02" style="stop-color:#C41840"/>
	<stop  offset="1" style="stop-color:#BB1640"/>
</linearGradient>
<path class="st20" d="M521.8,445h-3.5h-5.7h-2.6h-8.1h-2.8h-10.8H487c0,0-1.9,32.2,17.4,32C523.7,476.8,521.8,445,521.8,445z"/>
<path class="st21" d="M215.1,93c0.6,2.4,0.2,4.6-1,4.9c-1.2,0.3-2.6-1.4-3.3-3.8c-0.6-2.4-0.2-4.6,1-4.9
	C213,88.8,214.5,90.5,215.1,93z"/>
<path class="st21" d="M240.3,85.5c0.6,2.4,0.2,4.6-1,4.9c-1.2,0.3-2.6-1.4-3.3-3.8c-0.6-2.4-0.2-4.6,1-4.9
	C238.2,81.3,239.6,83.1,240.3,85.5z"/>
<g>
	<path class="st4" d="M238.1,127c0,3.2-0.1,8.5-0.3,12.9c-0.1,3.7-0.3,6.8-0.5,7.4c-0.6,1.8-8.6,1.9-12.3,0c-1-0.5-2-1.9-3.1-3.7
		c-2.3-4-4.5-10-5.4-12.7c2,0.4,4,0.6,6.2,0.6C228.8,131.7,234,129.8,238.1,127z"/>
	<path class="st5" d="M238.1,127c0,3.2-0.1,8.5-0.3,12.9c-4,2-9.7,4.1-15.9,3.8c-2.3-4-4.5-10-5.4-12.7c2,0.4,4,0.6,6.2,0.6
		C228.8,131.7,234,129.8,238.1,127z"/>
</g>
<path class="st22" d="M338.6,507.2c-15.1-20.1-21.6-46.5-24-65.5l-60.4-98.6l-1.7-2.6l-0.9,2.6l-30.3,97.1c0,0-29,25.4-58.6,47.9
	c-21.9,16.6-46.2,36.3-57.4,45.4c0.9,1.4,5,5.4,5,5.4s28.4-21.6,47.9-37.6c19.5-16.1,70.9-51.9,71.9-53.9c1-1.9,14.3-62.8,16.9-75.4
	c1.6-7.8,3.5-16.3,4.6-21.7c0.7-3.3,1.2-5.4,1.2-5.4s0.1,0.2,0.2,0.4v0c0.1,0.2,0.2,0.3,0.3,0.6c3.2,5.9,20.1,37,29.5,54.8
	c10.4,19.8,25.8,43,25.8,43s-7.1,10.2,0,34.6c7.1,24.3,56.3,63.3,56.3,63.3l1.6-1.2C359.7,533,348.4,520.3,338.6,507.2z"/>
<path class="st22" d="M206.2,430.4c0,0-27.5,7.2-43.4,16.3c-1.5,0.9-2.8,1.3-3.8,1.5c0.9-1.1,1.8-2,2.6-2.8
	C178.1,429.3,206,429.9,206.2,430.4z"/>
<path class="st22" d="M206.2,430.4c0-0.3-8.9-44.8-10.2-81.1c-1.8-53.4,9.2-73.4,10.8-75.1c0,0,3.7,3.8,10.8,7.6
	c-4.2,14.2-10,37.1-11.8,60.3C203.9,367.2,206.2,430.4,206.2,430.4z"/>
<path class="st4" d="M642.5,329.9c-0.2-0.8-0.5-1.5-0.5-1.5S642.1,329.2,642.5,329.9z"/>
<path class="st19" d="M658.9,326.6c-0.1-0.2-0.3-0.3-0.5-0.3l-251.8-17L394,263.8c0-0.1-0.1-0.2-0.2-0.3l-38-34
	c-0.3-0.2-0.7-0.2-0.9,0.1c-0.2,0.3-0.2,0.7,0.1,0.9l37.8,33.9l12.7,45.8c0,0,0,0,0,0l46.3,167.1c0.1,0.3,0.3,0.5,0.6,0.5l17.2,0.3
	c0,1.5,0,5.2,0,8l-49,38.4c-0.2,0.2-0.3,0.5-0.2,0.7c1.8,5.6,3.8,12,3.8,12.8c0,0.4,0.3,0.6,0.6,0.6c0.4,0,0.6-0.3,0.6-0.6
	c0-1.3-2.8-10.1-3.7-12.7l48.7-38.2l24.3-3.2l136.4,37.2l1.9,11.9c0.1,0.4,0.4,0.6,0.7,0.5c0.4-0.1,0.6-0.4,0.5-0.7l-2-12.3
	c0-0.3-0.2-0.5-0.5-0.5l-136.7-37.2l-1.8-4.2l121.1,1.9c0,0,0,0,0,0c0.3,0,0.5-0.2,0.6-0.5l30.3-105.9c0,0,0,0,0,0c0,0,0,0,0,0
	l13.4-46.8C659,326.9,659,326.7,658.9,326.6z M627.1,431.1l-15-0.3l12.2-57.2c4.3,0.2,8,0.3,11,0.5c3.1,0.1,5.5,0.2,7.1,0.3
	c0.7,0,1.3,0,1.7,0.1l-16.4,57.3C627.7,431.3,627.4,431.1,627.1,431.1z M610.8,430.8l-22.5-0.5l0.9-58.3c7.7,0.3,14.6,0.6,20.8,0.9
	c4.7,0.2,9.1,0.4,13,0.6L610.8,430.8z M600.6,478.7l-13.1-0.2l0.7-46.9l22.3,0.5L600.6,478.7C600.6,478.7,600.6,478.7,600.6,478.7z
	 M492.6,477L492.6,477l-7.9-0.1c-0.1-0.7-4.1-21.2-9.3-47.5l26.4,0.5l8.4,47.3c0,0.1,0,0.1,0.1,0.2L492.6,477z M467.6,476.6
	L456,428.9l18,0.4c4.9,25.1,8.8,45,9.3,47.6L467.6,476.6z M422,364.5c2.2,0.1,8.4,0.4,17.3,0.8l15.1,62.3l-15-0.3L422,364.5z
	 M440.6,365.4c6,0.3,13.2,0.6,21.2,1c1.8,9.2,3.7,19,5.6,28.8c2.2,11.2,4.4,22.4,6.4,32.8l-18.1-0.4L440.6,365.4z M492.1,367.7
	c9.5,0.4,19.5,0.9,29.7,1.3l11.3,60.2l-30.2-0.6L492.1,367.7z M501.6,428.6l-26.4-0.5c-3.8-19.4-8.1-41.8-12-61.6
	c8.4,0.4,17.8,0.8,27.6,1.2L501.6,428.6z M523.1,369.1c3.3,0.1,6.6,0.3,9.9,0.4c7.2,0.3,14,0.6,20.5,0.9c0.9,9.1,1.8,18.9,2.8,28.6
	c1,10.5,2,21,3,30.7l-24.8-0.5L523.1,369.1z M554.8,370.5c12.2,0.5,23.2,1,33.1,1.5l-0.9,58.3l-26.4-0.5
	C558.7,411,556.7,389.5,554.8,370.5z M554.7,369.2c-2.4-24.7-4.3-44.9-4.7-48.9l38.6,2.6l-0.7,47.8
	C577.5,370.2,566.2,369.7,554.7,369.2z M549.3,326.5c0.4,4.3,1,10.5,1.7,18c0.7,7.2,1.5,15.7,2.4,24.7c-10.1-0.5-20.3-0.9-30.5-1.4
	l-9.4-50l35.2,2.4C548.7,321.1,548.9,322.9,549.3,326.5z M521.5,367.7c-10.1-0.5-20.1-0.9-29.7-1.3l-9-50.6l29.2,2L521.5,367.7z
	 M490.5,366.3c-9.8-0.4-19.2-0.9-27.6-1.2c-5-25.8-9.1-47-10-51.3l28.6,1.9L490.5,366.3z M452.9,320.2c0.9,4.5,2.1,10.9,3.6,18.6
	c1.5,7.7,3.2,16.6,5.1,26.2c-8.1-0.4-15.3-0.7-21.3-1l-12.6-52l24,1.6C451.8,314.6,452.1,316.4,452.9,320.2z M503.1,429.9l30.2,0.6
	l8.9,47.3l-30.9-0.5c0.1-0.1,0.1-0.3,0.1-0.4L503.1,429.9z M534.7,430.5l24.7,0.5c2.4,25.1,4.4,45,4.6,47.1l-20.3-0.3L534.7,430.5z
	 M560.7,431.1l26.3,0.5l-0.7,46.9l-21-0.3C565.1,477,563.2,456.7,560.7,431.1z M589.2,370.7l0.7-47.8l43.2,2.9l-9.9,46.3
	C614,371.8,602.3,371.3,589.2,370.7z M426.3,311.9l12.6,52.1c-9.4-0.4-15.6-0.7-17.3-0.8L407,310.6L426.3,311.9z M439.7,428.6
	l15,0.3l11.6,47.7l-13.3-0.2L439.7,428.6z M494,482.5l-23,3c0-4.4,0-6.5,0-7.6l21.2,0.3L494,482.5z M614.2,479l-12.3-0.2l9.9-46.7
	l15.3,0.3c0,0,0,0,0,0c0.2,0,0.3-0.1,0.5-0.2L614.2,479z M644.5,373.1c-1.8,0-9.1-0.3-19.9-0.8l9.8-46.3l23.1,1.6L644.5,373.1z"/>
<g>
	<path class="st4" d="M373.8,230.9c-1.6,1-2.8-5.5-2.8-5.5s0.8,7.5,0,8.3c-0.5,0.5-1.6-1.7-2.3-3.4c0.9,3.1,0,5.4-1.5,4.6
		c-0.1,0-0.1-0.1-0.2-0.1c-1.8-1.1-7.8-6.5-7.8-6.5c-6.7,1-13.1-1.8-13.5-1.7c-0.3,0.1-21.1,1-38.4,2.1c-17.4,1.1-44-1.9-45.8-4.5
		c0,0,0.5-4.6,2.5-9.7c0.4-0.9,0.8-1.8,1.2-2.7c3.1-6,8.8-10.5,8.8-10.5s19,3.9,28.9,6.8c9.9,2.9,45.4,8.8,45.4,8.8
		s10.4-7.9,18.5-1.6C375.1,221.7,375.4,230,373.8,230.9z"/>
	<path class="st5" d="M367.3,234.9c-0.1,0-0.1-0.1-0.2-0.1c-1.8-1.1-7.8-6.5-7.8-6.5c-6.7,1-13.1-1.8-13.5-1.7
		c-0.3,0.1-21.1,1-38.4,2.1c-17.4,1.1-44-1.9-45.8-4.5c0,0,0.5-4.6,2.5-9.7c4.2,1.9,13.6,5.5,28.6,7.5c21.1,2.9,54.5-1.7,54.5-1.7
		S369.5,226.1,367.3,234.9z"/>
</g>
<g>
	<path class="st6" d="M418.1,540.1c0-4.8,3.9-8.8,8.8-8.8c4.8,0,8.8,3.9,8.8,8.8s-3.9,8.8-8.8,8.8C422,548.9,418.1,545,418.1,540.1z
		"/>
	<path class="st6" d="M625.1,540.1c0-4.8,3.9-8.8,8.8-8.8c4.8,0,8.8,3.9,8.8,8.8s-3.9,8.8-8.8,8.8
		C629.1,548.9,625.1,545,625.1,540.1z"/>
</g>
<path class="st23" d="M4,549.7h670c0,0-87.9,14-140.4,17.8c-52.5,3.8-366.5,0-366.5,0L4,549.7z"/>
</svg>
