<?xml version="1.0" encoding="utf-8"?>
<!-- Generator: Adobe Illustrator 23.0.5, SVG Export Plug-In . SVG Version: 6.00 Build 0)  -->
<svg version="1.1" xmlns="http://www.w3.org/2000/svg" xmlns:xlink="http://www.w3.org/1999/xlink" x="0px" y="0px"
	 viewBox="0 0 500 500" style="enable-background:new 0 0 500 500;" xml:space="preserve">
<style type="text/css">
	.st0{display:none;}
	.st1{display:inline;}
	.st2{fill:#407BFF;}
	.st3{opacity:0.9;fill:#FFFFFF;}
	.st4{opacity:0.4;fill:#FFFFFF;}
	.st5{fill:#263238;}
	.st6{opacity:0.2;fill:#FFFFFF;enable-background:new    ;}
	.st7{fill:none;stroke:#263238;stroke-width:1.8275;stroke-linecap:round;stroke-linejoin:round;stroke-miterlimit:10;}
	.st8{opacity:0.2;enable-background:new    ;}
	.st9{fill:#FFFFFF;}
	.st10{opacity:0.3;fill:#FFFFFF;}
	.st11{fill:#B97964;}
	.st12{opacity:0.7;fill:#FFFFFF;enable-background:new    ;}
	.st13{fill:#A24E3F;}
</style>
<g id="Background_Complete">
</g>
<g id="Background_Simple" class="st0">
	<g class="st1">
		<path class="st2" d="M94.9,114.4C122.9,55,222,63.4,260.2,105.2c38.3,41.8,50.7,68.6,85.2,53c34.5-15.6,78.5-11.4,81,38.2
			s-37.9,108.3-102.1,125.6c-64.2,17.4-64.2,78.8-149.1,66.4c-46.3-6.8-47.4-56.9-40.8-98.3S62.6,183.4,94.9,114.4z"/>
		<path class="st3" d="M94.9,114.4C122.9,55,222,63.4,260.2,105.2c38.3,41.8,50.7,68.6,85.2,53c34.5-15.6,78.5-11.4,81,38.2
			s-37.9,108.3-102.1,125.6c-64.2,17.4-64.2,78.8-149.1,66.4c-46.3-6.8-47.4-56.9-40.8-98.3S62.6,183.4,94.9,114.4z"/>
	</g>
</g>
<g id="Shadow_1_">
</g>
<g id="Clock">
	<g>
		
			<ellipse transform="matrix(0.2298 -0.9732 0.9732 0.2298 275.1975 467.5474)" class="st2" cx="433" cy="59.9" rx="32.6" ry="32.6"/>
		
			<ellipse transform="matrix(0.1602 -0.9871 0.9871 0.1602 304.4917 477.7073)" class="st4" cx="433" cy="59.9" rx="27.7" ry="27.7"/>
		<g>
			<path class="st2" d="M431.7,62.1c-0.3,0-0.6-0.1-0.9-0.2L418,54.6c-0.9-0.5-1.2-1.6-0.7-2.5c0.5-0.9,1.6-1.2,2.5-0.7l10.1,5.7
				V40.9c0-1,0.8-1.8,1.8-1.8c1,0,1.8,0.8,1.8,1.8v19.4c0,0.7-0.3,1.3-0.9,1.6C432.3,62,432,62.1,431.7,62.1z"/>
		</g>
		
			<ellipse transform="matrix(0.2298 -0.9732 0.9732 0.2298 275.1975 467.5474)" class="st4" cx="433" cy="59.9" rx="32.6" ry="32.6"/>
	</g>
</g>
<g id="Plant">
	<g>
		<path class="st5" d="M116.2,417.5c0,0,2.8-20.6,16-22.9c13.2-2.3,9.2-12.2,12.6-16.1c3.4-3.9,12.4,7.5,4.7,18.5
			c-7.7,11-1.4,7.6-4.7,17.8C141.5,425.2,115,434.6,116.2,417.5z"/>
		<path class="st6" d="M116.2,417.5c0,0,2.8-20.6,16-22.9c13.2-2.3,9.2-12.2,12.6-16.1c3.4-3.9,12.4,7.5,4.7,18.5
			c-7.7,11-1.4,7.6-4.7,17.8C141.5,425.2,115,434.6,116.2,417.5z"/>
		<path class="st7" d="M120.6,430.7c0,0,8.4-21.7,0.4-55.5c-8-33.7-28.9-45.4-14.7-84.3c14.2-39,31.8-67.3,19.8-93.2"/>
		<path class="st5" d="M124.4,426.8c0,0,8.5-12.8-3.8-19.4c-12.3-6.6-14.8-1.3-22.4-6c-7.6-4.7-13.4-16.2-14.7-8.9
			c-1.3,7.4,7.5,11.6,4.4,14.9C84.8,410.7,108.6,432.6,124.4,426.8z"/>
		<g>
			<path class="st5" d="M130.5,208.1c0,0,6.3-25.8-12.6-24.8C99.1,184.3,121.7,206.1,130.5,208.1z"/>
			<path class="st5" d="M115.8,228.8c0,0-7.4-22.4-20.4-16.5C82.4,218.1,102.5,230.2,115.8,228.8z"/>
			<path class="st5" d="M138.6,228.9c0,0-3.5-18.1,10.7-19.6C163.4,207.8,158.3,224.4,138.6,228.9z"/>
			<path class="st5" d="M132.1,266.9c0,0,17.7-18.5,25.5-6.4C165.5,272.5,144.5,276.9,132.1,266.9z"/>
			<path class="st5" d="M98.2,266.6c0,0-5.8-27.9-20.5-17.8S85.1,270.5,98.2,266.6z"/>
			<path class="st5" d="M88,308c0,0,9.1-29.4-11.8-24.5C55.4,288.4,72.5,302.3,88,308z"/>
			<path class="st5" d="M121.1,315.5c0,0,16.1-22.4,30.2-16.8C165.5,304.3,156,326,121.1,315.5z"/>
			<path class="st5" d="M108.7,363.3c0,0-17.9-32.4-30.4-20C65.7,355.7,89.1,370.9,108.7,363.3z"/>
			<path class="st5" d="M130.5,359.5c0,0-6.1-25.8,9.1-24.9C154.8,335.5,152.1,351.8,130.5,359.5z"/>
			<g class="st8">
				<path class="st9" d="M130.5,208.1c0,0,6.3-25.8-12.6-24.8C99.1,184.3,121.7,206.1,130.5,208.1z"/>
				<path class="st9" d="M115.8,228.8c0,0-7.4-22.4-20.4-16.5C82.4,218.1,102.5,230.2,115.8,228.8z"/>
				<path class="st9" d="M138.6,228.9c0,0-3.5-18.1,10.7-19.6C163.4,207.8,158.3,224.4,138.6,228.9z"/>
				<path class="st9" d="M132.1,266.9c0,0,17.7-18.5,25.5-6.4C165.5,272.5,144.5,276.9,132.1,266.9z"/>
				<path class="st9" d="M98.2,266.6c0,0-5.8-27.9-20.5-17.8S85.1,270.5,98.2,266.6z"/>
				<path class="st9" d="M88,308c0,0,9.1-29.4-11.8-24.5C55.4,288.4,72.5,302.3,88,308z"/>
				<path class="st9" d="M121.1,315.5c0,0,16.1-22.4,30.2-16.8C165.5,304.3,156,326,121.1,315.5z"/>
				<path class="st9" d="M108.7,363.3c0,0-17.9-32.4-30.4-20C65.7,355.7,89.1,370.9,108.7,363.3z"/>
				<path class="st9" d="M130.5,359.5c0,0-6.1-25.8,9.1-24.9C154.8,335.5,152.1,351.8,130.5,359.5z"/>
			</g>
		</g>
		<path class="st7" d="M142.8,222.6c0,0-7.1,12.7-17.7,19.8c0,0-8.5-13.5-14.4-16.5"/>
		<path class="st7" d="M146.6,264c0,0-20.6,1-35.9,14.6c0,0-10.3-14.6-22.7-20.6"/>
		<path class="st7" d="M80.7,295c0,0,10.7,22.5,22.7,30.7c0,0,22.3-15.4,39.4-17.1"/>
		<path class="st7" d="M138.6,343.2c0,0-9.7,23.5-18,29.1c0,0-9-10.7-26.8-14.5"/>
		<path class="st5" d="M123.1,423.7c0,0,7.3-11.6,15.6-13.3c8.2-1.7,11.8-11.2,14.8-5.4C156.5,410.7,148.1,429.7,123.1,423.7z"/>
		<g>
			<polygon class="st2" points="161,469.4 81.2,469.4 75.9,420.2 166.3,420.2 			"/>
			<polygon class="st2" points="168.2,429.5 74,429.5 72.8,419.1 169.4,419.1 			"/>
			<polygon class="st10" points="168.2,429.5 74,429.5 72.8,419.1 169.4,419.1 			"/>
		</g>
	</g>
</g>
<g id="Door">
</g>
<g id="Character">
	<g id="_x3C_Group_x3E__2_">
		<path class="st2" d="M333.1,133.9c-4.5-2.1-10-5.2-16.6-9.5l-1.6-14.4l-1.5-13.5c10.7,2.5,34.4,21.1,38.2,29.2
			C354.4,131.7,354.9,144,333.1,133.9z"/>
		<path class="st5" d="M263.5,458.5h-15.1c-0.5,0-0.9,0.4-1.1,0.9l-2.5,11.1c-0.2,1,0.4,2,1.4,2.2c0.1,0,0.3,0,0.4,0
			c4.9-0.1,8.5-0.4,14.6-0.4c3.8,0,15.2,0.4,20.4,0.4c5.2,0,5.9-5.2,3.8-5.6c-9.6-2.1-16.8-5-19.9-7.7
			C265.1,458.8,264.3,458.5,263.5,458.5z"/>
		<path class="st5" d="M327.6,458.1h-15.1c-0.5,0-0.9,0.4-1.1,0.9l-2.5,11.1c-0.2,1,0.4,2,1.4,2.2c0.1,0,0.3,0,0.4,0
			c4.9-0.1,8.5-0.4,14.6-0.4c3.8,0,15.2,0.4,20.4,0.4c5.2,0,5.9-5.2,3.8-5.6c-9.6-2.1-16.8-5-19.9-7.7
			C329.2,458.4,328.4,458.1,327.6,458.1z"/>
		<g>
			<path class="st5" d="M255.5,178.3h66c6.3,34.3,23.9,172.9,9.8,281L309,460c0,0,4.1-164.2-15.6-217.3c-2.3,28.4-5,58.6-7.3,74.7
				C280.3,357,267.6,460,267.6,460h-22.8c0,0,5-99.3,7.2-138.2C254.4,279.6,255.4,187,255.5,178.3z"/>
			<path class="st6" d="M244.9,460h22.8c0,0,12.7-103,18.4-142.6c2.3-16.1,5-46.3,7.3-74.7c2.9,7.8,5.3,17.6,7.4,28.6
				C312.5,334.9,309,460,309,460l22.3-0.3c14.1-108.1-3.5-247.3-9.8-280.6h-66c-0.1,7.9-1.1,100.8-3.5,143
				C249.9,361.1,244.9,460,244.9,460z"/>
		</g>
		<path class="st8" d="M293.4,242.7c2.9,7.8,5.3,17.6,7.4,28.6c1.8-25.3-5.5-52.1-5.5-52.1L293.4,242.7z"/>
		<path class="st2" d="M321.6,179.1h-66c0,0,0-18.2-3-39.4c-1-7.2-2.4-14.7-4.2-22c-1.4-5.5-3-11-4.9-16c0,0,29.3-12,70-5.1
			C313.4,96.6,320.9,131.4,321.6,179.1z"/>
		<g>
			<g>
				<polygon points="275.4,186.5 316.6,186.5 316,178.4 275.4,178.9 				"/>
				<polygon points="318.7,186.5 323,186.5 321.6,178.3 318,178.4 				"/>
				<polygon points="273.4,178.9 255.5,179.1 255.5,186.5 273.4,186.5 				"/>
			</g>
			<path class="st9" d="M303.4,177.9c-0.5-0.5-11.9-0.3-12.8,0.7c0,0-0.4,7.8,0.1,8.4c0.5,0.7,11.5-0.3,12.5-0.3
				C304.3,186.7,303.9,178.3,303.4,177.9z M302.2,185.9c-0.8,0-9.8,0.8-10.3,0.3c-0.4-0.6-0.1-6.9-0.1-6.9c0.7-0.8,10.1-1,10.5-0.6
				C302.7,179,303,185.9,302.2,185.9z"/>
			<path class="st9" d="M301.4,180.9l-2.3,0.1c-0.4,0-0.8,0.3-0.8,0.8l0,0c0,0.5,0.4,0.9,0.9,0.9l2.3-0.1c0.5,0,0.8-0.4,0.8-0.9
				C302.2,181.2,301.9,180.9,301.4,180.9z"/>
		</g>
		<path class="st8" d="M252.5,139.7c-1-7.2-2.4-14.7-4.2-22c0.8-0.6,1.7-1.1,2.7-1.4C251,116.3,257.4,129.4,252.5,139.7z"/>
		<path class="st11" d="M243.4,101.7c-13.5,6.4-31.8,45.6-28.1,59c3.8,13.4,36.7,32.6,36.7,32.6l-10.4,10c0,0,8.3,7.1,12.1,6.3
			c3.8-0.8,8.1-10,7.8-14.6c-0.3-4.6-6-8.5-6-8.5s-23.4-25-23.9-30.8c-1.1-13.9,17-36.6,17-36.6L243.4,101.7z"/>
		<path class="st2" d="M243.4,101.7c-7.6,1.5-30.7,31.9-28.6,56.6l18.4-2.6c0,0,5.4-18.7,16.8-30c0,0,2.6-6.8-0.7-17.9
			C248.2,103.7,243.4,101.7,243.4,101.7z"/>
		<g>
			<polygon class="st2" points="213.6,157.4 234.6,154.7 234.6,157.4 213.6,162.4 			"/>
			<polygon class="st6" points="213.6,157.4 234.6,154.7 234.6,157.4 213.6,162.4 			"/>
		</g>
		<path class="st8" d="M333.1,133.9c-4.5-2.1-10-5.2-16.6-9.5l-1.6-14.4C318.7,112.2,332.8,120.8,333.1,133.9z"/>
		<path class="st11" d="M338.9,119.8c0,0-25.1-3-29.7-2.3c-4.6,0.7-14.5,9.5-14.9,9.8c-0.4,0.3,7,9.7,8.5,9.3
			c1.6-0.3,9.6-8.6,9.8-9.3c0.2-0.8,0.7-2.1,0.7-2.1l23.9,7.7C337.3,133,342.6,125.1,338.9,119.8z"/>
		<g>
			<path class="st2" d="M311,117.5c0,0,2.6,3.9,2.3,8.3l2.5-0.1c0,0,2.3-4.1,0.6-8.1L311,117.5z"/>
			<path class="st8" d="M311,117.5c0,0,2.6,3.9,2.3,8.3l2.5-0.1c0,0,2.3-4.1,0.6-8.1L311,117.5z"/>
			<path class="st5" d="M317.3,118.4c-0.1,0.9-1.6,1.6-3.5,1.4c-1.9-0.1-3.3-1-3.2-1.9c0.1-0.9,1.6-1.6,3.5-1.4
				C316,116.6,317.4,117.5,317.3,118.4z"/>
			<path class="st2" d="M316.5,117.7c-0.1,0.7-1.2,1.1-2.6,1c-1.4-0.1-2.4-0.7-2.4-1.4c0.1-0.7,1.2-1.1,2.6-1
				C315.5,116.4,316.6,117.1,316.5,117.7z"/>
			<path class="st12" d="M316.5,117.7c-0.1,0.7-1.2,1.1-2.6,1c-1.4-0.1-2.4-0.7-2.4-1.4c0.1-0.7,1.2-1.1,2.6-1
				C315.5,116.4,316.6,117.1,316.5,117.7z"/>
		</g>
		<g>
			<polygon class="st2" points="336.7,134 339.7,118.3 342.2,119.3 341.3,135.8 			"/>
			<polygon class="st6" points="336.7,134 339.7,118.3 342.2,119.3 341.3,135.8 			"/>
		</g>
		<g>
			<path class="st2" d="M258.5,101.7c0,0,2.7-7,15.9-9.2c13.1-2.3,27.5,3.8,31,8.1l-11.3,1.1l-5.7,12.5l-13-11.1L258.5,101.7z"/>
			<path class="st6" d="M258.5,101.7c0,0,2.7-7,15.9-9.2c13.1-2.3,27.5,3.8,31,8.1l-11.3,1.1l-5.7,12.5l-13-11.1L258.5,101.7z"/>
		</g>
		<g>
			<path class="st11" d="M265.6,97.9c2.5,2.3,6.6,3.3,10.5,3.6l11.8,10.9l3.4-12c0,0,4.5-1.6,2.5-4.5c-5.5-0.9-8.1-3.5-9.2-6.7
				c-0.6-1.9-0.7-4-0.6-6.2c0.1-1.2,0.3-2.3,0.5-3.5l-18.4-13.6C268.6,74.9,271.6,91.4,265.6,97.9z"/>
			<path class="st8" d="M270.4,74.5c0.7,11,9.8,14.1,14.2,14.7c-0.6-1.9-0.7-4-0.6-6.2L270.4,74.5z"/>
		</g>
		<g>
			<path class="st5" d="M302.6,42.7c0,0,2.1,14.1-7,20.7c-9.1,6.6-9.1-25.3-9.1-25.3L302.6,42.7z"/>
			<path class="st11" d="M269.2,77.1c4.4,6.3,11.6,8,17.9,6c4-1.3,7.6-4.1,9.9-8.1c0.3-0.5,0.6-1.1,0.8-1.6
				c4.5-10.5,5.9-28.8-5.2-35.7c-7.9-5-18.3-2.6-23.2,5.3c-1.4,2.2-2.3,4.8-2.5,7.4C265.5,62.7,264.1,69.8,269.2,77.1z"/>
			<path class="st5" d="M284.7,57c-0.2,1,0.2,1.9,0.9,2c0.7,0.1,1.3-0.6,1.5-1.6c0.2-1-0.2-1.9-0.9-2C285.5,55.3,284.9,56,284.7,57z
				"/>
			<path class="st5" d="M295.9,58.9c-0.2,1,0.2,1.9,0.9,2c0.6,0.1,1.3-0.6,1.5-1.6c0.2-1-0.2-1.9-0.9-2
				C296.7,57.2,296.1,58,295.9,58.9z"/>
			<path class="st13" d="M292.3,58.8c0.7,3.2,1.8,6.3,3.3,9.3c-1.5,0.7-3.3,0.8-4.9,0.1L292.3,58.8z"/>
			<path class="st5" d="M281.9,52.8c0.2,0.1,0.4,0,0.6-0.1c1.1-1.1,2.6-1.5,4-1.3c0.3,0.1,0.6-0.1,0.7-0.4c0.1-0.3-0.1-0.6-0.4-0.7
				c0,0,0,0,0,0c-1.9-0.3-3.8,0.3-5.1,1.6c-0.2,0.2-0.3,0.6-0.1,0.8c0,0,0,0,0,0C281.7,52.7,281.8,52.7,281.9,52.8z"/>
			<path class="st5" d="M281.2,68.4L281.2,68.4c2.9,0.2,5.6,1.8,7.2,4.3c0.1,0.2,0,0.3-0.1,0.4c-0.1,0.1-0.3,0-0.4-0.1c0,0,0,0,0,0
				c-1.5-2.3-4-3.8-6.7-3.9c-0.2,0-0.3-0.1-0.3-0.3c0,0,0,0,0,0C280.9,68.5,281,68.4,281.2,68.4C281.2,68.4,281.2,68.4,281.2,68.4z"
				/>
			<path class="st5" d="M301.4,55.9c0.1,0.1,0.2,0.1,0.3,0.1c0.3-0.1,0.5-0.4,0.4-0.7c0,0,0,0,0,0c-0.5-1.8-1.8-3.3-3.6-4
				c-0.3-0.1-0.6,0.1-0.7,0.4c0,0,0,0,0,0c-0.1,0.3,0.1,0.6,0.4,0.7l0,0c1.4,0.6,2.4,1.7,2.8,3.2C301,55.7,301.2,55.8,301.4,55.9z"
				/>
			<path class="st5" d="M285,30.8c-1.5-0.2-2.9-0.4-4.4-0.4c-4.2-0.2-8.6,0.3-12.3,2.5c-8.5,5-7,17.9-5.9,26.2
				c1.5,11.1,5.8,16.1,5.8,16.1c-2.6-5.3-1.8-15.6-0.1-15.8c1.7-0.3,1.6,1.7,1.6,1.7c3.8-2.4,7.3-9.1,6.1-13.8
				c-0.9-3.6,3.2-6.3,6.6-4.6c0.3,0.2,0.7,0.3,1,0.5c0.5,0.2,1.1,0.5,1.6,0.8V30.8z"/>
			<path class="st11" d="M259.8,59.5c0.9,3,2.9,5.5,5.6,7c3.6,1.9,6.3-1.1,6.1-5c-0.3-3.5-2.4-8.7-6.4-9
				C261.1,52.2,258.8,55.8,259.8,59.5z"/>
			<path class="st5" d="M289.9,41.3c-0.8,1.4,1.2,5.9-3.3,4.9c-4.5-1.1-4.9,0.8-8.1,4c-3.2,3.1-9.8-1.6-9.8-1.6l-7.1,0.9
				c0,0-5.2-4.7-2-7.2c3.3-2.5,4-6.1,6-10.3c2-4.2,10.9-9.7,20.3-3.3c0,0,5-1.7,7.2-0.5c2.2,1.3,4,4.5,4,4.5s2.5-2.8,5.1-0.2
				s0.5,12.2,2.7,14.6c2.2,2.3-2.7,5.4-2.7,5.4s-3.8-0.9-3.8-3.7c0-5-0.7-6.8-3.2-7.7c-1.5-0.6-2.6,0.8-2.6,0.8
				S291.1,39.1,289.9,41.3z"/>
		</g>
	</g>
</g>
</svg>
