<?xml version="1.0" encoding="utf-8"?>
<!-- Generator: Adobe Illustrator 23.0.5, SVG Export Plug-In . SVG Version: 6.00 Build 0)  -->
<svg version="1.1" id="Layer_1" xmlns="http://www.w3.org/2000/svg" xmlns:xlink="http://www.w3.org/1999/xlink" x="0px" y="0px"
	 viewBox="0 0 731.5 500" style="enable-background:new 0 0 731.5 500;" xml:space="preserve">
<style type="text/css">
	.st0{display:none;}
	.st1{display:inline;fill:#A4E8FB;}
	.st2{fill:#F8AF00;}
	.st3{fill:#DF4505;}
	.st4{fill:#FFECC3;}
	.st5{fill:#FFE5D2;}
	.st6{fill:#A10E0D;}
	.st7{fill:#4097D3;}
	.st8{fill:#225B8B;}
	.st9{opacity:0.5;fill:#4097D3;enable-background:new    ;}
	.st10{opacity:0.5;fill:#225B8B;enable-background:new    ;}
	.st11{opacity:0.5;fill:#F8AF00;enable-background:new    ;}
	.st12{fill:#FBC400;}
	.st13{opacity:0.5;fill:#DF4505;enable-background:new    ;}
	.st14{fill:#2A88BC;}
	.st15{fill:#F89800;}
	.st16{opacity:0.3;fill:#F8AF00;enable-background:new    ;}
</style>
<g id="BACKGROUND" class="st0">
	<rect x="-124.7" class="st1" width="750" height="500"/>
</g>
<g id="OBJECTS">
</g>
<g id="DESIGNED_BY_FREEPIK">
	<g>
		<g>
			<g>
				<g>
					<g>
						<path class="st2" d="M21.4,200.2c5.8-4.9,11.9-9.6,15.7-16.3c10.5-18.2-6.7-27.6-13.6-41.9c-5.8-12.3-0.7-27.6,8.1-37.8
							c9.8-10.8,24.9-21.1,22-35.8c-0.9-4.9-4-8.9-6-13.4C42,41.3,47,30.3,55.9,22.9c14.5-11.9,35.2-10.8,48.2,2.5
							c8.1,8.3,11.9,19.7,4.7,32.9c-2.3,4.3-5.8,8-7.2,12.6c-4.5,14.1,9.6,26,18.1,37.9c7.8,10.8,11,26.7,4,38.3
							c-8.3,13.6-26.4,21-17.9,40.3c3.1,7,8.7,12.5,13.9,17.9c17.9,18.8,16.6,45.4-6.7,59.6c-13.9,8.5-30.4,9.6-46.3,10.7
							c-15.7-2.7-32-5.6-44.8-15.5C0.1,243.3,1.5,216.8,21.4,200.2z"/>
						<path class="st3" d="M73.8,188.4c-1.4,20.8-3.1,41.6-5.2,62.3c-0.2,2.2-0.5,4.3-0.7,6.7c3.3,0.4,10.1,0.9,17.5-0.5
							c13.6-2.7,22.2-10.7,26.2-23.5c0.2-0.7,1.1-1.1,1.8-0.9c0.7,0.2,1.1,1.1,0.9,1.8c-7.6,25.1-31.4,26.9-42.8,26.4
							c-1.6,0-2.9-0.2-4-0.4c-0.9,7.2-2,14.5-3.3,21.7c-0.9,5.2-2,10.3-3.3,15.5c-0.7,2.5-1.3,5.2-2.2,7.8c-0.9,2.5-1.8,5.1-3.3,7.8
							l0,0c-0.7,1.3-2.5,1.8-3.8,0.9c-1.3-0.7-1.8-2.5-0.9-3.8l0,0c1.1-2,2.2-4.3,2.9-6.7c0.9-2.3,1.6-4.9,2.2-7.2
							c1.3-4.9,2.3-9.9,3.3-15c1.8-10.1,3.4-20.4,4.7-30.7c1.4-11.4,2.7-22.9,3.8-34.5c-0.9,0-2.2,0-3.6,0
							c-4.2-0.2-9.6-1.3-14.3-4.9c-5.2-4-8.3-10.1-9.2-18.4c0-0.7,0.5-1.4,1.3-1.4c0.7,0,1.4,0.5,1.4,1.3c0.7,7.4,3.4,13,8.1,16.4
							c5.8,4.3,13.2,4.5,16.4,4.3c0.7-8.3,1.4-16.6,2.2-24.8c1.1-13.9,2-27.8,2.9-41.7c-4.7-0.4-29.8-3.6-30.5-28
							c0-0.7,0.5-1.4,1.4-1.4c0.7,0,1.4,0.5,1.4,1.4c0.4,10.1,5.1,17.3,14.5,21.7c5.8,2.7,11.6,3.4,13.6,3.6
							c0.4-6,0.7-11.9,1.1-17.9c0.9-17.3,1.8-34.7,2.5-52.2l0,0c-0.2,0-15.2-0.9-18.6-15c-0.2-0.7,0.4-1.4,1.1-1.6
							c0.7-0.2,1.4,0.4,1.6,1.1c2.9,11.9,15.2,12.8,15.9,12.8c0.2-2.5,0.2-5.1,0.4-7.4l0,0c0-0.5,0.5-1.1,1.3-1.1
							c0.7,0,1.1,0.5,1.1,1.3c-0.4,14.5-0.7,28.9-1.3,43.2c0.2,0,0.4,0,0.5,0.2c0,0,4.7,2.5,9.9,0.9c3.8-1.1,6.9-4.2,9.4-8.9
							c0.4-0.7,1.3-0.9,1.8-0.5c0.7,0.4,0.9,1.3,0.5,1.8c-2.7,5.4-6.5,8.9-11,10.3c-2,0.5-3.8,0.7-5.4,0.7c-2.9-0.2-5.1-0.9-6.1-1.4
							c-0.2,5.4-0.4,10.8-0.7,16.4"/>
					</g>
				</g>
				<g>
					<g>
						<path class="st4" d="M589.5,248.6c6-13.7,16.8-26,18.2-40.8c1.4-14.8-6.5-28.9-10.1-43.4c-4.9-19.3-1.6-40.7,8.7-57.8
							c2.9-4.9,6.3-9.2,10.3-13.4c20.1-20.6,53.8-20.6,74.1,0c4,4,7.4,8.5,10.3,13.4c10.3,17.2,13.6,38.5,8.7,57.8
							c-3.6,14.5-11.7,28.5-10.1,43.4c1.4,15,12.3,27.1,18.2,40.8c8.9,20.4,6.3,45.5-6.5,63.8c-12.8,18.2-35.4,29.3-57.6,28
							c-22.2,1.3-44.8-9.8-57.6-28C583.2,294.1,580.6,269.2,589.5,248.6z"/>
						<path class="st3" d="M601.4,257.3c0.4-0.4,1.1-0.2,1.3,0.4c13,20.4,35.2,19.7,41.6,19c0-8.7,0-17.2,0.2-25.8
							c0.5-21.7,1.4-43.4,2.7-65c-6.3-1.3-35.2-8.7-38.7-33.6c0-0.5,0.4-0.9,0.7-1.1c0.5,0,0.9,0.4,1.1,0.7
							c3.3,23.5,30.4,30.5,36.9,32c0-0.5,0-1.3,0.2-1.8c1.4-22.9,3.1-45.9,5.4-68.7c0-0.5,0.5-0.9,1.1-0.9s0.9,0.5,0.9,1.1
							c-0.9,11.7-1.8,23.3-2.5,35.1c6-0.9,30.4-5.6,38.5-22.6c0.2-0.5,0.7-0.7,1.3-0.4c0.5,0.2,0.7,0.7,0.4,1.3
							c-8.9,18.2-34.9,22.9-40.3,23.7c-0.7,10.5-1.3,21.1-1.8,31.6c-0.7,15.9-1.4,32-1.8,48.1c5.4,0.5,24.4,0.7,38.5-16.6
							c0.4-0.4,0.9-0.5,1.3-0.2c0.4,0.4,0.5,0.9,0.2,1.3c-12.5,15.4-28.5,17.5-36.7,17.5c-1.3,0-2.5,0-3.3-0.2
							c-0.2,6.3-0.2,12.6-0.4,18.8c-0.2,20.4,0.2,40.8,1.3,61.1c8.3,0.7,40.8,1.6,53.1-28.2c0.2-0.5,0.7-0.7,1.3-0.5
							c0.5,0.2,0.7,0.7,0.5,1.3c-10.7,26.2-36.1,29.6-49.1,29.6c-2.3,0-4.2-0.2-5.6-0.2c0.2,1.8,0.2,3.8,0.4,5.6
							c0.9,11.4,2,22.8,3.6,34c1.8,11.2,4.2,22.4,8.7,32.5v0.2l0,0c0.5,1.3,0,2.9-1.4,3.4c-1.3,0.5-2.9,0-3.4-1.4
							c-4.7-11-6.9-22.6-8.7-34c-1.6-11.4-2.7-22.9-3.3-34.5c-0.7-13.7-1.1-27.6-1.1-41.4c-1.1,0.2-2.7,0.2-4.7,0.2
							c-9.6,0-27.3-2.7-38.5-20.1C600.9,258.2,600.9,257.4,601.4,257.3z"/>
					</g>
				</g>
				<g>
					<g>
						<path class="st5" d="M385.3,43c0,0-5.1-3.3-7-8.1s-2.5-8.3-2.5-8.3s1.4-0.9,2.9,0.7c1.4,1.6,3.1,5.2,4,5.2
							c0.9,0,0-5.8-1.4-9.9c-1.6-4-3.6-7.6-2.5-8.1c1.1-0.7,4.7,4.7,5.8,7c0.2-1.6-2.5-9.4-1.4-10.1c0,0,8.3,2.9,10.3,7.8
							c2,4.9,1.3,20.4-1.1,23.5C389.5,45.8,385.3,43,385.3,43z"/>
						<path class="st6" d="M589.1,364.6c1.8,0.7,8.7,2.9,11,6.7c2.3,3.8-10.1,21.7-14.6,24s-19.9,3.6-17,0c2.9-3.6,9.2-4.2,10.7-6.5
							c1.4-2.3,3.4-10.8,0-15.9C576.1,368,583.2,362.2,589.1,364.6z"/>
						<path class="st6" d="M470.2,382.3c0,0,3.4,17,3.8,20.4c0.4,3.4-34.3,4-39,3.4c-4.7-0.7,7.6-7.6,16.8-10.3c9-2.7,9-13.6,9-13.6
							L470.2,382.3L470.2,382.3z"/>
						<path class="st2" d="M564.5,328.1c-4-6.1-8-12.3-11.4-18.4c-0.9-1.4-1.8-3.1-2.5-4.5c-0.7-1.4-1.6-2.9-2-4.2l-0.4-0.9
							c-0.2-0.4-0.4-0.7-0.2-0.7c0-0.4,0-0.5-0.2-0.9l-0.4-4c-0.5-6.5-0.7-14.1-0.9-21.3c-0.2-7.4-0.2-14.8-0.2-22.2
							c0-14.8,0.2-29.8,0.5-44.6l-44.1,2.7l-18.1-7.8L470.9,245c-4.5,14.6-9.2,29.1-13.6,44.3c-0.5,2-1.1,3.8-1.6,6.3
							c-0.5,2-1.3,6.5-1.3,8.1l-0.2,3.3v3.1c0,2.2,0,4,0,6c0.2,8,0.5,15.5,1.1,23.3c0.9,15.4,2,30.5,3.3,45.9h13.7
							c1.4-15.2,3.3-30.2,5.1-45.2c0.9-7.4,2-15,3.1-22.2c0.4-1.8,0.5-3.6,0.9-5.4l0.5-2.5c0.2-0.9,0.4-1.6,0.5-2.3l0.4-1.1
							c0.2-0.4,0.2-0.4,0.2-0.5c0-0.2,0.2-0.4,0.2-0.5l0.4-0.9l2.2-4.5c6.5-13.2,13.7-26.7,20.8-40.1l2.7-5.1
							c1.1,7,2.3,14.3,3.6,21.5c1.4,7.6,2.7,15,4.7,23.1l0.4,1.6l0.2,0.7l0.4,0.9l1.1,3.8c0.5,1.4,1.3,2.9,2,4.3
							c0.4,0.7,0.7,1.3,0.9,1.8l0.9,1.4c1.3,2.2,2.5,3.8,3.8,5.4c1.3,1.8,2.5,3.3,3.8,4.9c5.1,6.1,10.1,11.9,15.4,17.5
							c10.3,11.2,20.8,22,31.6,32.7l11.7-10.1C581.3,352.7,572.7,340.4,564.5,328.1z"/>
						<path class="st5" d="M479.1,37.4c0,0,1.6-12.1,13.9-13.7c12.3-1.6,20.1,2.2,22.8,11.6s0.5,23.5-10.1,29.6
							c-10.7,6-19.5,6.9-22.9,6.5c-3.6-0.4-3.3-12.6-3.6-14.8c0,0-4.2,1.4-5.2-0.9C472.8,53.4,479.6,45.5,479.1,37.4z"/>
						<path class="st7" d="M537.3,133.8c-1.3-29.3-13.2-47.7-25.1-53.1c-8.5-3.8-18.8-0.4-24.9,3.1l0,0c-5.6-0.2-11.2-0.5-16.8-0.9
							c-5.6-0.4-11.2-0.7-16.4-1.4c-2.7-0.4-5.4-0.5-7.8-1.1c-1.3-0.2-2.3-0.4-3.3-0.5l-0.7-0.2h-0.4c-0.4,0-0.2,0-0.7-0.2
							c-1.4-0.7-3.8-2.2-5.8-3.6c-2.2-1.6-4.3-3.3-6.3-5.1c-4.3-3.4-8.5-7.2-12.6-11c-8.5-7.6-14.5-14.5-22.6-22.4l-6.9,6.3
							c6.7,9.4,11,17.2,18.1,26.4c3.4,4.7,7,9.2,10.8,13.7c2,2.3,3.8,4.5,6,6.9c2.2,2.3,4.2,4.5,7.6,7c0.7,0.5,2,1.4,3.1,2l1.6,0.7
							l1.3,0.5c1.8,0.7,3.3,1.3,4.9,2c3.1,1.1,6,2,8.9,2.9c5.8,1.8,11.4,3.3,17.2,4.7c2.7,0.7,5.2,1.3,8,2
							c-0.7,13.2,1.8,27.5,1.8,38.5c0,19-4.7,59.6,2.9,69.2c19.2,6,70.3,1.3,71-7.8C547.9,198.7,538.3,162.9,537.3,133.8z"/>
						<path class="st5" d="M505.8,61.9c-0.2,1.8-1.3,11.9,3.3,19.3c-0.2,2.3-10.8,11.9-19.2,10.8c-8.3-0.9,0-9.9,4-11.4
							c4-1.4,1.1-14.3,1.1-15.9S505.8,61.9,505.8,61.9z"/>
						<path class="st8" d="M475.3,32.5c4.3,4.9,10.1,7.4,17.3,6.3c3.4,0,7,1.6,4,10.3c-2.9,8.9,1.6,3.6,6.3-2s9.8-0.9,5.8,4.3
							c-4,5.2-5.8,8.9-1.4,12.1c4.3,3.3,10.3-5.6,12.8-11c2.7-5.4,7.4-19.3-2.2-25.3c-2.7-4.7-9.8-6.9-14.6-8.1
							c-5.6-1.4-11.4-1.8-17-2c-5.4-0.2-10.7-0.7-16.1-0.7c-3.1,0-0.2,7.2,0.2,8.5C471.7,27.8,473.3,30.3,475.3,32.5z"/>
						<path class="st9" d="M477.1,83.2c-6.9,6.3-19,16.1-26.4,15.5c-9.4-0.7-32.9-12.8-33.4-13c1.4,1.6,2.9,3.3,4.3,4.9
							c2.2,2.3,4.2,4.5,7.6,7c0.7,0.5,2,1.4,3.1,2l1.6,0.7l1.3,0.5c1.8,0.7,3.3,1.3,4.9,2c3.1,1.1,6,2,8.9,2.9
							c5.8,1.8,11.4,3.3,17.2,4.7c2.7,0.7,5.2,1.3,8,2c0,0,3.3-19.2,13.4-28.7l0,0C483.8,83.6,480.5,83.4,477.1,83.2z"/>
						<path class="st9" d="M549.7,212.4c-1.8-13.7-11.4-49.5-12.5-78.8c-0.2-3.8-0.5-7.2-0.9-10.7c-6.9-2.9-15.7-5.4-19.3-1.8
							c0,0,13.2,30.4,16.6,53.1c3.1,21-29.3,36.1-57.1,40.5c0.5,2.2,1.4,4,2.3,5.2C497.9,226.2,549.2,221.5,549.7,212.4z"/>
						<path class="st5" d="M565.6,200c0,0-3.1,5.1-2.7,10.3c0.4,5.1,1.3,8.5,1.3,8.5s1.6,0.2,2.2-1.8c0.5-2,0.5-6,1.3-6.3
							c0.7-0.4,2.5,5.1,2.9,9.4c0.4,4.3,0,8.3,1.3,8.3c1.3,0.2,2.2-6.1,2.2-8.7c0.9,1.3,1.8,9.4,3.1,9.6c0,0,6.1-6.1,6-11.4
							c-0.2-5.2-7.6-18.6-11-20.4C568.5,195.6,565.6,200,565.6,200z"/>
						<path class="st7" d="M569.2,166.4c-0.9-5.6-1.8-11.4-2.9-17.2c-1.1-5.8-2.2-11.4-4.2-17.7c-0.4-0.9-0.5-1.6-0.9-2.5
							c-0.2-0.5-0.4-0.9-0.5-1.4l-0.9-1.6c-1.3-2.3-2.5-3.8-3.6-5.2c-2.3-2.9-4.3-5.1-6.5-7.2c-4.3-4.3-8.7-8.5-13-12.3
							c-4.5-4-8.9-7.8-13.4-11.6c-7-6-17.7-4.3-22.8,3.4l-0.2,0.4c-4.9,7.4-2.3,17.5,5.4,21.9c4.9,2.7,9.8,5.4,14.5,8.3
							c4.7,2.9,9.4,5.8,13.7,8.7c2.2,1.4,4.2,3.1,5.8,4.3c0.9,0.7,1.4,1.3,1.6,1.3c0.2,0.2,0.9,1.1,1.4,2c2.2,4.2,4.3,9.4,6.3,14.6
							s3.8,10.5,5.6,15.7c3.6,10.7,7,21,10.3,31.8l8.7-1.8C572.3,188.6,570.9,177.7,569.2,166.4z"/>
						<path class="st10" d="M520.1,52.7c0.4-0.9,0.9-2.2,1.4-3.4c-5.6-0.5-11.4-14.5-19-15.2c-10.8,0-27.3-1.6-27.3-1.6
							c4.3,4.9,10.1,7.4,17.3,6.3c3.4,0,7,1.6,4,10.3c-2.9,8.9,1.6,3.6,6.3-2s9.8-0.9,5.8,4.3c-4,5.2-5.8,8.9-1.4,12.1
							C511.4,67,517.4,58.3,520.1,52.7z"/>
						<path class="st11" d="M517.9,299.5c5.6-11.2,20.1-27.8,28.7-37.2c0-3.8,0-7.6,0-11.4c0-11.2,0.2-22.4,0.4-33.4
							c-12.5,16.1-37.4,37.6-37.4,37.6c1.1,7,2.3,14.3,3.6,21.5C514.7,284,515.9,291.4,517.9,299.5z"/>
					</g>
				</g>
				<g>
					<g>
						<path class="st4" d="M367.2,469.2c0,0,34.3,7.4,54-7.2c19.7-14.6,7.4-36.9-8.9-37C396.3,424.6,369.2,447.9,367.2,469.2z"/>
						<path class="st4" d="M345.5,464.1c0,0-34-8.7-45.2-30.7c-11-21.9,9.9-36.1,24.6-29.3C339.6,411.2,353.3,444.1,345.5,464.1z"/>
						<path class="st2" d="M423.6,451.1c0-0.4-0.4-0.5-0.7-0.5c-6.9,1.3-13.9-3.8-16.1-5.6c6.3-2.9,10.3-4,10.3-4
							c0.4,0,0.5-0.4,0.4-0.7c0-0.4-0.4-0.5-0.7-0.4c-0.2,0-4.3,1.3-11.2,4.3h-0.2c-2.2,0.9-4.5,2.2-7,3.4c-0.5-2-2-8.5,2-14.3
							c0.2-0.2,0.2-0.5-0.2-0.7c-0.2-0.2-0.5-0.2-0.7,0.2c-4.5,6.5-2.7,13.6-2.2,15.4c-3.6,2-7.8,4.5-11.9,7.4l0,0l0,0
							c-2,1.3-4,2.7-6,4.2c-0.5-1.6-1.6-6,0.7-10.7c0.2-0.4,0-0.5-0.2-0.7c-0.4-0.2-0.5,0-0.7,0.2c-2.7,5.4-1.3,10.3-0.5,11.7
							c-1.8,1.3-3.4,2.7-5.2,4.2c-0.2,0.2-0.2,0.5,0,0.7c0,0.2,0.2,0.2,0.4,0.2s0.4,0,0.5-0.2c4-3.3,7.8-6.1,11.4-8.7
							c0.9,1.4,3.8,5.1,10.5,6.7c1.6,0.4,3.3,0.5,5.2,0.7c0.4,0,0.5-0.2,0.5-0.5c0-0.4-0.2-0.5-0.5-0.5c-6.1-0.4-9.9-2.3-12.1-3.8
							c-1.6-1.3-2.5-2.3-2.9-3.1c7.4-5.1,14.1-8.5,19.3-11c0.7,0.5,2.5,2.2,5.2,3.6c2,1.1,4.2,2,6,2.3c2.2,0.5,4.3,0.5,6.1,0.4
							C423.4,451.7,423.6,451.3,423.6,451.1z"/>
						<path class="st2" d="M342.8,459.6c-2.7-6.1-5.4-11.6-8.3-16.4c1.4-1.1,5.4-5.8,3.8-16.8c0-0.4-0.4-0.5-0.7-0.5
							c-0.4,0-0.5,0.4-0.5,0.7c1.6,9.9-2,14.3-3.3,15.5c-2-3.3-3.8-6.1-5.8-8.9c0,0,0-0.2-0.2-0.2c-2.3-3.3-4.5-6.1-6.3-8.3
							c1.1-1.4,5.1-7.8,2.7-16.1c0-0.4-0.4-0.5-0.7-0.4c-0.4,0-0.5,0.4-0.4,0.7c2.2,7.4-1.1,13-2.3,14.8c-3.4-4.2-5.8-6.3-6-6.3
							c-0.2-0.2-0.5-0.2-0.7,0s-0.2,0.5,0,0.7c0.2,0,5.6,5.1,12.3,14.6c-2.9,0.2-11.4,0.5-19.2-3.4c-0.4-0.2-0.5,0-0.7,0.2
							c-0.2,0.4,0,0.5,0.2,0.7c2.3,1.3,4.9,2,7.2,2.5c6.3,1.4,11.7,0.9,13.2,0.9c3.4,4.9,7,10.8,10.7,18.1c-0.5,0.4-1.8,1.1-3.8,1.1
							c-2.5,0.2-6.9-0.7-12.6-5.4c-0.2-0.2-0.5-0.2-0.7,0c-0.2,0.2-0.2,0.5,0,0.7c4,3.3,7.2,4.7,9.9,5.4c4,0.9,6.5-0.2,7.6-0.9
							c1.1,2.2,2.2,4.5,3.3,6.9c0,0.2,0.2,0.4,0.4,0.4s0.2,0,0.4,0C342.8,460.4,343,460,342.8,459.6z"/>
						<path class="st4" d="M388.7,384.6c-6.1-7.4-15.5-9.6-24.4-5.8c-11.9,5.1-23.9,18.4-25.1,41.2c-1.6,31.8,17.2,46.6,17.2,46.6
							s23.5-4.7,36.1-34C401.9,411.7,397,394.4,388.7,384.6z"/>
						<path class="st2" d="M389.6,406c-0.2-0.2-0.5,0-0.7,0.2c-6.5,11.9-21.5,17-25.3,18.2c0.9-3.3,1.8-6.5,2.5-9.4
							c4.2-14.1,8.5-24.8,8.5-24.9c0.2-0.4,0-0.5-0.4-0.7c-0.4-0.2-0.5,0-0.7,0.4c0,0.2-2.5,6.3-5.6,15.5c-2-0.9-8.9-4.5-10.1-13.7
							c0-0.4-0.4-0.5-0.5-0.5c-0.4,0-0.5,0.4-0.5,0.5c1.4,9.8,9,13.7,11,14.6c-3.3,10.3-7.2,23.9-9.2,36.9
							c-2.9-2.2-14.1-11.4-13.7-22.8c0-0.4-0.2-0.5-0.5-0.5c-0.4,0-0.5,0.2-0.5,0.5c-0.2,5.6,2.3,11.6,7.4,17.3
							c3.3,3.6,6.3,6,7.4,6.7c-0.9,5.8-1.3,11.6-1.1,16.6c0,0.2,0.2,0.5,0.4,0.5h0.2c0.4,0,0.5-0.4,0.5-0.5
							c-0.5-10.8,1.8-23.9,4.7-35.2c2.3-0.7,19.5-5.8,26.6-19C390,406.5,390,406.1,389.6,406z"/>
					</g>
				</g>
				<g>
					<g>
						<path class="st12" d="M126.5,369.8c-2.9-2.7-5.1-8-5.8-11.7c-1.4-8,4.2-14.8,8.7-20.6c6-7.6,8.5-22,19.9-23.7
							c8.9-1.3,8.9,11.6,8.9,17.3c0,8.1-0.7,16.6-1.4,24.8c-0.5,6.5-2.7,14.8-9.2,18.2C141,377.8,131.8,374.7,126.5,369.8z"/>
						<path class="st12" d="M75.6,355.4c-3.6-0.4-8.1-2.9-10.8-5.2c-5.6-4.9-5.4-13-5.2-19.9c0.2-8.9-6.3-20.8,0.9-28.4
							c5.8-6,13,3.3,16.3,7.4c4.5,5.8,9,12.5,13,18.6c3.3,5.1,6.5,12.3,3.6,18.4C90.6,352.8,82.3,355.9,75.6,355.4z"/>
						<path class="st12" d="M101.2,335.3c-0.4-0.2-0.7-0.4-1.1-0.7c-9.9-6.5-10.7-17.7-7.2-28.2c2.9-9,4.2-18.4,5.6-27.6
							c0.5-3.8,1.1-8,3.4-11c4.9-6.7,12.5-3.6,16.4,1.6c3.4,4.5,5.4,10.1,6.9,15.5c2.2,8.9,3.8,18.2,5.2,27.3
							c1.1,7.4,1.1,17-5.1,22.4C118.6,340.4,108.7,339.5,101.2,335.3z"/>
						<path class="st8" d="M111.2,346.7l0.5-3.3l0.4-3.3c0.2-2.2,0.5-4.2,0.5-6.3c0.2-3.1,0.4-6,0.4-9c2.3-0.9,11-4.3,13.9-10.8
							c0.2-0.2,0-0.5-0.2-0.5c-0.2-0.2-0.5,0-0.5,0.2c-2.5,5.8-10.5,9.2-13.2,10.3c0-0.9,0-2,0-2.9v-3.3c0-1.1,0-2.2-0.2-3.3
							l-0.5-6.3c0-1.4-0.2-2.9-0.4-4.2c1.4-1.1,8.5-6.9,9.6-13.2c0-0.2-0.2-0.5-0.4-0.5l0,0c-0.2,0-0.5,0.2-0.5,0.4
							c-0.9,5.4-6.9,10.8-8.9,12.3c0-0.4-0.2-0.7-0.2-1.1l-0.9-6.3c0-0.2-0.2-0.4-0.5-0.4c-0.2,0-0.4,0.2-0.4,0.5l0,0l0.7,6.3
							c0.2,2.2,0.5,4.2,0.5,6.3l0.4,6c-2.3-1.1-9.4-4.3-10.8-10.7c0-0.2-0.4-0.4-0.5-0.4c-0.2,0-0.4,0.4-0.4,0.5
							c1.6,7,9.6,10.7,11.7,11.4c0,0.9,0,1.8,0,2.7v3.3c0.2,4.2-0.2,8.5-0.5,12.6c-0.2,2.2-0.4,4.2-0.7,6.3l-0.4,3.1l-0.5,3.1
							c-0.4,2.2-0.5,4.2-1.1,6.3l-1.3,6.1l-1.6,6.1c-0.5,2-1.1,4-1.8,6.1c-2.5,8.1-5.4,16.1-9.4,23.5l0,0l0,0
							c-0.4,0.7,0,1.4,0.5,1.8c0.7,0.4,1.4,0,1.8-0.5c3.8-7.8,6.7-15.9,9-24c0.5-2,1.3-4.2,1.6-6.1l1.4-6.3l1.3-6.3
							C110.6,351,110.8,348.9,111.2,346.7z"/>
						<path class="st8" d="M85,360.4c-0.5-4.7-1.6-9.2-2.9-13.7c1.6-0.9,6.3-4.3,6.3-10.3c0-0.2-0.2-0.4-0.4-0.4
							c-0.2,0-0.4,0.2-0.4,0.4c0,5.2-4,8.3-5.6,9.4c-0.2-0.7-0.4-1.4-0.5-2.2l-1.4-4.2c-0.5-1.4-1.1-2.7-1.6-4l-0.9-2
							c-0.2-0.2-0.2-0.5-0.4-0.7c0.9-1.1,4.5-5.8,3.3-11.7c0-0.2-0.4-0.4-0.5-0.4c-0.2,0-0.4,0.4-0.4,0.5c1.1,5.2-1.6,9.4-2.7,10.8
							c0-0.2-0.2-0.2-0.2-0.4l-2-3.8c-0.2-0.2-0.4-0.4-0.5-0.2c-0.2,0.2-0.4,0.4-0.2,0.5l0,0l1.8,3.8c0.4,0.7,0.7,1.3,0.9,2l0.7,2
							c0.4,0.7,0.5,1.6,0.9,2.3c-1.8,0.4-6.7,0.9-11.7-3.3c-0.2-0.2-0.5-0.2-0.5,0c-0.2,0.2-0.2,0.5,0,0.5c2.9,2.2,5.6,3.1,7.8,3.4
							c2.2,0.4,4,0,4.9-0.2c0.2,0.2,0.2,0.5,0.2,0.7l1.3,4c1.4,5.4,2.7,11,3.3,16.6c0.7,5.6,0.9,11.4,0.9,17
							c0,5.6-0.4,11.4-1.1,16.8l0,0l0,0c0,0.7,0.4,1.4,1.1,1.4c0.7,0,1.4-0.4,1.4-1.1c0.7-5.8,0.9-11.6,0.7-17.3
							C86.3,371.8,85.9,366,85,360.4z"/>
						<path class="st8" d="M151.7,356.5c-0.2-0.2-0.5-0.2-0.5,0c-3.3,3.6-10.8,5.2-13.9,5.6l0.7-1.4l0.5-1.1
							c0.2-0.4,0.4-0.7,0.4-1.1l0.9-2l0.9-2l0.4-1.1c0.2-0.4,0.2-0.7,0.4-1.1l1.3-4.2c0.5-1.4,0.7-2.9,1.1-4.3l0.9-4.3
							c0-0.4-0.2-0.5-0.4-0.7c-0.4,0-0.5,0.2-0.7,0.4l0,0l-1.1,4.2c-0.4,1.4-0.7,2.9-1.3,4.2l-0.7,2.2c-1.3-1.8-4-6.5-3.6-12.8
							c0-0.2-0.2-0.5-0.4-0.5s-0.4,0.2-0.5,0.4c-0.4,7.2,3.1,12.3,4.2,13.9l-0.4,1.1c-0.2,0.4-0.2,0.7-0.4,1.1l-0.4,1.1l-0.9,2
							l-0.9,2c-0.2,0.4-0.4,0.7-0.4,1.1l-0.5,0.9l-2,3.8c-0.5,0.9-1.1,1.8-1.6,2.7c-1.4-2.5-4.5-9.4-2.9-17c0-0.2-0.2-0.5-0.4-0.5
							c-0.2,0-0.5,0.2-0.5,0.4c-1.8,8.3,2,15.7,3.3,18.1c0,0,0,0.2-0.2,0.2l-1.1,1.8l-1.3,1.8c-0.9,1.3-1.6,2.3-2.5,3.6l-2.7,3.4
							l-2.9,3.3c-0.9,1.1-2,2.2-3.1,3.1c-4.2,4.2-8.5,8-13.4,11l0,0l0,0c-0.5,0.4-0.7,1.3-0.4,1.8c0.4,0.5,1.3,0.7,1.8,0.4
							c5.1-3.4,9.4-7.4,13.6-11.7c1.1-1.1,2-2.2,3.1-3.3l2.9-3.4l2.7-3.6c0.9-1.3,1.6-2.5,2.5-3.6l1.3-1.8l1.1-2
							c0.7-1.3,1.4-2.5,2.2-3.8l0.7-1.4c2.3-0.4,11.2-2,15-6C151.8,356.8,151.8,356.6,151.7,356.5z"/>
					</g>
				</g>
				<g>
					<path class="st13" d="M643.1,395.1c0-6.9-31.4-12.5-70.1-12.5c-29.8,0-55.1,3.3-65.4,8c-3.1,0-6.1,0-9.2,0
						c-49.1,0-89.1,7-89.1,15.7c0,8.7,39.9,15.7,89.1,15.7c47.2,0,85.8-6.5,88.7-14.8C619.1,406.1,643.1,401.1,643.1,395.1z"/>
				</g>
				<g>
					<g>
						<ellipse class="st13" cx="261.9" cy="372.5" rx="89.1" ry="15.7"/>
						<g>
							<path class="st6" d="M251.6,14c-1.6,1.1-6,7.8-7.6,11c-2.9,5.8-4.7,11.7-6,17.9c-1.6,8.5-3.3,19.2-12.6,22.2
								c-11.7,4-19.7,26.2-9.8,50.6c3.1,7.6,4.7,16.4-1.1,23.1c-2.2,2.5-5.1,4.5-7.6,6.7c-8.7,8.1-4.5,23.9,2.7,31.6
								c9.4,10.1,24.9,10.3,37.6,8.7c48.2-6.7,55.1-32.7,51.1-43.4c-4-10.7-19.7-17.3-18.2-31.8c1.6-14.5,12.3-19.5,14.6-29.1
								c2.3-9.4-8-17.5-8.3-26.7s9.4-25.8,0-34.2C277.2,12.8,261.3,7.5,251.6,14z"/>
							<path class="st6" d="M288.6,354.8c0,0,3.8,9.2,4.7,14.3c0.7,4.9-4.7,8.1-22.2,9.9c-13.9,2-20.4-2-9.2-6.5
								c11.2-4.5,15.7-9,15.7-15.5C277.6,353.4,288.6,354.8,288.6,354.8z"/>
							<path class="st14" d="M225.6,170.5c0,0,13.9,86,27.6,121.2c11.4,29.1,22.2,67.4,22.2,67.4s8.7,2,16.1-2.3
								c-1.4-13.9-12.5-71.7-22-99c0,0,21.1-58.2,9.2-92.7C270.6,145.4,232.1,162,225.6,170.5z"/>
							<path class="st6" d="M246.2,357.9c0,0,2.5,9.8,2.7,14.6c0,5.1-9.4,7.4-27.1,6.7c-14.1,0-18.1-4.5-6.3-7.4
								c11.7-2.9,18.8-7,19.7-13.4C235.5,354.8,246.2,357.9,246.2,357.9z"/>
							<path class="st7" d="M285.9,165.3c0,0,11,15.2,6.3,34.7c-4.7,19.7-28.9,83.1-28.9,83.1l-15.5,78.4c0,0,0.4,2.5-7.8,2.5
								c-6.3,0-7.6-2.5-7.6-2.5s2.3-62.2,4.7-82.8c2.3-20.6,9.9-91.2,16.1-108.1C258.3,163.7,285.9,165.3,285.9,165.3z"/>
							<path class="st9" d="M272.2,165.3c-6.5,1.3-13.6,2.7-17.7,4.2c-0.5,0.4-1.1,0.9-1.4,1.4c-1.1,2.7-2.2,7-3.3,12.5
								c5.2,2.3,28.4,13.4,40.1,24.4c0.9-2.9,1.6-5.6,2.2-7.6c4.7-19.7-6.3-34.7-6.3-34.7S279.4,164.9,272.2,165.3z"/>
							<path class="st5" d="M224.5,92.8c-0.4-0.4-0.7-0.7-1.3-1.1c-3.6-2.9-5.1,2.7-6.9,5.6c-1.3,1.8-2.5,3.8-3.8,5.6
								c-0.7,0.9-1.3,1.8-1.8,2.7l-0.9,1.3c-0.4,0.4-0.5,0.7-0.9,1.1l-0.9,1.1c-0.2,0.2-0.4,0.4-0.4,0.5c-0.5,0.5-1.4,1.1-2.3,1.8
								c-1.8,1.3-3.8,2.5-5.6,3.8c-3.8,2.5-7.8,5.1-11.7,7.4c-8,4.9-15.9,9.8-23.9,14.6c0,0-4.3-3.3-9.8-3.6c-5.2-0.4-7-0.9-7-0.9
								s1.3,4,5.2,5.1c2.3,0.5,2.7,0.9,2.7,0.9s-6.7,4.2-11.4,5.6s-5.6,1.6-2.9,2.9c2.7,1.1,6.9-0.7,6.9-0.7s-5.1,3.1-7,4.5
								c-1.8,1.4,4.2,2.7,8.1,4s16.3-6.5,18.4-10.8c8.7-3.6,17.3-7,26-10.8c4.3-1.8,8.7-3.6,13-5.6c2.2-0.9,4.3-2,6.7-3.1
								c1.1-0.5,2.3-1.1,3.6-2c0.7-0.5,1.4-1.1,2.3-1.6c0.7-0.5,1.1-0.9,1.6-1.4c0.5-0.5,1.1-0.9,1.6-1.4l1.4-1.3
								c0.9-0.9,1.8-1.8,2.7-2.7c1.3-1.3,4-3.3,4.3-5.1c0.4-1.8-1.1-5.6-1.4-7.6c-0.2-0.9-0.4-1.6-0.5-2.5
								C227.7,96.4,226.3,94.5,224.5,92.8z"/>
							<path class="st15" d="M245.8,61.2c0,0-15.7-1.4-28,25.3c-3.6,7.2-5.4,9.9-5.4,9.9s2.9,13.7,14.1,17.9
								c3.6,0.2,26-39.8,24.4-44.1C249.2,66.1,245.8,61.2,245.8,61.2z"/>
							<path class="st5" d="M328.4,189.7c-1.1-3.6,0.5-4.9,1.4-8.3c0.9-3.6-1.4-8-1.4-8s-0.2-0.2-0.4-0.2c-0.5-11.2-1.6-22-3.6-33.2
								c-0.9-5.6-2.2-11.2-4-17l-0.7-2.2l-0.9-2.2c-0.5-1.4-1.1-2.9-2-4.3l-1.1-2.2c-0.4-0.7-1.1-1.6-1.4-2.3l-1.6-2.3l-1.3-1.6
								c-5.2-6.3-15-24.2-22.9-12.1c-3.4,5.2-5.4,10.8-0.9,15c3.4,3.1,7.2,6,10.7,9.2l1.4,1.4l0.9,0.9c0.4,0.4,0.5,0.5,0.9,1.1
								l0.9,1.3c0.7,0.7,1.3,1.8,1.8,2.9l0.9,1.6l0.7,1.6c2.2,4.5,4,9.4,5.6,14.5c3.1,9.6,5.6,19.9,7.6,30c0,0-1.8,2.7-3.6,4.9
								c-2.2,3.1-2,9-1.3,7.6s3.1-4.9,3.1-4.9s-0.5,5.6,0,9.2c1.6,6.1,5.2,10.8,5.8,9.8c-2.2-4.9-2.2-9.9-2.2-9.9s1.4,4.3,3.6,6.1
								c3.1,2.2,7.6,0,7.6,0S329.5,193.3,328.4,189.7z"/>
							<path class="st2" d="M282.7,108.7c2.7,2.3,5.6,4.5,7.2,5.2c13.9-5.8,15-20.1,15-20.1s-1.6-1.6-7-8.3
								c-13.4-15.9-22.8-20.4-22.8-20.4l0,0c-7.8-4.3-21.3-4.3-21.3-4.3c-7.6-0.5-14.5,0.9-19.7,7.4c-5.4,6.5-14.1,21-12.1,32.3
								c2,11.4,8.7,11,8.7,25.1c0,18.4-3.8,35.1-5.6,52.4c39.8,14.1,65.2-7.4,65.2-7.4c-1.6-8.1-12.8-28.7-8.5-54.6
								C281.9,113.4,282.3,111.1,282.7,108.7z"/>
							<path class="st5" d="M262.2,12.6c0,0,15.5-3.4,21.1,12.3c1.1,5.6-0.4,9.2,1.4,12.3c1.6,3.1,3.3,4.3,0,5.8s-3.3,3.1-2.9,6
								c0.4,2.9-1.6,7-8.1,6.1c-6.3-0.9-13.2-3.3-20.2-13.2C246.5,32.1,247.6,15.5,262.2,12.6z"/>
							<path class="st5" d="M255.4,44.4c0,0,2.2,12.1-6.1,21.7c-4.9,5.2-3.6,16.8,5.8,17.9c9.2,1.1,17.7-5.4,10.3-17.3
								c-3.6-5.2-1.1-12.8,0.9-15.7C268.2,48,261.7,43,255.4,44.4z"/>
							<path class="st6" d="M266.2,26.5c0,0,11.4,9.9,20.6,5.1c9.2-4.9,2.3-19.3-6.3-21.3c-8.5-2-20.1-4.3-28.9,3.8
								c-3.1,3.4-12.1,17.3,1.4,32.9c6.7,2,3.1-5.8,2.5-10.8c-0.5-5.1,2.2-8,3.8-4s0.9,11,2,12.1C262.2,45.1,261.5,26.3,266.2,26.5z
								"/>
							<path class="st16" d="M282.7,108.7c2.7,2.3,5.6,4.5,7.2,5.2c4.3-1.8,7.4-4.5,9.6-7.2c0,0-10.7-3.4-17.3-7.8
								c-5.1,2.9-7,13.4-8.1,18.2c-3.1,13.4,7.8,32-5.1,41.7c-12.3,9.4-27.6,11.6-42.8,9.8c-0.4,2.3-0.7,4.7-1.1,7
								c0,0.5-0.2,1.1,0.2,1.4c0.2,0.5,0.7,0.7,1.3,0.9c20.8,8,45.4,5.1,63.8-7.6c-5.8-18.1-11.9-35.4-8.5-54.6
								C281.9,113.4,282.3,111.1,282.7,108.7z"/>
						</g>
					</g>
				</g>
			</g>
		</g>
	</g>
</g>
</svg>
