<?xml version="1.0" encoding="utf-8"?>
<!-- Generator: Adobe Illustrator 23.0.5, SVG Export Plug-In . SVG Version: 6.00 Build 0)  -->
<svg version="1.1" id="Layer_1" xmlns="http://www.w3.org/2000/svg" xmlns:xlink="http://www.w3.org/1999/xlink" x="0px" y="0px"
	 viewBox="0 0 500 500" style="enable-background:new 0 0 500 500;" xml:space="preserve">
<style type="text/css">
	.st0{display:none;}
	.st1{display:inline;fill:#E2DADA;}
	.st2{fill:#EBE6E6;}
	.st3{fill:#A19CD7;}
	.st4{fill:none;stroke:#6B69A3;stroke-width:1.7924;stroke-linecap:round;stroke-linejoin:round;stroke-miterlimit:10;}
	.st5{fill:none;stroke:#D1B7B6;stroke-width:2.3208;stroke-miterlimit:10;}
	.st6{fill:#D6AF60;}
	.st7{fill:#FFFFFF;}
	.st8{fill:#1A1723;}
	.st9{fill:#2C253D;}
	.st10{fill:#BC5642;}
	.st11{fill:#AB4232;}
	.st12{fill:#D4AF8A;}
	.st13{fill:#DDDCDD;}
	.st14{fill:none;stroke:#2C253D;stroke-width:1.2995;stroke-miterlimit:10;}
	.st15{fill:none;stroke:#FFFFFF;stroke-width:0.7603;stroke-miterlimit:10;}
	.st16{fill:#7771AD;}
	.st17{fill:#6B69A3;}
	.st18{fill:#8680B9;}
	.st19{fill:none;stroke:#7771AD;stroke-width:1.2585;stroke-miterlimit:10;}
	.st20{fill:#C69C75;}
	.st21{fill:#090006;}
	.st22{fill:none;stroke:#090006;stroke-width:0.8498;stroke-linecap:round;stroke-linejoin:round;stroke-miterlimit:10;}
	.st23{fill:#5A5080;}
	.st24{fill:none;stroke:#E6E6E6;stroke-width:1.2585;stroke-miterlimit:10;}
</style>
<g id="BACKGROUND" class="st0">
	<rect x="0.2" class="st1" width="500" height="500"/>
</g>
<g id="OBJECTS">
	<g>
		<g>
			<g>
				<path class="st2" d="M478.4,464.9H322.5l0,0c0-45.1,34.9-81.6,77.9-81.6l0,0C443.5,383.4,478.4,419.9,478.4,464.9L478.4,464.9z"
					/>
				<path class="st2" d="M358.3,464.9H28.9l0,0c0-95.2,73.8-172.4,164.6-172.4l0,0C284.5,292.5,358.3,369.7,358.3,464.9L358.3,464.9
					z"/>
			</g>
			<g>
				<g>
					
						<ellipse transform="matrix(0.2514 -0.9679 0.9679 0.2514 -329.3062 338.7209)" class="st3" cx="54.3" cy="382.3" rx="47.6" ry="47.6"/>
					<g>
						<line class="st4" x1="54.3" y1="353.3" x2="54.3" y2="464.9"/>
						<line class="st4" x1="33.8" y1="390.6" x2="54.3" y2="409.1"/>
						<line class="st4" x1="77.6" y1="359.5" x2="54.3" y2="391.8"/>
					</g>
				</g>
				<g>
					<circle class="st3" cx="410.7" cy="403.3" r="35.4"/>
					<g>
						<line class="st4" x1="410.7" y1="381.8" x2="410.7" y2="464.9"/>
						<line class="st4" x1="395.4" y1="409.5" x2="410.7" y2="423.4"/>
						<line class="st4" x1="428.1" y1="386.4" x2="410.7" y2="410.5"/>
					</g>
				</g>
			</g>
			<line class="st5" x1="2" y1="465.3" x2="500" y2="465.3"/>
		</g>
		<g>
			
				<ellipse transform="matrix(0.1593 -0.9872 0.9872 0.1593 41.222 152.9391)" class="st6" cx="110.4" cy="52.3" rx="22.1" ry="22.1"/>
			<g>
				<g>
					<path class="st7" d="M438.6,118.8h-21l0,0c0-6.1,4.7-10.9,10.4-10.9l0,0C433.9,107.9,438.6,112.8,438.6,118.8L438.6,118.8z"/>
					<path class="st7" d="M422.5,118.8h-44.3l0,0c0-12.7,9.9-23.2,22.1-23.2l0,0C412.5,95.7,422.5,106.1,422.5,118.8L422.5,118.8z"
						/>
				</g>
				<g>
					<path class="st7" d="M76.1,206.9H30.8l0,0c0-13.1,10.2-23.7,22.7-23.7l0,0C65.9,183.1,76.1,193.8,76.1,206.9L76.1,206.9z"/>
					<path class="st7" d="M91.5,206.9H68.8l0,0c0-6.6,5.1-11.9,11.3-11.9l0,0C86.4,195,91.5,200.3,91.5,206.9L91.5,206.9z"/>
				</g>
			</g>
		</g>
	</g>
	<g>
		<g>
			<g>
				<path class="st8" d="M174.3,170.3c-0.4,0-1.9,0.8-4.1,1.9c-7,3.5-11.9,10.4-13,18.2l-1.6,11.3c-1.1,7.6,1.7,15.4,7.3,20.7
					l5.6,5.3L174.3,170.3z"/>
				<path class="st9" d="M248.1,135.7l-34.7-4.1c-2.7-0.4-5.3-0.5-8.1-0.1c-17.1,1.7-31.1,15.4-32.6,33l-5.8,62.6
					c-0.8,8.6,4.6,16.6,13,19.2l50.3,13.8L248.1,135.7z"/>
			</g>
			<g>
				<polygon class="st10" points="198.2,102.1 261.1,118.5 256.4,148.8 192.3,132.2 				"/>
				<path class="st11" d="M210.3,120c-1.6,8.2-9.7,13.7-18,12.1c-8.2-1.6-13.7-9.7-12.1-18s9.7-13.7,18-12.1S211.9,111.8,210.3,120z
					"/>
				<path class="st9" d="M217.7,107.2c0,0,9.3,4.6,6.6,15.3c-3.4,12.6-12.7,14.7-12.7,14.7l6.2,1.6c0,0,9.3-3.8,11.8-15.3
					c2.3-11-5-14.6-5-14.6L217.7,107.2z"/>
				<path class="st9" d="M242.4,113.8c0,0,9.3,4.6,6.6,15.3c-3.4,12.6-12.7,14.7-12.7,14.7l6.2,1.6c0,0,9.3-3.8,11.8-15.3
					c2.3-11-5.7-14.7-5.7-14.7L242.4,113.8z"/>
			</g>
		</g>
		<g>
			<g>
				<g>
					<g>
						<polygon class="st12" points="280.3,382.8 301.5,436.8 327.2,425.3 311.6,371 						"/>
						<polygon class="st7" points="293.6,416.7 321.8,406.3 327.2,425.3 300,433.8 						"/>
					</g>
					<g>
						<path class="st9" d="M296.6,431.3l8.2,26.9l67.7-20.7c0,0-1.2-12.3-16.1-9.9s-17.8,4.2-22.4,1c-2.5-1.8-4-5-4.7-7.2
							c-0.5-1.3-1.8-2.1-3.2-1.6l-27.8,8.5C296.9,428.5,296.1,430,296.6,431.3z"/>
						
							<rect x="301.2" y="447.7" transform="matrix(0.9561 -0.2932 0.2932 0.9561 -117.0477 119.2887)" class="st9" width="76.4" height="4.7"/>
						<g>
							<path class="st13" d="M326.9,428.9c0.1,0.6,0.8,1,1.3,0.7c0.6-0.1,1-0.8,0.7-1.3c-0.1-0.6-0.8-1-1.3-0.7
								C327,427.7,326.6,428.3,326.9,428.9z"/>
							<path class="st13" d="M331.6,432.5c0.1,0.6,0.8,1,1.3,0.7c0.6-0.1,1-0.8,0.7-1.3c-0.1-0.6-0.8-1-1.3-0.7
								C331.7,431.5,331.4,432.1,331.6,432.5z"/>
							<path class="st13" d="M338.5,433.6c0.1,0.6,0.8,1,1.3,0.7c0.6-0.1,1-0.8,0.7-1.3c-0.1-0.6-0.8-1-1.3-0.7
								C338.7,432.4,338.4,433,338.5,433.6z"/>
							<path class="st13" d="M345.9,432.5c0.1,0.6,0.8,1,1.3,0.7c0.6-0.1,1-0.8,0.7-1.3c-0.1-0.6-0.8-1-1.3-0.7
								C346.2,431.3,345.8,431.9,345.9,432.5z"/>
						</g>
						<path class="st14" d="M335.1,428.8c0,0,5.1-9.5,10.2-10.4c5.2-1,3.3,4.2,0.1,6.6c-4,3-9.9,5.3-9.9,5.3"/>
						<path class="st14" d="M333.3,429.5c0,0-3.4-10.2-0.6-14.6c2.9-4.4,5.2,0.6,4.9,4.4c-0.6,5-3,10.8-3,10.8"/>
						<line class="st15" x1="304.8" y1="458.3" x2="372.5" y2="437.5"/>
					</g>
				</g>
				<g>
					<polygon class="st16" points="265.1,226.1 301.9,315 321.3,382.6 283.1,399.2 261.1,335.5 228.4,280.2 					"/>
					<polygon class="st17" points="281.4,404.4 325.8,389 320.2,373.8 276.5,389.1 					"/>
				</g>
			</g>
			<g>
				<g>
					<g>
						<polygon class="st12" points="154.1,353.1 123.1,402.1 147.5,415.9 182,371.4 						"/>
						<polygon class="st7" points="134.6,383.8 159.5,400.5 147.5,415.9 124.5,398.9 						"/>
					</g>
					<g>
						<path class="st9" d="M124.4,394.8l-16.9,22.4l56.7,42.5c0,0,9.2-8.2-1.5-18.9c-10.6-10.7-14-12-14-17.6c0-3.2,1.7-6.2,2.9-8.1
							c0.8-1.1,0.6-2.7-0.6-3.5l-23-17.2C127,393.5,125.3,393.7,124.4,394.8z"/>
						<rect x="132.3" y="402.3" transform="matrix(0.6 -0.8 0.8 0.6 -298.5907 283.9208)" class="st9" width="4.7" height="76.4"/>
						<g>
							<path class="st13" d="M144.3,417.9c-0.4,0.5-0.2,1.2,0.2,1.6c0.5,0.4,1.2,0.2,1.6-0.2c0.4-0.5,0.2-1.2-0.2-1.6
								S144.7,417.4,144.3,417.9z"/>
							<path class="st13" d="M144.1,423.8c-0.4,0.5-0.2,1.2,0.2,1.6c0.5,0.4,1.2,0.2,1.6-0.2c0.4-0.5,0.2-1.2-0.2-1.6
								C145.2,423.2,144.4,423.3,144.1,423.8z"/>
							<path class="st13" d="M147.3,430.1c-0.4,0.5-0.2,1.2,0.2,1.6s1.2,0.2,1.6-0.2c0.4-0.5,0.2-1.2-0.2-1.6
								C148.4,429.5,147.7,429.6,147.3,430.1z"/>
							<path class="st13" d="M152.7,435.5c-0.4,0.5-0.2,1.2,0.2,1.6c0.5,0.4,1.2,0.2,1.6-0.2c0.4-0.5,0.2-1.2-0.2-1.6
								C153.8,434.8,153,435,152.7,435.5z"/>
						</g>
						<path class="st14" d="M149.3,424.5c0,0,10.7-1.6,14.4,2.1c3.8,3.6-1.5,5.1-5.2,4c-4.7-1.5-10.1-5-10.1-5"/>
						<path class="st14" d="M147.7,423.4c0,0,6.2-8.7,11.4-9.1c5.2-0.2,2.7,4.6-0.7,6.4c-4.4,2.4-10.6,4-10.6,4"/>
						<line class="st15" x1="107.5" y1="417.3" x2="164.2" y2="459.7"/>
					</g>
				</g>
				<g>
					<path class="st18" d="M265.1,226.1c0,0,3.3,34.3-41,98.4s-49.7,68.2-49.7,68.2l-36.8-22.3l42.9-64.1l14-59.7
						c0,0,6.1-21.6,25.8-29.7L265.1,226.1z"/>
					<polygon class="st16" points="135.3,369.1 176.5,394.3 186.4,381.7 144.7,356.5 					"/>
					<g>
						<polyline class="st19" points="228.3,218.9 197.6,313.7 156.7,378.8 						"/>
						<path class="st19" d="M228.4,248.5c0,0,17.8-0.8,23.9-20"/>
					</g>
				</g>
			</g>
		</g>
		<g>
			<g>
				<polygon class="st12" points="253,110.6 242,119.4 233,143.9 254.9,160.6 266.2,129.1 				"/>
				<path class="st20" d="M259.4,114.7c0,0-11,17.1,1,30.6l3.4-9.5L259.4,114.7z"/>
			</g>
			<g>
				<path class="st12" d="M291.6,103.8l-7.2,23.3c-2.7,8.6-12.1,13.1-20.5,9.5c0,0-7.3-4.2-7.8-14.8l-1.6-21.4L291.6,103.8z"/>
				<path class="st12" d="M285.2,116.2l3.8,7.4c0.4,1.1-0.7,1.9-2.1,1.6l-4.7-1.2L285.2,116.2z"/>
				<path class="st9" d="M256.9,114.3c0.2-0.5,9.3-0.1,13.2-14.4l-16-3.6l-3.4,9.5L256.9,114.3z"/>
				<path class="st9" d="M251.1,113.7c0,0-0.6,5.6-4,5.8c-3.4,0.2-5.2,0-5.2,0s0.7-4-1.1-6.3c-1.7-2.1-13.5-13.5-4-27.7
					c3.4-5.1,9.1-8.2,15.2-8c5.1,0.2,11.4,2.4,18.2,9.8l-9.5,16.7L251.1,113.7z"/>
				<path class="st9" d="M265.4,102.3c0,0,20.5,7.4,30.7,8.1c0,0,1.2-18.1-12.5-28.6c-13.7-10.6-27.3,7-27.3,7L265.4,102.3z"/>
				<path class="st9" d="M291.5,93c0,0-2.7-13.7-24.9-18.8s-31.1,13.6-31.1,13.6l18.2,7.2L291.5,93z"/>
				<path class="st9" d="M251.1,79.4c0,0,7-23.2-6.1-37c-11-11.5-20.9-10.2-26.6-3c-5.8,7.2-0.7,20.4,6.2,28.1
					c8.2,9.2,16.5,13,22.7,15L251.1,79.4z"/>
				<path class="st12" d="M259.6,111.4c-1,3.5-4.5,5.6-7.9,4.6c-3.5-1-5.6-4.5-4.6-7.9c1-3.5,4.5-5.6,7.9-4.6
					C258.5,104.4,260.5,107.9,259.6,111.4z"/>
				<g>
					<path class="st21" d="M285.2,116.2c-0.2,0.7-1.1,1.1-1.8,0.8s-1.1-1.1-0.8-1.8c0.2-0.7,1.1-1.1,1.8-0.8
						S285.4,115.4,285.2,116.2z"/>
					<path class="st21" d="M287.5,111.5c0,0.6-2.1,1-4.6,0.8c-2.5-0.1-4.5-0.7-4.5-1.3c0-0.6,2.1-1,4.6-0.8
						C285.4,110.3,287.5,110.9,287.5,111.5z"/>
					<path class="st22" d="M277.5,124.2c0,0,1.3,3.8,6.3,3.8"/>
				</g>
			</g>
		</g>
		<g>
			<g>
				<path class="st7" d="M259.8,225.6c0,0,19.8-30.7,9.9-50.1c-9.8-19.3-21.1-30-33-35.1h-0.1c-5.3-2.3-11.5-0.8-15.5,3.4
					c-14.1,15.3-15.6,33.4-11.2,70.5L259.8,225.6z"/>
				<path class="st9" d="M221.1,143.9c0,0,30.8,1.1,33.2,28.5c2.4,27.4-33.5,45.5-53,36.3v4.7c0,0,53.6,11.8,58.6-33.1
					c5-44.9-49.1-40.9-49.1-40.9L221.1,143.9z"/>
			</g>
			<g>
				<g>
					<path class="st9" d="M357.1,157.3l-145,304.6c-0.6,1.5,0.1,3,1.7,3.4l0,0c1.1,0.2,2.2-0.2,2.8-1.3l147.6-303.4
						c0.8-1.8,0.1-4.1-1.7-5.1l0,0C360.5,154.4,358.1,155.2,357.1,157.3z"/>
					<path class="st9" d="M346.2,168.4l2.5,9.7l-4.4,6.8l-1.6-15.9c-0.1-0.7,0.4-1.5,1.1-1.8l0,0
						C344.8,166.9,345.9,167.3,346.2,168.4z"/>
					<path class="st23" d="M364.5,158.6c0,2.1-1.7,3.9-3.9,3.9c-2.2,0-3.9-1.7-3.9-3.9c0-2.1,1.7-3.9,3.9-3.9
						C362.8,154.7,364.5,156.6,364.5,158.6z"/>
					<path class="st23" d="M346.3,168.8c0,1-0.8,1.8-1.8,1.8c-1,0-1.8-0.8-1.8-1.8c0-1,0.8-1.8,1.8-1.8S346.3,167.8,346.3,168.8z"/>
				</g>
				<g>
					<path class="st12" d="M298,218.2l18.9-0.1l15.4-12.3c0.7-0.5,1.6-0.6,2.3-0.2l0,0c1.3,0.7,1.7,2.4,0.6,3.5l-4.2,5.8l8.2-3.2
						c2.4-0.5,4.6,1.5,4.5,3.9l-0.5,8.4c-0.2,3.5-2.4,6.6-5.6,7.8c-5.2,2.1-7,4.4-17.3,2.3l-21.4-0.8L298,218.2z"/>
					<g>
						<path class="st7" d="M253,167.5l11.6,35.5c0,0,20.9,10.9,44.9,13.6l1.3,26.9c0,0-44.6-1.9-61.1-8.6c-1.9-0.7-3.6-1.9-5-3.5
							c-4.7-5.5-17.2-22-26.2-53.4c-2.3-8.1,1.5-16.9,9-20.9l0,0C237.4,151.9,249.6,156.8,253,167.5z"/>
						<path class="st24" d="M218.1,175.2c0,0,5.1,24.7,14.4,38.1"/>
						<polyline class="st24" points="252.2,165.2 264.6,203 269.5,205.3 						"/>
					</g>
				</g>
			</g>
		</g>
	</g>
</g>
<g id="DESIGNED_BY_FREEPIK">
</g>
</svg>
