<?xml version="1.0" encoding="utf-8"?>
<!-- Generator: Adobe Illustrator 23.0.5, SVG Export Plug-In . SVG Version: 6.00 Build 0)  -->
<svg version="1.1" id="Layer_1" xmlns="http://www.w3.org/2000/svg" xmlns:xlink="http://www.w3.org/1999/xlink" x="0px" y="0px"
	 viewBox="0 0 1024 768" style="enable-background:new 0 0 1024 768;" xml:space="preserve">
<style type="text/css">
	.st0{fill:#FFE1B6;stroke:#FFE1B6;stroke-width:0.9232;stroke-miterlimit:10;}
	.st1{display:none;fill:none;stroke:#FFE1B6;stroke-width:39.7787;stroke-linecap:round;stroke-miterlimit:10;}
	.st2{fill:none;stroke:#FFE1B6;stroke-width:39.7787;stroke-linecap:round;stroke-miterlimit:10;}
</style>
<g>
	<path class="st0" d="M310.5,364.3c0.6-13.4,0.9-43.9,0.9-62.4v-14.2c0-16.3-0.3-25.5-0.9-37.4l-18.4-2.7V236l62.2-19.7l5.1,3.2
		l-0.9,43.1V302c0,18.4,0.3,49,0.9,62.4H310.5z M373.8,350.5v13.8H295v-13.8l27.5-5.9h22.4L373.8,350.5z M309.3,170.7
		c0-13.9,11.2-23.6,25.2-23.6c14,0,25.2,9.8,25.2,23.6c0,13.8-11.2,23.6-25.2,23.6C320.4,194.3,309.3,184.4,309.3,170.7z"/>
	<path class="st0" d="M510.6,220.8v11.5l-80.1,132.1v-13.8h68.9l-22.1,13.8l12.1-49.7h24.1l-3,49.7H385.4v-11.7l82.7-131.9v13.5
		h-65.4l19.7-13.5L411,267.3l-23.8-1.2l2.4-45.3H510.6z"/>
	<path class="st0" d="M648.4,220.8v11.5l-80.1,132.1v-13.8h68.9l-22.1,13.8l12.1-49.7h24.1l-3,49.7H523.2v-11.7l82.7-131.9v13.5
		h-65.4l19.7-13.5l-11.4,46.5l-23.8-1.2l2.4-45.3H648.4z"/>
	<path class="st0" d="M679.9,364.3c0.6-13.4,0.9-43.9,0.9-62.4v-14.2c0-16.3-0.3-25.5-0.9-37.4l-18.4-2.7V236l62.2-19.7l5.1,3.2
		l-0.9,43.1V302c0,18.4,0.3,49,0.9,62.4H679.9z M743.2,350.5v13.8h-78.8v-13.8l27.5-5.9h22.4L743.2,350.5z M678.7,170.7
		c0-13.9,11.2-23.6,25.2-23.6c14,0,25.2,9.8,25.2,23.6c0,13.8-11.2,23.6-25.2,23.6C689.8,194.3,678.7,184.4,678.7,170.7z"/>
</g>
<circle class="st1" cx="520.9" cy="379.8" r="338.1"/>
<path class="st2" d="M769.5,379.8c0,137.3-111.3,248.6-248.6,248.6S272.3,517.1,272.3,379.8"/>
</svg>
